<?xml version="1.0" encoding="utf-8"?>
<!-- Generator: Adobe Illustrator 27.7.0, SVG Export Plug-In . SVG Version: 6.00 Build 0)  -->
<svg version="1.1" id="Layer_1" xmlns="http://www.w3.org/2000/svg" xmlns:xlink="http://www.w3.org/1999/xlink" x="0px" y="0px"
	 viewBox="0 0 223 202" style="enable-background:new 0 0 223 202;" xml:space="preserve">
<style type="text/css">
	.st0{fill:none;}
	.st1{fill:#202020;}
</style>
<g id="Layer_2_00000152263862931934153130000000841938432177270913_">
	<g id="Ingredients">
		<g id="Black_pepper">
			
				<rect x="4.6" y="5.1" transform="matrix(0.9988 -4.937274e-02 4.937274e-02 0.9988 -4.8501 5.6287)" class="st0" width="213.8" height="191.7"/>
			<path class="st1" d="M47.7,193.5l-0.6-0.7l-0.4-0.2l-0.6-0.2h-0.4c-0.1,0-0.3,0.1-0.4,0.1h-0.6c-0.7,0-1.4,0.3-2,0.7l-0.3,0.4
				l-0.2,0.6v0.5l0.3,0.9l0.3,0.4l0.5,0.4l0.5,0.2h0.4h0.2c0.3,0,0.7,0,1.1,0c1.2,0,2.3-0.7,2.7-1.8v-0.4l-0.1-0.6L47.7,193.5z"/>
			<path class="st1" d="M118.5,20.3l0.1-0.4v-0.4c0-1.1-0.8-2-1.9-2.1h-0.3l-0.4,0.1l-0.2,0.1l0,0l-0.3,0.1l-0.4,0.2l-0.2,0.2
				l-0.4,0.5l-0.1,0.2l-0.1,0.3v0.3c0,0.6,0.2,1.3,0.7,1.7c0.5,0.4,1.1,0.7,1.7,0.6c0.2,0,0.4,0,0.5-0.1l0.3-0.1l0.4-0.2l0.2-0.2
				l0.4-0.6L118.5,20.3z"/>
			<path class="st1" d="M62.2,68.1c0.5-0.5,0.7-1.2,0.6-1.9l-0.1-0.3l-0.2-0.4l-0.2-0.2l-0.5-0.4l-0.3-0.1l-0.4-0.1h-0.3
				c-0.4,0-0.8,0.1-1.2,0.3L59.2,65l-0.3,0.2l-0.6,0.5L58.1,66l-0.2,0.5v0.4c0.1,1.3,1.2,2.3,2.5,2.2C61.1,69,61.8,68.7,62.2,68.1z"
				/>
			<path class="st1" d="M203.1,129.9v-0.1l-0.1-0.3l-0.1-0.1l-0.1-0.2l-0.1-0.1c-0.5-0.5-1.2-0.8-1.9-0.7c-1,0-1.9,0.7-2.3,1.7
				c-0.3,1,0,2.1,0.9,2.7l0.1,0.1l0.3,0.1l0.3,0.1h0.1h0.2h0.1h0.9l0.3-0.1l0.4-0.2l0.2-0.2l0.5-0.5l0.2-0.3l0.1-0.4V131v-0.9V130
				L203.1,129.9z"/>
			<path class="st1" d="M142.9,118.5l-0.2-0.3l-0.6-0.7l-0.2-0.2c-0.4-0.3-1-0.4-1.5-0.4h-0.2l-0.3,0.1l-0.4,0.2l-0.2,0.2L139,118
				l-0.1,0.3l-0.1,0.4v0.3v0.7l0.1,0.3l0.2,0.4l0.2,0.2l0.5,0.5l0.3,0.2l0.4,0.1h0.3h0.4l0.3-0.1l0.4-0.2l0.2-0.1l0.5-0.5l0.1-0.1
				c0.2-0.3,0.4-0.7,0.4-1.1v-0.3L142.9,118.5z"/>
			<path class="st1" d="M5.8,40.3L5.6,40l-0.2-0.2c-0.5-0.4-1.1-0.7-1.8-0.6c-1.1,0.1-2,1-2.1,2.1v0.2v0.3l0.1,0.2l0.2,0.4l0.1,0.1
				L2,42.6l0.1,0.1c0.5,0.4,1.1,0.6,1.7,0.6c0.9,0,1.7-0.6,2.1-1.4L6,41.7l0.1-0.4v-0.3l-0.1-0.6L5.8,40.3z"/>
			<path class="st1" d="M184.8,188.3h-0.2h-0.3H184l-0.5,0.2l-0.2,0.1l-0.3,0.2l-0.2,0.1c-1.1,1.3-0.5,3.2,0.3,4.1l0.5,0.3l0.7,0.1
				l0.5-0.1l0.9-0.5l0.4-0.4l0.3-0.6l0.1-0.4c0-0.1,0-0.2,0-0.3C186.5,189.6,186,188.6,184.8,188.3z"/>
			<path class="st1" d="M160.1,23.4l-0.4-0.6l-0.2-0.2l-0.3-0.2l-0.1,0.1l-0.1-0.3c-0.4-0.3-1-0.5-1.5-0.5c-0.9,0.1-1.7,0.7-1.9,1.6
				v0.3V24l0.1,0.3l0.3,0.6l0.1,0.2l0.2,0.2l0.2,0.1c0.5,0.4,1.1,0.6,1.7,0.6c0.9,0,1.7-0.7,1.9-1.5v-0.3l-0.1-0.5L160.1,23.4z"/>
			<path class="st1" d="M134.9,70.4l0.2,0.3l0.3,0.2c0.4,0.5,1.1,0.8,1.8,0.8c0.2,0,0.4,0,0.6-0.1l0.2-0.1l0.2-0.1l0.2-0.1l0.3-0.3
				l0.1-0.1l0.1-0.2l0.1-0.2c0.2-0.7,0.1-1.4-0.3-2c-0.5-0.7-1.4-1-2.2-1c-0.7,0-1.3,0.4-1.7,1l-0.1,0.2l-0.1,0.3V69v0.5l0.1,0.4
				L134.9,70.4z"/>
			<path class="st1" d="M23.5,146.3H23h-0.2l-0.3,0.1l-0.2,0.1l-0.4,0.3l-0.2,0.1l-0.2,0.2l-0.1,0.2c-0.4,0.7-0.4,1.6,0.1,2.3
				c0.5,0.7,1.3,1.1,2.2,1.1c0.7,0,1.4-0.4,1.8-1.1c0.3-0.5,0.4-1.2,0.3-1.8C25.5,146.8,24.5,146.1,23.5,146.3z"/>
			<path class="st1" d="M129.5,153.5l-0.2-0.3l-0.2-0.2l-0.5-0.4l-0.2-0.1l-0.4-0.1h-0.3h-0.4l-0.3,0.1l-0.4,0.2l-0.2,0.2l-0.5,0.5
				l-0.1,0.1c-0.2,0.3-0.3,0.6-0.4,0.9v0.4l0.2,0.5l0.2,0.3l0.7,0.6l0.3,0.2l0.4,0.1h0.3c0.7,0,1.4-0.4,1.9-1
				c0.4-0.5,0.5-1.2,0.3-1.9L129.5,153.5z"/>
			<path class="st1" d="M57.9,141.8h-0.3l-0.5,0.1l-0.3,0.1l-0.3,0.2h-0.2l-0.4,0.1l-0.7,0.3l-0.3,0.2l-0.3,0.4l-0.2,0.3
				c-0.3,1.2,0.5,2.4,1.6,2.6c0.1,0,0.2,0,0.2,0l0.5-0.3l0.4,0.1l0.8-0.5v-0.1h0.4c0.7-0.5,1-1.3,0.9-2.1
				C59.2,142.7,58.6,142,57.9,141.8z"/>
			<path class="st1" d="M195.8,47.4l0.1-0.4l-0.1-0.6l-0.2-0.4l-0.6-0.7l-0.4-0.3l-0.6-0.2h-0.4h-0.2c-1.3,0.1-2.2,1.3-2.1,2.6
				c0,0.1,0,0.1,0,0.2l0.1,0.3l0.2,0.3l0.2,0.2l0.5,0.4l0.2,0.1l0.4,0.1h0.3h0.1C194.5,49,195.4,48.4,195.8,47.4z"/>
			<path class="st1" d="M94.3,45.5l0.2-0.3l0.1-0.3c0-0.7-0.2-1.4-0.7-1.9c-0.5-0.5-1.2-0.7-1.8-0.6h-0.2l-0.3,0.1l-0.4,0.2
				l-0.2,0.2l-0.4,0.5l-0.1,0.3L90.2,44v0.3v0.7l0.1,0.2l0.2,0.4l0.2,0.2l0.5,0.5l0.3,0.2l0.4,0.1h0.3h0.7l0.3-0.1l0.4-0.2l0.2-0.2
				l0.5-0.5L94.3,45.5z"/>
			<path class="st1" d="M20,109.8h0.7l0.3-0.1l0.4-0.2l0.2-0.2l0.5-0.5l0.2-0.2l0.2-0.4l0.1-0.3c0.1-0.7-0.2-1.4-0.7-2
				c-0.5-0.5-1.2-0.7-1.8-0.6h-0.2l-0.3,0.1l-0.4,0.2l-0.2,0.2l-0.4,0.5l-0.1,0.3L18,107v0.3v0.7l0.1,0.3l0.2,0.4l0.2,0.2l0.5,0.5
				l0.3,0.2l0.4,0.1L20,109.8z"/>
			<path class="st1" d="M89.6,120.6h-0.3l-0.4,0.1l-0.3,0.1l-0.5,0.5l-0.2,0.2l-0.2,0.4l-0.1,0.3c-0.1,0.7,0.1,1.5,0.6,2l0.1,0.1
				l0.2,0.1l0.1,0.1l0.5,0.2h0.2h0.2h0.2c1.1-0.1,2-1,2-2.1C91.7,121.5,90.7,120.6,89.6,120.6z"/>
			<path class="st1" d="M65.2,100l-0.6-0.6l-0.3-0.2L63.8,99h-0.3c-0.7,0-1.4,0.4-1.8,0.9c-0.4,0.5-0.5,1.2-0.3,1.8l0.1,0.2l0.2,0.3
				l0.2,0.2l0.5,0.4l0.2,0.1l0.4,0.1h0.3h0.1c1.1,0,2-0.8,2.3-1.8v-0.4l-0.1-0.6L65.2,100z"/>
			<path class="st1" d="M100.4,138.5c-0.2,0-0.4,0-0.5,0.1l-0.3,0.1l-0.3,0.2l-0.2,0.2l-0.4,0.6l-0.1,0.3l-0.1,0.4v0.3v0.4l0.1,0.3
				l0.2,0.4l0.2,0.3l0.5,0.5l0.3,0.2l0.4,0.1l0.3,0.1h0.6l0.3-0.1l0.4-0.2l0.2-0.2l0.5-0.5l0.2-0.2l0.2-0.4l0.1-0.3
				c0-0.6-0.2-1.3-0.7-1.7C101.7,138.8,101,138.5,100.4,138.5z"/>
			<path class="st1" d="M186.2,2.7h-0.3l-0.5,0.1L185.1,3L185,3.1H185c-0.7,0.3-1.1,0.9-1.2,1.6v0.3l0.1,0.5l0.1,0.3l0.6,0.7
				l0.2,0.2c0.4,0.3,0.9,0.4,1.4,0.4h0.3l0.3-0.1l0.4-0.2l0.2-0.2l0.4-0.6l0.1-0.3l0.1-0.4V4.9C188.1,3.8,187.3,2.9,186.2,2.7z"/>
			<path class="st1" d="M158.6,136.9l-0.2-0.3l-0.2-0.2l-0.5-0.4l-0.2-0.1l-0.4-0.1h-0.3h-0.4l-0.3,0.1l-0.4,0.2l-0.2,0.2l-0.5,0.5
				l-0.1,0.1c-0.2,0.3-0.4,0.6-0.5,0.9v0.4l0.2,0.5l0.2,0.3l0.6,0.6l0.3,0.2l0.4,0.1h0.3c0.7,0,1.4-0.3,1.9-0.9
				c0.4-0.5,0.5-1.2,0.3-1.9L158.6,136.9z"/>
			<path class="st1" d="M215.4,87.3l-0.6,0.3l-0.5,0.7l-0.2,0.2c-0.4,0.6-0.5,1.4-0.4,2.1l0.2,0.4l0.4,0.4l0,0v0.1l0.6,0.5l0.6,0.2
				c0.7,0,1.3-0.3,1.8-0.8c0.4-0.5,0.7-1.1,0.7-1.8l0,0C217.8,88.3,216.7,87.3,215.4,87.3z"/>
			<path class="st1" d="M181.3,121.6c0.4-0.5,0.5-1.1,0.3-1.7c-0.2-1.1-1.1-2-2.2-2h-0.2h-0.3l-0.4,0.1l-0.3,0.1l-0.2,0.1h-0.1
				c-0.6,0.1-1.1,0.6-1.4,1.1c-0.2,0.5-0.3,1.1-0.1,1.6c0.3,1.2,1.5,2,2.7,1.8C180,122.8,180.8,122.3,181.3,121.6z"/>
			<path class="st1" d="M61.6,8.2l-0.2-0.2l-0.2-0.1l-0.5-0.2l-0.2-0.1h-0.3h-0.2c-0.8,0.1-1.5,0.6-1.8,1.4c-0.3,0.9,0,1.9,0.7,2.5
				l0.3,0.2l0.5,0.1h0.4l0.8-0.2l0.3-0.1l0.4-0.4l0.2-0.3c0.4-0.8,0.3-1.7-0.2-2.4L61.6,8.2z"/>
			<path class="st1" d="M114.7,188l-0.4-0.2l-0.1,0.1v-0.2c-0.4-0.2-0.8-0.3-1.3-0.3c-0.2,0-0.3,0-0.5,0.1l-0.2,0.1l-0.3,0.2
				l-0.2,0.2l-0.4,0.5l0.1,1.1l0.9,0.7l0.7-0.1l0.1,0.2l1.1,0.1l0.9-0.7l0.1-1.1l-0.4-0.5L114.7,188z"/>
			<path class="st1" d="M120.9,53.4l0.4,0.1h0.3c0.4,0,0.8-0.1,1.2-0.3c1-0.2,1.6-1.1,1.5-2.1c0-0.6-0.3-1.2-0.8-1.6
				c-0.4-0.4-0.9-0.6-1.5-0.5l-0.5,0.3l-0.2,0.2h-0.2l-0.4,0.2l-0.2,0.2l-0.5,0.5l-0.1,0.1c-0.2,0.3-0.4,0.6-0.5,1v0.4l0.2,0.5
				l0.2,0.3l0.7,0.6L120.9,53.4z"/>
			<path class="st1" d="M159.7,59.3l-0.3,0.1l-0.3,0.1l-0.2,0.1l-0.2,0.2h-0.1l-0.5,0.5l-0.2,0.3l-0.2,0.4l-0.1,0.3
				c0,1.1,0.6,2,1.6,2.4l0.5,0.1l0.6-0.1v-0.1h0.5l0.7-0.6l0.2-0.3l0.2-0.5l-0.5-0.2h-0.1l0.7-0.1c0.1-0.7-0.1-1.4-0.6-1.9
				C161,59.5,160.4,59.2,159.7,59.3z"/>
		</g>
	</g>
</g>
<line class="st0" x1="59.4" y1="94.1" x2="272.9" y2="83.5"/>
<path class="st1" d="M120.9,91.8l-0.2-0.2l-0.2-0.1l-0.5-0.2l-0.2-0.1h-0.3h-0.2c-0.8,0.1-1.5,0.6-1.8,1.4c-0.3,0.9,0,1.9,0.7,2.5
	l0.3,0.2l0.5,0.1h0.4l0.8-0.2l0.3-0.1l0.4-0.4l0.2-0.3c0.4-0.8,0.3-1.7-0.2-2.4L120.9,91.8z"/>
<line class="st0" x1="-17.1" y1="127.3" x2="196.4" y2="116.7"/>
<path class="st1" d="M44.4,125l-0.2-0.2l-0.2-0.1l-0.5-0.2l-0.2-0.1h-0.3h-0.2c-0.8,0.1-1.5,0.6-1.8,1.4c-0.3,0.9,0,1.9,0.7,2.5
	l0.3,0.2l0.5,0.1H43l0.8-0.2l0.3-0.1l0.4-0.4l0.2-0.3c0.4-0.8,0.3-1.7-0.2-2.4L44.4,125z"/>
</svg>
