<?xml version="1.0" encoding="utf-8"?>
<!-- Generator: Adobe Illustrator 27.7.0, SVG Export Plug-In . SVG Version: 6.00 Build 0)  -->
<svg version="1.1" id="Layer_1" xmlns="http://www.w3.org/2000/svg" xmlns:xlink="http://www.w3.org/1999/xlink" x="0px" y="0px"
	 viewBox="0 0 223 239.3" style="enable-background:new 0 0 223 239.3;" xml:space="preserve">
<style type="text/css">
	.st0{opacity:0.1;}
	.st1{fill:#534741;}
	.st2{opacity:0.1;fill:#534741;enable-background:new    ;}
	.st3{fill:#F7EA8D;}
</style>
<g id="Layer_2_00000049901813984980860090000011936478888582088325_">
	<g id="Ingredients">
		<g id="Cheese">
			<g class="st0">
				
					<rect x="97.4" y="17.8" transform="matrix(0.4538 -0.8911 0.8911 0.4538 26.2659 107.5502)" class="st1" width="6.9" height="29"/>
				
					<rect x="76.8" y="46.5" transform="matrix(0.2451 -0.9695 0.9695 0.2451 1.4025 123.8521)" class="st1" width="6.9" height="29"/>
				<polyline class="st2" points="46,99.6 39.9,102.9 53.5,128.5 				"/>
				
					<rect x="45.7" y="96.2" transform="matrix(0.8821 -0.4711 0.4711 0.8821 -46.3281 36.1806)" class="st1" width="6.9" height="28.9"/>
				
					<rect x="75.2" y="118.2" transform="matrix(0.1342 -0.991 0.991 0.1342 -63.324 192.8573)" class="st1" width="6.9" height="29"/>
				
					<rect x="93.4" y="81.4" transform="matrix(0.8728 -0.4882 0.4882 0.8728 -27.6715 63.4675)" class="st1" width="29" height="6.9"/>
				
					<rect x="123.1" y="51" transform="matrix(0.8629 -0.5054 0.5054 0.8629 -15.746 72.9719)" class="st1" width="6.9" height="29"/>
				
					<rect x="137.1" y="58.6" transform="matrix(6.871183e-02 -0.9976 0.9976 6.871183e-02 79.286 209.0533)" class="st1" width="29" height="6.9"/>
				
					<rect x="74.3" y="142.1" transform="matrix(0.7106 -0.7036 0.7036 0.7106 -87.6947 100.0589)" class="st1" width="6.9" height="29"/>
				
					<rect x="143.5" y="130.4" transform="matrix(0.8618 -0.5072 0.5072 0.8618 -53.1793 94.5309)" class="st1" width="6.9" height="29"/>
				
					<rect x="150.7" y="119.4" transform="matrix(0.9995 -3.153618e-02 3.153618e-02 0.9995 -3.7939 5.2708)" class="st1" width="29" height="6.9"/>
				<polyline class="st1" points="214.1,150.2 212.9,143.4 184.3,148.4 185.5,155.2 				"/>
				
					<rect x="92.2" y="197" transform="matrix(0.7744 -0.6327 0.6327 0.7744 -112.206 108.2328)" class="st1" width="6.9" height="29"/>
				
					<rect x="12.3" y="140.2" transform="matrix(0.4332 -0.9013 0.9013 0.4332 -114.2957 105.5462)" class="st1" width="29" height="6.9"/>
				<rect x="39.8" y="168.3" transform="matrix(0.28 -0.96 0.96 0.28 -125.848 175.7863)" class="st1" width="29" height="6.9"/>
			</g>
			
				<rect x="95" y="15.2" transform="matrix(0.4512 -0.8924 0.8924 0.4512 27.5926 104.1744)" class="st3" width="6.9" height="28.9"/>
			
				<rect x="74.1" y="43.9" transform="matrix(0.2451 -0.9695 0.9695 0.2451 1.9802 119.2642)" class="st3" width="6.9" height="29"/>
			<polyline class="st2" points="43.3,97 37.2,100.2 50.8,125.9 			"/>
			
				<rect x="42.9" y="93.2" transform="matrix(0.8833 -0.4689 0.4689 0.8833 -45.0885 34.3321)" class="st3" width="6.9" height="29"/>
			
				<rect x="72.6" y="115.5" transform="matrix(0.1342 -0.991 0.991 0.1342 -62.9931 187.9088)" class="st3" width="6.9" height="29"/>
			
				<rect x="89.9" y="80.1" transform="matrix(0.8728 -0.4882 0.4882 0.8728 -27.4934 61.5813)" class="st3" width="29" height="6.9"/>
			
				<rect x="120.5" y="48.4" transform="matrix(0.8629 -0.5054 0.5054 0.8629 -14.7712 71.2633)" class="st3" width="6.9" height="29"/>
			
				<rect x="134.5" y="55.9" transform="matrix(6.871183e-02 -0.9976 0.9976 6.871183e-02 79.4661 203.9259)" class="st3" width="29" height="6.9"/>
			
				<rect x="71.7" y="139.5" transform="matrix(0.7106 -0.7036 0.7036 0.7106 -86.5882 97.4227)" class="st3" width="6.9" height="29"/>
			
				<rect x="140.2" y="128.4" transform="matrix(0.8618 -0.5072 0.5072 0.8618 -52.6488 92.6217)" class="st3" width="6.9" height="29"/>
			
				<rect x="147.5" y="117.5" transform="matrix(0.9995 -3.153618e-02 3.153618e-02 0.9995 -3.735 5.1677)" class="st3" width="29" height="6.9"/>
			<polyline class="st3" points="210.8,148.3 209.6,141.4 181.1,146.4 182.3,153.3 			"/>
			
				<rect x="89.5" y="194.3" transform="matrix(0.7744 -0.6327 0.6327 0.7744 -111.1268 105.9503)" class="st3" width="6.9" height="29"/>
			
				<rect x="9.6" y="137.5" transform="matrix(0.4332 -0.9013 0.9013 0.4332 -113.4068 101.6472)" class="st3" width="29" height="6.9"/>
			
				<rect x="36.8" y="165.7" transform="matrix(0.278 -0.9606 0.9606 0.278 -125.4042 171.4335)" class="st3" width="29" height="6.9"/>
		</g>
	</g>
</g>
</svg>
