<?xml version="1.0" encoding="utf-8"?>
<!-- Generator: Adobe Illustrator 27.7.0, SVG Export Plug-In . SVG Version: 6.00 Build 0)  -->
<svg version="1.1" id="Layer_1" xmlns="http://www.w3.org/2000/svg" xmlns:xlink="http://www.w3.org/1999/xlink" x="0px" y="0px"
	 viewBox="0 0 223 225.1" style="enable-background:new 0 0 223 225.1;" xml:space="preserve">
<style type="text/css">
	.st0{opacity:0.1;}
	.st1{fill:#534741;}
	.st2{fill:#7CC661;}
	.st3{fill:#CAE09B;}
	.st4{fill:#DEEFB6;}
</style>
<g id="Layer_2_00000072993095165827183640000009496515528078010268_">
	<g id="Ingredients">
		<g id="Cucumber">
			<g class="st0">
				<circle class="st1" cx="158.8" cy="37.8" r="21.3"/>
				<circle class="st1" cx="158.8" cy="37.8" r="18.5"/>
				<circle class="st1" cx="158.8" cy="37.8" r="11.3"/>
			</g>
			<circle class="st2" cx="155.4" cy="34.5" r="21.3"/>
			<circle class="st3" cx="155.4" cy="34.5" r="18.5"/>
			<circle class="st4" cx="155.4" cy="34.5" r="11.3"/>
			<g class="st0">
				<path class="st1" d="M55.1,16.2c11.8,0,21.3,9.5,21.3,21.3s-9.5,21.6-21.3,21.6s-21.3-9.8-21.3-21.6S43.4,16.2,55.1,16.2z"/>
				<circle class="st1" cx="55.1" cy="37.5" r="18.5"/>
				<circle class="st1" cx="55.1" cy="37.5" r="11.3"/>
			</g>
			<circle class="st2" cx="51.8" cy="34.2" r="21.3"/>
			
				<ellipse transform="matrix(8.248054e-02 -0.9966 0.9966 8.248054e-02 13.4373 82.9258)" class="st3" cx="51.8" cy="34.2" rx="18.5" ry="18.5"/>
			<circle class="st4" cx="51.8" cy="34.2" r="11.3"/>
			<g class="st0">
				<circle class="st1" cx="142.1" cy="159" r="21.3"/>
				<circle class="st1" cx="142.1" cy="159" r="18.5"/>
				<circle class="st1" cx="142.1" cy="159" r="11.3"/>
			</g>
			<circle class="st2" cx="138.8" cy="155.7" r="21.3"/>
			<circle class="st3" cx="138.8" cy="155.7" r="18.5"/>
			<circle class="st4" cx="138.8" cy="155.7" r="11.3"/>
			<g class="st0">
				<circle class="st1" cx="185.3" cy="114.2" r="21.3"/>
				<circle class="st1" cx="185.3" cy="114.2" r="18.5"/>
				<circle class="st1" cx="185.3" cy="114.2" r="11.3"/>
			</g>
			<circle class="st2" cx="181.9" cy="110.9" r="21.3"/>
			<circle class="st3" cx="181.9" cy="110.9" r="18.5"/>
			<circle class="st4" cx="181.9" cy="110.9" r="11.3"/>
			<g class="st0">
				<circle class="st1" cx="52.5" cy="86.1" r="21.3"/>
				<circle class="st1" cx="52.5" cy="86.1" r="18.5"/>
				<circle class="st1" cx="52.5" cy="86.1" r="11.3"/>
			</g>
			<circle class="st2" cx="49.2" cy="82.7" r="21.3"/>
			<circle class="st3" cx="49.2" cy="82.7" r="18.5"/>
			<circle class="st4" cx="49.2" cy="82.7" r="11.3"/>
			<g class="st0">
				<circle class="st1" cx="74.7" cy="175.7" r="21.3"/>
				<circle class="st1" cx="74.7" cy="175.7" r="18.5"/>
				<circle class="st1" cx="74.7" cy="175.7" r="11.3"/>
			</g>
			<circle class="st2" cx="71.4" cy="172.3" r="21.3"/>
			<circle class="st3" cx="71.4" cy="172.3" r="18.5"/>
			<circle class="st4" cx="71.4" cy="172.3" r="11.3"/>
		</g>
	</g>
</g>
</svg>
