<?xml version="1.0" encoding="utf-8"?>
<!-- Generator: Adobe Illustrator 27.7.0, SVG Export Plug-In . SVG Version: 6.00 Build 0)  -->
<svg version="1.1" id="Layer_1" xmlns="http://www.w3.org/2000/svg" xmlns:xlink="http://www.w3.org/1999/xlink" x="0px" y="0px"
	 viewBox="0 0 223 190.6" style="enable-background:new 0 0 223 190.6;" xml:space="preserve">
<style type="text/css">
	.st0{opacity:0.1;fill:#535141;enable-background:new    ;}
	.st1{fill:#E8E1D5;}
</style>
<g id="Layer_2_00000156551306576170921740000016869090974295945132_">
	<g id="Ingredients">
		<g id="Feta">
			<path class="st0" d="M37.5,128.2l9.5-0.2c3.3-0.1,6,2.5,6.1,5.8l0.2,9.5c0.1,3.3-2.5,6-5.8,6.1l-9.5,0.2c-3.3,0.1-6-2.5-6.1-5.8
				l-0.2-9.5C31.6,131,34.2,128.3,37.5,128.2z"/>
			<path class="st1" d="M34.8,125.6l9.5-0.2c3.3-0.1,6,2.5,6.1,5.8l0.2,9.5c0.1,3.3-2.5,6-5.8,6.1l-9.5,0.2c-3.3,0.1-6-2.5-6.1-5.8
				l-0.2-9.5C28.9,128.4,31.5,125.6,34.8,125.6z"/>
			<path class="st0" d="M69.3,101.3l4.9-8.2c1.7-2.8,5.4-3.8,8.2-2l8.2,4.9c2.8,1.7,3.8,5.4,2,8.2l-4.9,8.2c-1.7,2.8-5.4,3.8-8.2,2
				l-8.2-4.9C68.5,107.9,67.6,104.2,69.3,101.3z"/>
			<path class="st1" d="M65.5,102.7l4.9-8.2c1.7-2.8,5.4-3.7,8.2-2l8.2,4.9c2.8,1.7,3.7,5.4,2,8.2l-4.9,8.2c-1.7,2.8-5.4,3.7-8.2,2
				l-8.2-4.9C64.7,109.2,63.8,105.5,65.5,102.7z"/>
			<path class="st0" d="M121.5,31.7l2,9.3c0.7,3.2-1.4,6.4-4.6,7.1l-9.3,2c-3.2,0.7-6.4-1.4-7.1-4.6l-2-9.3
				c-0.7-3.2,1.4-6.4,4.6-7.1l9.3-2C117.6,26.4,120.8,28.5,121.5,31.7z"/>
			<path class="st1" d="M123.5,28.5l2,9.3c0.7,3.2-1.4,6.4-4.6,7.1l-9.3,2c-3.2,0.7-6.4-1.4-7.1-4.6l-2-9.3
				c-0.7-3.2,1.4-6.4,4.6-7.1l9.3-2C119.7,23.2,122.9,25.3,123.5,28.5z"/>
			<path class="st0" d="M125.9,115.6l8.2-4.9c2.8-1.7,6.5-0.8,8.2,2l4.9,8.2c1.7,2.8,0.8,6.5-2,8.2L137,134c-2.8,1.7-6.5,0.8-8.2-2
				l-4.9-8.2C122.2,121,123.1,117.3,125.9,115.6z"/>
			<path class="st1" d="M122.2,114.7l8.2-4.9c2.8-1.7,6.5-0.8,8.2,2l4.9,8.2c1.7,2.8,0.8,6.5-2,8.2l-8.2,4.9c-2.8,1.7-6.5,0.8-8.2-2
				l-4.9-8.2C118.5,120.1,119.4,116.4,122.2,114.7z"/>
			<path class="st0" d="M127.2,81l3-9.1c1-3.1,4.4-4.8,7.6-3.8l9.1,3c3.1,1,4.8,4.4,3.8,7.6l-3,9.1c-1,3.1-4.4,4.8-7.6,3.8l-9.1-3
				C127.9,87.5,126.2,84.1,127.2,81z"/>
			<path class="st1" d="M123.8,82.7l3-9.1c1-3.1,4.4-4.8,7.6-3.8l9.1,3c3.1,1,4.8,4.4,3.8,7.6l-3,9.1c-1,3.1-4.4,4.8-7.6,3.8l-9.1-3
				C124.5,89.2,122.8,85.8,123.8,82.7z"/>
			<path class="st0" d="M61.7,38l6.2,7.3c2.1,2.5,1.8,6.3-0.7,8.4L60,59.9c-2.5,2.1-6.3,1.8-8.4-0.7L45.3,52
				c-2.1-2.5-1.8-6.3,0.7-8.4l7.3-6.2C55.8,35.2,59.5,35.5,61.7,38z"/>
			<path class="st1" d="M62,34.2l6.2,7.3c2.1,2.5,1.8,6.3-0.7,8.4l-7.3,6.2c-2.5,2.1-6.3,1.8-8.4-0.7l-6.2-7.3
				c-2.1-2.5-1.8-6.3,0.7-8.4l7.3-6.2C56.1,31.4,59.8,31.7,62,34.2z"/>
			<path class="st0" d="M166.5,136.8l9.5-0.2c3.3-0.1,6,2.5,6.1,5.8l0.2,9.5c0.1,3.3-2.5,6-5.8,6.1l-9.5,0.2c-3.3,0.1-6-2.5-6.1-5.8
				l-0.2-9.5C160.6,139.6,163.2,136.9,166.5,136.8z"/>
			<path class="st1" d="M163.7,134.2l9.5-0.2c3.3-0.1,6,2.5,6.1,5.8l0.2,9.5c0.1,3.3-2.5,6-5.8,6.1l-9.5,0.2c-3.3,0.1-6-2.5-6.1-5.8
				l-0.2-9.5C157.8,137,160.4,134.3,163.7,134.2z"/>
			<path class="st0" d="M176,44.3l9.5-0.2c3.3-0.1,6,2.5,6.1,5.8l0.2,9.5c0.1,3.3-2.5,6-5.8,6.1l-9.5,0.2c-3.3,0.1-6-2.5-6.1-5.8
				l-0.2-9.5C170,47.1,172.7,44.4,176,44.3z"/>
			<path class="st1" d="M173.2,41.7l9.5-0.2c3.3-0.1,6,2.5,6.1,5.8l0.2,9.5c0.1,3.3-2.5,6-5.8,6.1l-9.5,0.2c-3.3,0.1-6-2.5-6.1-5.8
				l-0.2-9.5C167.3,44.5,169.9,41.8,173.2,41.7z"/>
		</g>
	</g>
</g>
</svg>
