<?xml version="1.0" encoding="utf-8"?>
<!-- Generator: Adobe Illustrator 27.7.0, SVG Export Plug-In . SVG Version: 6.00 Build 0)  -->
<svg version="1.1" id="Layer_1" xmlns="http://www.w3.org/2000/svg" xmlns:xlink="http://www.w3.org/1999/xlink" x="0px" y="0px"
	 viewBox="0 0 223 215.7" style="enable-background:new 0 0 223 215.7;" xml:space="preserve">
<style type="text/css">
	.st0{opacity:0.1;}
	.st1{fill:#534741;}
	.st2{fill:#6BAF4B;}
	.st3{fill:#88C969;}
</style>
<g id="Layer_2_00000139260970933476086500000009104717272916711066_">
	<g id="Ingredients">
		<g id="Herbs">
			<g class="st0">
				<path class="st1" d="M43.7,84c-4,6.3-11,9.1-15.6,6.1c-4.7-2.9-5.3-10.4-1.3-16.8c4-6.3,15.6-6.1,15.6-6.1S47.7,77.7,43.7,84z"
					/>
				<path class="st1" d="M23.4,95.6l9.7-15.5c0.2-0.4,0.8-0.5,1.1-0.3l0.3,0.2c0.4,0.2,0.5,0.8,0.3,1.1l-9.7,15.5
					c-0.2,0.4-0.8,0.5-1.1,0.3l-0.3-0.2C23.3,96.5,23.2,96,23.4,95.6z"/>
				<path class="st1" d="M102.3,71.4C96,67.5,93.2,60.5,96,55.8s10.4-5.4,16.7-1.5c6.4,3.9,6.3,15.6,6.3,15.6S108.7,75.3,102.3,71.4
					z"/>
				<path class="st1" d="M89.1,51.8l0.2-0.3c0.2-0.4,0.8-0.5,1.1-0.3l15.6,9.5c0.4,0.2,0.5,0.8,0.3,1.1l-0.2,0.3
					c-0.2,0.4-0.8,0.5-1.1,0.3l-15.6-9.5C89,52.7,88.9,52.2,89.1,51.8z"/>
				<path class="st1" d="M125.8,10.1c5.8,4.6,7.8,11.9,4.4,16.2s-10.9,4.1-16.8-0.5c-5.9-4.6-4.4-16.2-4.4-16.2
					S119.9,5.5,125.8,10.1z"/>
				<path class="st1" d="M120.7,19l0.2-0.3c0.3-0.4,0.8-0.4,1.2-0.1l14.4,11.3c0.4,0.3,0.4,0.8,0.1,1.2l-0.2,0.3
					c-0.3,0.4-0.8,0.4-1.2,0.1l-14.4-11.3C120.5,19.9,120.4,19.4,120.7,19z"/>
				<path class="st1" d="M183,93c-5.9,4.5-13.5,4.6-16.8,0.2c-3.3-4.4-1.2-11.6,4.7-16.1s16.8-0.2,16.8-0.2S188.9,88.5,183,93z"/>
				<path class="st1" d="M159.9,96.7l14.6-11.1c0.4-0.3,0.9-0.2,1.2,0.2l0.2,0.3c0.3,0.4,0.2,0.9-0.2,1.2l-14.6,11.1
					c-0.4,0.3-0.9,0.2-1.2-0.2l-0.2-0.3C159.4,97.5,159.5,97,159.9,96.7z"/>
				<path class="st1" d="M143.4,128c3.7,6.4,2.9,13.9-1.9,16.7c-4.8,2.8-11.7-0.2-15.4-6.7c-3.8-6.5,1.9-16.7,1.9-16.7
					S139.7,121.5,143.4,128z"/>
				<path class="st1" d="M135.8,135.1l0.3-0.2c0.4-0.2,0.9-0.1,1.1,0.3l9.2,15.9c0.2,0.4,0.1,0.9-0.3,1.1l-0.3,0.2
					c-0.4,0.2-0.9,0.1-1.1-0.3l-9.2-15.9C135.3,135.9,135.4,135.4,135.8,135.1z"/>
				<path class="st1" d="M120,175.6c-2.7,7-9,11-14.2,9s-7.2-9.2-4.5-16.2c2.7-7,14.2-9,14.2-9S122.7,168.7,120,175.6z"/>
				<path class="st1" d="M102.3,191l6.6-17.1c0.2-0.4,0.6-0.6,1.1-0.5l0.3,0.1c0.4,0.2,0.6,0.6,0.5,1.1l-6.6,17.1
					c-0.2,0.4-0.6,0.6-1.1,0.5l-0.3-0.1C102.4,191.9,102.2,191.4,102.3,191z"/>
				<path class="st1" d="M212.3,140.2c4.5,5.9,4.6,13.5,0.2,16.8c-4.4,3.3-11.6,1.2-16.1-4.7c-4.5-5.9-0.2-16.8-0.2-16.8
					S207.8,134.3,212.3,140.2z"/>
				<path class="st1" d="M205.1,147.5l0.3-0.2c0.4-0.3,0.9-0.2,1.2,0.2l11.1,14.6c0.3,0.4,0.2,0.9-0.2,1.2l-0.3,0.2
					c-0.4,0.3-0.9,0.2-1.2-0.2l-11.1-14.6C204.7,148.3,204.7,147.8,205.1,147.5z"/>
				<path class="st1" d="M58.4,150.6c3.9,6.4,3.2,13.8-1.5,16.7s-11.7,0.1-15.6-6.3s1.5-16.7,1.5-16.7S54.5,144.2,58.4,150.6z"/>
				<path class="st1" d="M50.5,157.2l0.3-0.2c0.4-0.2,0.9-0.1,1.1,0.3l9.6,15.6c0.2,0.4,0.1,0.9-0.3,1.1l-0.3,0.2
					c-0.4,0.2-0.9,0.1-1.1-0.3l-9.6-15.6C50,157.9,50.1,157.4,50.5,157.2z"/>
			</g>
			<path class="st2" d="M40.7,81c-4,6.3-11,9.1-15.6,6.1s-5.3-10.4-1.3-16.8s15.6-6.1,15.6-6.1S44.7,74.7,40.7,81z"/>
			<path class="st3" d="M20.4,92.6l9.7-15.5c0.2-0.4,0.8-0.5,1.1-0.3l0.3,0.2c0.4,0.2,0.5,0.8,0.3,1.1l-9.7,15.5
				c-0.2,0.4-0.8,0.5-1.1,0.3l-0.3-0.2C20.3,93.5,20.2,93,20.4,92.6z"/>
			<path class="st2" d="M99.3,68.4C93,64.5,90.2,57.5,93,52.8s10.4-5.4,16.7-1.5c6.4,3.9,6.3,15.6,6.3,15.6S105.7,72.3,99.3,68.4z"
				/>
			<path class="st3" d="M86.1,48.8l0.2-0.3c0.2-0.4,0.8-0.5,1.1-0.3l15.6,9.5c0.4,0.2,0.5,0.8,0.3,1.1l-0.2,0.3
				c-0.2,0.4-0.8,0.5-1.1,0.3l-15.6-9.5C86,49.7,85.9,49.2,86.1,48.8z"/>
			<path class="st2" d="M122.8,7.1c5.8,4.6,7.8,11.9,4.4,16.2s-10.9,4.1-16.8-0.5S106,6.6,106,6.6S117,2.5,122.8,7.1z"/>
			<path class="st3" d="M117.7,16l0.2-0.3c0.3-0.4,0.8-0.4,1.2-0.1l14.4,11.3c0.4,0.3,0.4,0.8,0.1,1.2l-0.2,0.3
				c-0.3,0.4-0.8,0.4-1.2,0.1l-14.4-11.3C117.5,16.9,117.4,16.4,117.7,16z"/>
			<path class="st2" d="M180,90c-5.9,4.5-13.5,4.6-16.8,0.2c-3.3-4.4-1.2-11.6,4.7-16.1s16.8-0.2,16.8-0.2S185.9,85.5,180,90z"/>
			<path class="st3" d="M156.9,93.7l14.6-11.1c0.4-0.3,0.9-0.2,1.2,0.2l0.2,0.3c0.3,0.4,0.2,0.9-0.2,1.2l-14.6,11.1
				c-0.4,0.3-0.9,0.2-1.2-0.2l-0.2-0.3C156.4,94.5,156.5,94,156.9,93.7z"/>
			<path class="st2" d="M140.4,125c3.7,6.4,2.9,13.9-1.9,16.7c-4.8,2.8-11.7-0.2-15.4-6.7s1.9-16.7,1.9-16.7S136.7,118.5,140.4,125z
				"/>
			<path class="st3" d="M132.4,131.4l0.3-0.2c0.4-0.2,0.9-0.1,1.1,0.3l9.2,15.9c0.2,0.4,0.1,0.9-0.3,1.1l-0.3,0.2
				c-0.4,0.2-0.9,0.1-1.1-0.3l-9.2-15.9C131.8,132.1,132,131.6,132.4,131.4z"/>
			<path class="st2" d="M117,172.6c-2.7,7-9,11-14.2,9c-5.2-2-7.2-9.2-4.5-16.2c2.7-7,14.2-9,14.2-9S119.6,165.7,117,172.6z"/>
			<path class="st3" d="M99.3,188l6.6-17.1c0.2-0.4,0.6-0.6,1.1-0.5l0.3,0.1c0.4,0.2,0.6,0.6,0.5,1.1l-6.6,17.1
				c-0.2,0.4-0.6,0.6-1.1,0.5l-0.3-0.1C99.4,188.9,99.1,188.4,99.3,188z"/>
			<path class="st2" d="M209.3,137.2c4.5,5.9,4.6,13.5,0.2,16.8c-4.4,3.3-11.6,1.2-16.1-4.7c-4.5-5.9-0.2-16.8-0.2-16.8
				S204.8,131.3,209.3,137.2z"/>
			<path class="st3" d="M202.1,144.5l0.3-0.2c0.4-0.3,0.9-0.2,1.2,0.2l11.1,14.6c0.3,0.4,0.2,0.9-0.2,1.2l-0.3,0.2
				c-0.4,0.3-0.9,0.2-1.2-0.2L202,145.7C201.7,145.3,201.7,144.8,202.1,144.5z"/>
			<path class="st2" d="M55.4,147.6c3.9,6.4,3.2,13.8-1.5,16.7s-11.7,0.1-15.6-6.3s1.5-16.7,1.5-16.7S51.5,141.2,55.4,147.6z"/>
			<path class="st3" d="M47.5,154.2l0.3-0.2c0.4-0.2,0.9-0.1,1.1,0.3l9.6,15.6c0.2,0.4,0.1,0.9-0.3,1.1l-0.3,0.2
				c-0.4,0.2-0.9,0.1-1.1-0.3l-9.6-15.6C47,154.9,47.1,154.4,47.5,154.2z"/>
		</g>
	</g>
</g>
</svg>
