<?xml version="1.0" encoding="utf-8"?>
<!-- Generator: Adobe Illustrator 27.7.0, SVG Export Plug-In . SVG Version: 6.00 Build 0)  -->
<svg version="1.1" id="Layer_1" xmlns="http://www.w3.org/2000/svg" xmlns:xlink="http://www.w3.org/1999/xlink" x="0px" y="0px"
	 viewBox="0 0 410.2 410.2" style="enable-background:new 0 0 410.2 410.2;" xml:space="preserve">
<style type="text/css">
	.st0{opacity:0.1;}
	.st1{fill:#534741;}
	.st2{fill:#F4C78C;}
	.st3{fill:#E6EAE1;}
	.st4{opacity:0.1;fill:#534741;enable-background:new    ;}
	.st5{fill:#538E4C;}
</style>
<g id="Layer_2_00000154402914259720703070000017715247536785189805_">
	<g id="Base">
		<g class="st0">
			<circle class="st1" cx="210.1" cy="210.1" r="200.1"/>
			<circle class="st1" cx="210.1" cy="210.1" r="140.3"/>
		</g>
		<circle class="st2" cx="200.1" cy="200.1" r="200.1"/>
		<circle class="st3" cx="200.1" cy="200.1" r="140.3"/>
		<g id="Salad">
			<path class="st4" d="M211.8,273.1c16.3-12.8,30.6-5.9,31,14c19.8,1.6,25.8,16.3,12.1,31.8c12.8,16.3,5.9,30.6-14,31
				c-1.6,19.8-16.3,25.8-31.8,12.1c-16.3,12.8-30.6,5.9-31-14c-19.8-1.6-25.8-16.3-12.1-31.8c-12.8-16.3-5.9-30.6,14-31
				C181.6,265.4,196.2,259.4,211.8,273.1z"/>
			<path class="st5" d="M209.1,271c16.3-12.8,30.6-5.9,31,14c19.8,1.6,25.8,16.3,12.1,31.8c12.8,16.3,5.9,30.6-14,31
				c-1.6,19.8-16.3,25.8-31.8,12.1c-16.3,12.8-30.6,5.9-31-14c-19.8-1.6-25.8-16.3-12.1-31.8c-12.8-16.3-5.9-30.6,14-31
				C179,263.3,193.6,257.3,209.1,271z"/>
			<path class="st4" d="M194.2,66.6c26.2-20.5,49-9.5,49.7,22.4c31.7,2.6,41.4,26.1,19.3,51c20.5,26.2,9.5,49-22.4,49.7
				c-2.6,31.7-26.1,41.4-51,19.3c-26.2,20.5-49,9.5-49.7-22.4c-31.7-2.6-41.4-26.1-19.3-51c-20.5-26.2-9.5-49,22.4-49.7
				C145.9,54.2,169.3,44.5,194.2,66.6z"/>
			<path class="st5" d="M191,63.2c26.2-20.5,49-9.5,49.7,22.4c31.7,2.7,41.4,26.1,19.3,51c20.5,26.2,9.5,49-22.4,49.7
				c-2.6,31.7-26.1,41.4-51,19.3c-26.2,20.5-49,9.5-49.7-22.4c-31.7-2.6-41.4-26.1-19.3-51c-20.5-26.2-9.5-49,22.4-49.7
				C142.7,50.8,166.1,41.2,191,63.2z"/>
			<path class="st4" d="M286.5,137.1c29.6-23.2,55.4-10.7,56.2,25.3c35.9,3,46.8,29.5,21.9,57.6c23.2,29.6,10.7,55.4-25.3,56.2
				c-3,35.9-29.5,46.8-57.6,21.9c-29.6,23.2-55.4,10.7-56.2-25.3c-35.9-3-46.8-29.5-21.9-57.6c-23.2-29.6-10.7-55.4,25.3-56.2
				C231.9,123.1,258.4,112.2,286.5,137.1z"/>
			<path class="st5" d="M283,133.3c29.6-23.2,55.4-10.7,56.2,25.3c35.9,3,46.8,29.5,21.9,57.6c23.2,29.6,10.7,55.4-25.3,56.2
				c-3,35.9-29.5,46.8-57.6,21.9c-29.6,23.2-55.4,10.7-56.2-25.3c-35.9-3-46.8-29.5-21.9-57.6c-23.2-29.6-10.7-55.4,25.3-56.2
				C228.3,119.3,254.8,108.4,283,133.3z"/>
			<path class="st4" d="M182.9,202.6c21.9-17.1,40.9-7.9,41.5,18.7c26.5,2.2,34.6,21.8,16.1,42.6c17.1,21.9,7.9,40.9-18.7,41.5
				c-2.2,26.5-21.8,34.6-42.6,16.1c-21.9,17.1-40.9,7.9-41.5-18.7c-26.5-2.2-34.6-21.8-16.2-42.6c-17.1-21.9-7.9-40.9,18.7-41.5
				C142.5,192.3,162.1,184.2,182.9,202.6z"/>
			<path class="st5" d="M180.2,199.8c21.9-17.1,40.9-7.9,41.5,18.7c26.5,2.2,34.5,21.8,16.1,42.6c17.1,21.9,7.9,40.9-18.7,41.5
				c-2.2,26.5-21.8,34.6-42.6,16.1c-21.9,17.1-40.9,7.9-41.5-18.7c-26.5-2.2-34.6-21.8-16.2-42.6c-17.1-21.9-7.9-40.9,18.7-41.5
				C139.9,189.5,159.4,181.4,180.2,199.8z"/>
			<path class="st4" d="M118.3,143.2c25.6-20.1,47.9-9.3,48.6,21.9c31,2.6,40.5,25.5,18.9,49.8c20.1,25.6,9.3,47.9-21.9,48.6
				c-2.6,31-25.5,40.5-49.9,18.9c-25.6,20.1-47.9,9.2-48.6-21.9c-31-2.6-40.5-25.5-18.9-49.9c-20.1-25.6-9.3-47.9,21.9-48.6
				C71,131.1,93.9,121.6,118.3,143.2z"/>
			<path class="st5" d="M114.2,139.9c25.6-20.1,47.9-9.2,48.6,21.9c31,2.6,40.5,25.5,18.9,49.9c20.1,25.6,9.3,47.9-21.9,48.6
				c-2.6,31-25.5,40.5-49.9,18.9c-25.6,20.1-47.9,9.3-48.6-21.9c-31-2.6-40.5-25.5-18.9-49.9c-20.1-25.6-9.3-47.9,21.9-48.6
				C66.9,127.7,89.8,118.3,114.2,139.9z"/>
		</g>
	</g>
</g>
<path class="st5" d="M283,64.8c29.6-23.2,55.4-10.7,56.2,25.3c35.9,3,46.8,29.5,21.9,57.6c23.2,29.6,10.7,55.4-25.3,56.2
	c-3,35.9-29.5,46.8-57.6,21.9c-29.6,23.2-55.4,10.7-56.2-25.3c-35.9-3-46.8-29.5-21.9-57.6c-23.2-29.6-10.7-55.4,25.3-56.2
	C228.3,50.8,254.8,39.8,283,64.8z"/>
<path class="st5" d="M156.3,39.3c29.6-23.2,55.4-10.7,56.2,25.3c35.9,3,46.8,29.5,21.9,57.6c23.2,29.6,10.7,55.4-25.3,56.2
	c-3,35.9-29.5,46.8-57.6,21.9C121.8,223.5,96.1,211,95.2,175c-35.9-3-46.8-29.5-21.9-57.6C50.1,87.8,62.6,62,98.6,61.2
	C101.6,25.3,128.1,14.4,156.3,39.3z"/>
<path class="st5" d="M141,189.5c29.6-23.2,55.4-10.7,56.2,25.3c35.9,3,46.8,29.5,21.9,57.6c23.2,29.6,10.7,55.4-25.3,56.2
	c-3,35.9-29.5,46.8-57.6,21.9c-29.6,23.2-55.4,10.7-56.2-25.3c-35.9-3-46.8-29.5-21.9-57.6c-23.2-29.6-10.7-55.4,25.3-56.2
	C86.3,175.5,112.8,164.6,141,189.5z"/>
<path class="st5" d="M256.4,203.3c29.6-23.2,55.4-10.7,56.2,25.3c35.9,3,46.8,29.5,21.9,57.6c23.2,29.6,10.7,55.4-25.3,56.2
	c-3,35.9-29.5,46.8-57.6,21.9c-29.6,23.2-55.4,10.7-56.2-25.3c-35.9-3-46.8-29.5-21.9-57.6c-23.2-29.6-10.7-55.4,25.3-56.2
	C201.7,189.3,228.2,178.4,256.4,203.3z"/>
</svg>
