<?xml version="1.0" encoding="utf-8"?>
<!-- Generator: Adobe Illustrator 27.7.0, SVG Export Plug-In . SVG Version: 6.00 Build 0)  -->
<svg version="1.1" id="Layer_1" xmlns="http://www.w3.org/2000/svg" xmlns:xlink="http://www.w3.org/1999/xlink" x="0px" y="0px"
	 viewBox="0 0 223 223.8" style="enable-background:new 0 0 223 223.8;" xml:space="preserve">
<style type="text/css">
	.st0{opacity:0.2;}
	.st1{fill:#534741;}
	.st2{fill:#170300;}
</style>
<g id="Layer_2_00000074419814045695967170000002905384695550087043_">
	<g id="Ingredients">
		<g id="Olives">
			<g id="Olives-2">
				<g id="Olives-3" class="st0">
					<path class="st1" d="M55.1,62.3c-5.8,2.7-8.3,9.6-5.6,15.4c2.7,5.8,9.6,8.3,15.4,5.6s8.3-9.6,5.6-15.4c0,0,0,0,0,0
						C67.8,62.1,60.9,59.6,55.1,62.3C55.1,62.3,55.1,62.3,55.1,62.3z M62.2,77.5c-2.6,1.2-5.7,0.1-6.9-2.5c-1.2-2.6-0.1-5.7,2.5-6.9
						c2.6-1.2,5.7-0.1,6.9,2.5C65.9,73.2,64.8,76.3,62.2,77.5C62.2,77.5,62.2,77.5,62.2,77.5z"/>
				</g>
				<g id="Olives-4">
					<path class="st2" d="M52.7,60.9c-5.8,2.7-8.3,9.6-5.6,15.4c2.7,5.8,9.6,8.3,15.4,5.6s8.3-9.6,5.6-15.4l0,0
						C65.4,60.7,58.6,58.2,52.7,60.9C52.8,60.9,52.7,60.9,52.7,60.9z M59.8,76.1c-2.6,1.2-5.7,0.1-6.9-2.5s-0.1-5.7,2.5-6.9
						c2.6-1.2,5.7-0.1,6.9,2.5C63.6,71.8,62.4,74.9,59.8,76.1C59.8,76.1,59.8,76.1,59.8,76.1z"/>
				</g>
			</g>
			<g id="Olives-5">
				<g id="Olives-6" class="st0">
					<path class="st1" d="M162.4,84.7c-5.8,2.7-8.3,9.6-5.6,15.4c2.7,5.8,9.6,8.3,15.4,5.6c5.8-2.7,8.3-9.6,5.6-15.4
						C175,84.5,168.2,82,162.4,84.7L162.4,84.7z M169.4,99.9c-2.6,1.2-5.7,0.1-6.9-2.5c-1.2-2.6-0.1-5.7,2.5-6.9
						c2.6-1.2,5.7-0.1,6.9,2.5c0,0,0,0,0,0C173.2,95.6,172,98.7,169.4,99.9z"/>
				</g>
				<g id="Olives-7">
					<path class="st2" d="M160,83.3c-5.8,2.7-8.3,9.6-5.6,15.4c2.7,5.8,9.6,8.3,15.4,5.6c5.8-2.7,8.3-9.6,5.6-15.4c0,0,0,0,0,0
						C172.7,83.1,165.8,80.5,160,83.3C160,83.3,160,83.3,160,83.3z M167.1,98.5c-2.6,1.2-5.7,0.1-6.9-2.5s-0.1-5.7,2.5-6.9
						s5.7-0.1,6.9,2.5C170.9,94.2,169.7,97.3,167.1,98.5L167.1,98.5z"/>
				</g>
			</g>
			<g id="Olives-8">
				<g id="Olives-9" class="st0">
					<path class="st1" d="M121.4,141c-5.8,2.8-8.2,9.7-5.4,15.5c2.8,5.8,9.7,8.2,15.5,5.4c5.8-2.8,8.2-9.7,5.4-15.5
						C134.1,140.6,127.2,138.2,121.4,141z M128.7,156.1c-2.6,1.2-5.7,0.2-6.9-2.4s-0.2-5.7,2.4-6.9c2.6-1.2,5.7-0.2,6.9,2.4
						C132.4,151.8,131.3,154.9,128.7,156.1C128.7,156.1,128.7,156.1,128.7,156.1L128.7,156.1z"/>
				</g>
				<g id="Olives-10">
					<path class="st2" d="M119.1,139.6c-5.8,2.8-8.2,9.7-5.4,15.5c2.8,5.8,9.7,8.2,15.5,5.4c5.8-2.8,8.2-9.7,5.4-15.4
						C131.8,139.3,124.9,136.8,119.1,139.6C119.1,139.6,119.1,139.6,119.1,139.6z M126.4,154.7c-2.6,1.2-5.7,0.1-6.9-2.4
						s-0.1-5.7,2.4-6.9c2.6-1.2,5.7-0.2,6.9,2.4C130.1,150.3,129,153.5,126.4,154.7C126.4,154.7,126.4,154.7,126.4,154.7z"/>
				</g>
			</g>
			<g id="Olives-11">
				<g id="Olives-12" class="st0">
					<path class="st1" d="M120.8,9.3c-5.8,2.7-8.3,9.6-5.6,15.4c2.7,5.8,9.6,8.3,15.4,5.6c5.8-2.7,8.3-9.6,5.6-15.4v0
						C133.5,9.1,126.6,6.6,120.8,9.3z M127.9,24.5c-2.6,1.2-5.7,0.1-6.9-2.5c-1.2-2.6-0.1-5.7,2.5-6.9c2.6-1.2,5.7-0.1,6.9,2.5
						c0,0,0,0,0,0C131.6,20.2,130.5,23.3,127.9,24.5C127.9,24.5,127.9,24.5,127.9,24.5z"/>
				</g>
				<g id="Olives-13">
					<path class="st2" d="M118.5,7.9c-5.8,2.7-8.3,9.6-5.6,15.4s9.6,8.3,15.4,5.6c5.8-2.7,8.3-9.6,5.6-15.4c0,0,0,0,0,0
						C131.2,7.7,124.3,5.2,118.5,7.9z M125.6,23.1c-2.6,1.2-5.7,0.1-6.9-2.5c-1.2-2.6-0.1-5.7,2.5-6.9c2.6-1.2,5.7-0.1,6.9,2.5
						C129.3,18.8,128.2,21.9,125.6,23.1L125.6,23.1z"/>
				</g>
			</g>
			<g id="Olives-14">
				<g id="Olives-15" class="st0">
					<path class="st1" d="M117.1,67.5c-5.8,2.7-8.3,9.6-5.6,15.4c2.7,5.8,9.6,8.3,15.4,5.6c5.8-2.7,8.3-9.6,5.6-15.4v0
						C129.8,67.3,122.9,64.8,117.1,67.5z M124.2,82.7c-2.6,1.2-5.7,0.1-6.9-2.5c-1.2-2.6-0.1-5.7,2.5-6.9c2.6-1.2,5.7-0.1,6.9,2.5
						c0,0,0,0,0,0C127.9,78.4,126.8,81.5,124.2,82.7z"/>
				</g>
				<g id="Olives-16">
					<path class="st2" d="M114.8,66c-5.8,2.7-8.3,9.6-5.6,15.4c2.7,5.8,9.6,8.3,15.4,5.6c5.8-2.7,8.3-9.6,5.6-15.4
						C127.5,65.8,120.6,63.3,114.8,66L114.8,66z M121.9,81.2c-2.6,1.2-5.7,0.1-6.9-2.5c-1.2-2.6-0.1-5.7,2.5-6.9
						c2.6-1.2,5.7-0.1,6.9,2.5C125.6,76.9,124.5,80,121.9,81.2z"/>
				</g>
			</g>
			<g id="Olives-17">
				<g id="Olives-18" class="st0">
					<path class="st1" d="M179.8,124.4c-5.8,2.7-8.3,9.6-5.6,15.4c2.7,5.8,9.6,8.3,15.4,5.6c5.8-2.7,8.3-9.6,5.6-15.4l0,0
						C192.5,124.2,185.6,121.7,179.8,124.4z M186.9,139.6c-2.6,1.2-5.7,0.1-6.9-2.5c-1.2-2.6-0.1-5.7,2.5-6.9
						c2.6-1.2,5.7-0.1,6.9,2.5c0,0,0,0,0,0C190.6,135.3,189.5,138.4,186.9,139.6z"/>
				</g>
				<g id="Olives-19">
					<path class="st2" d="M177.5,123c-5.8,2.7-8.3,9.6-5.6,15.4s9.6,8.3,15.4,5.6c5.8-2.7,8.3-9.6,5.6-15.4c0,0,0,0,0,0
						C190.2,122.8,183.3,120.3,177.5,123C177.5,123,177.5,123,177.5,123z M184.6,138.2c-2.6,1.2-5.7,0.1-6.9-2.5
						c-1.2-2.6-0.1-5.7,2.5-6.9c2.6-1.2,5.7-0.1,6.9,2.5C188.3,133.9,187.2,137,184.6,138.2L184.6,138.2z"/>
				</g>
			</g>
			<g id="Olives-20">
				<g id="Olives-21" class="st0">
					<path class="st1" d="M67.6,155.4c-5.8,2.7-8.3,9.6-5.6,15.4c2.7,5.8,9.6,8.3,15.4,5.6c5.8-2.7,8.3-9.6,5.6-15.4
						C80.3,155.3,73.4,152.7,67.6,155.4C67.6,155.4,67.6,155.4,67.6,155.4z M74.7,170.7c-2.6,1.2-5.7,0.1-6.9-2.5
						c-1.2-2.6-0.1-5.7,2.5-6.9c2.6-1.2,5.7-0.1,6.9,2.5c0,0,0,0,0,0C78.4,166.4,77.3,169.4,74.7,170.7z"/>
				</g>
				<g id="Olives-22">
					<path class="st2" d="M65.3,154c-5.8,2.7-8.3,9.6-5.6,15.4c2.7,5.8,9.6,8.3,15.4,5.6c5.8-2.7,8.3-9.6,5.6-15.4l0,0
						C78,153.8,71.1,151.3,65.3,154z M72.4,169.2c-2.6,1.2-5.7,0.1-6.9-2.5s-0.1-5.7,2.5-6.9c2.6-1.2,5.7-0.1,6.9,2.5c0,0,0,0,0,0
						C76.1,164.9,75,168,72.4,169.2C72.4,169.2,72.4,169.2,72.4,169.2z"/>
				</g>
			</g>
			<g id="Olives-23">
				<g id="Olives-24" class="st0">
					<path class="st1" d="M192.3,62.2c-5.8,2.7-8.3,9.6-5.6,15.4c2.7,5.8,9.6,8.3,15.4,5.6c5.8-2.7,8.3-9.6,5.6-15.4c0,0,0,0,0,0
						C205,62,198.1,59.5,192.3,62.2z M199.4,77.4c-2.6,1.2-5.7,0.1-6.9-2.5c-1.2-2.6-0.1-5.7,2.5-6.9c2.6-1.2,5.7-0.1,6.9,2.5
						C203.1,73.1,202,76.2,199.4,77.4C199.4,77.4,199.4,77.4,199.4,77.4z"/>
				</g>
				<g id="Olives-25">
					<path class="st2" d="M190,60.8c-5.8,2.7-8.3,9.6-5.6,15.4s9.6,8.3,15.4,5.6s8.3-9.6,5.6-15.4c0,0,0,0,0,0
						C202.7,60.6,195.8,58.1,190,60.8z M197.1,76c-2.6,1.2-5.7,0.1-6.9-2.5c-1.2-2.6-0.1-5.7,2.5-6.9c2.6-1.2,5.7-0.1,6.9,2.5
						c0,0,0,0,0,0C200.8,71.7,199.7,74.8,197.1,76z"/>
				</g>
			</g>
			<g id="Olives-26">
				<g id="Olives-27" class="st0">
					<path class="st1" d="M78.8,110.8c-5.8,2.7-8.3,9.6-5.6,15.4s9.6,8.3,15.4,5.6c5.8-2.7,8.3-9.6,5.6-15.4v0
						C91.4,110.6,84.6,108.1,78.8,110.8z M85.9,126.1c-2.6,1.2-5.7,0.1-6.9-2.5c-1.2-2.6-0.1-5.7,2.5-6.9c2.6-1.2,5.7-0.1,6.9,2.5
						c0,0,0,0,0,0.1C89.6,121.8,88.4,124.9,85.9,126.1L85.9,126.1z"/>
				</g>
				<g id="Olives-28">
					<path class="st2" d="M76.4,109.5c-5.8,2.7-8.3,9.6-5.6,15.4s9.6,8.3,15.4,5.6c5.8-2.7,8.3-9.6,5.6-15.4
						C89.1,109.3,82.3,106.7,76.4,109.5C76.5,109.4,76.5,109.5,76.4,109.5z M83.5,124.7c-2.6,1.2-5.7,0.1-6.9-2.5
						c-1.2-2.6-0.1-5.7,2.5-6.9c2.6-1.2,5.7-0.1,6.9,2.5c0,0,0,0,0,0C87.3,120.4,86.2,123.5,83.5,124.7
						C83.5,124.7,83.5,124.7,83.5,124.7z"/>
				</g>
			</g>
			<g id="Olives-29">
				<g id="Olives-30" class="st0">
					<path class="st1" d="M79.4,11.6c-5.8,2.7-8.3,9.6-5.6,15.4s9.6,8.3,15.4,5.6c5.8-2.7,8.3-9.6,5.6-15.4c0,0,0,0,0,0
						C92.1,11.4,85.2,8.9,79.4,11.6z M86.5,26.8c-2.6,1.2-5.7,0.1-6.9-2.5c-1.2-2.6-0.1-5.7,2.5-6.9c2.6-1.2,5.7-0.1,6.9,2.5
						c0,0,0,0,0,0C90.2,22.5,89.1,25.6,86.5,26.8z"/>
				</g>
				<g id="Olives-31">
					<path class="st2" d="M77,10.2c-5.8,2.7-8.3,9.6-5.6,15.4c2.7,5.8,9.6,8.3,15.4,5.6c5.8-2.7,8.3-9.6,5.6-15.4c0,0,0,0,0,0
						C89.7,10,82.8,7.5,77,10.2z M84.1,25.4c-2.6,1.2-5.7,0.1-6.9-2.5s-0.1-5.7,2.5-6.9c2.6-1.2,5.7-0.1,6.9,2.5c0,0,0,0,0,0
						C87.8,21.1,86.7,24.2,84.1,25.4z"/>
				</g>
			</g>
			<g id="Olives-32">
				<g id="Olives-33" class="st0">
					<path class="st1" d="M161,180c-5.8,2.7-8.3,9.6-5.6,15.4c2.7,5.8,9.6,8.3,15.4,5.6c5.8-2.7,8.3-9.6,5.6-15.4l0,0
						C173.7,179.8,166.8,177.3,161,180z M168.1,195.2c-2.6,1.2-5.7,0.1-6.9-2.5c-1.2-2.6-0.1-5.7,2.5-6.9c2.6-1.2,5.7-0.1,6.9,2.5
						c0,0,0,0,0,0C171.9,190.9,170.7,194,168.1,195.2z"/>
				</g>
				<g id="Olives-34">
					<path class="st2" d="M158.7,178.6c-5.8,2.7-8.3,9.6-5.6,15.4c2.7,5.8,9.6,8.3,15.4,5.6c5.8-2.7,8.3-9.6,5.6-15.4l0,0
						C171.4,178.4,164.5,175.9,158.7,178.6z M165.8,193.8c-2.6,1.2-5.7,0.1-6.9-2.5c-1.2-2.6-0.1-5.7,2.5-6.9
						c2.6-1.2,5.7-0.1,6.9,2.5c0,0,0,0,0,0C169.5,189.5,168.4,192.6,165.8,193.8L165.8,193.8z"/>
				</g>
			</g>
			<g id="Olives-35">
				<g id="Olives-36" class="st0">
					<path class="st1" d="M12.9,120.3c-5.8,2.7-8.3,9.6-5.6,15.4c2.7,5.8,9.6,8.3,15.4,5.6s8.3-9.6,5.6-15.4
						C25.6,120.1,18.7,117.6,12.9,120.3C12.9,120.3,12.9,120.3,12.9,120.3z M20,135.5c-2.6,1.2-5.7,0.1-6.9-2.5s-0.1-5.7,2.5-6.9
						s5.7-0.1,6.9,2.5c0,0,0,0,0,0C23.7,131.2,22.6,134.3,20,135.5C20,135.5,20,135.5,20,135.5z"/>
				</g>
				<g id="Olives-37">
					<path class="st2" d="M10.6,118.9c-5.8,2.7-8.3,9.6-5.6,15.4c2.7,5.8,9.6,8.3,15.4,5.6s8.3-9.6,5.6-15.4l0,0
						C23.3,118.7,16.4,116.2,10.6,118.9z M17.7,134.1c-2.6,1.2-5.7,0.1-6.9-2.5c-1.2-2.6-0.1-5.7,2.5-6.9s5.7-0.1,6.9,2.5
						c0,0,0,0,0,0C21.4,129.8,20.3,132.9,17.7,134.1z"/>
				</g>
			</g>
		</g>
	</g>
</g>
</svg>
