<?xml version="1.0" encoding="utf-8"?>
<!-- Generator: Adobe Illustrator 27.7.0, SVG Export Plug-In . SVG Version: 6.00 Build 0)  -->
<svg version="1.1" id="Layer_1" xmlns="http://www.w3.org/2000/svg" xmlns:xlink="http://www.w3.org/1999/xlink" x="0px" y="0px"
	 viewBox="0 0 223 194.8" style="enable-background:new 0 0 223 194.8;" xml:space="preserve">
<style type="text/css">
	.st0{fill:#FF501A;}
	.st1{fill:#FF774D;}
	.st2{fill:#FF8B66;}
	.st3{fill:#FFD28F;}
	.st4{opacity:0.1;}
	.st5{fill:#534741;}
</style>
<g id="Layer_2_00000179630764316098133830000018374564345583320719_">
	<g id="Ingredients">
		<g id="Tomatoes">
			<circle class="st0" cx="145.8" cy="27.2" r="22.7"/>
			<circle class="st1" cx="145.8" cy="27.2" r="18.4"/>
			<circle class="st2" cx="145.8" cy="27.2" r="3.7"/>
			<polygon class="st0" points="154.3,8.3 151.5,7.3 144.9,25.3 126.8,18.7 125.8,21.6 143.9,28.1 137.3,46.2 140.1,47.2 
				146.7,29.2 164.8,35.8 165.8,32.9 147.7,26.3 			"/>
			<path class="st3" d="M140.4,15.8c-0.4,0.2-0.8,0-1-0.4v0l-1-2.2c-0.2-0.4,0-0.8,0.4-1s0.8,0,1,0.4l0,0l1,2.2
				C141,15.1,140.8,15.6,140.4,15.8L140.4,15.8z"/>
			<path class="st3" d="M145.1,15.9c-0.1,0.1-0.3,0.1-0.4,0.1c-0.4-0.1-0.7-0.4-0.6-0.9l0.3-2c0.1-0.4,0.4-0.7,0.9-0.6
				c0.4,0.1,0.7,0.4,0.6,0.9l-0.3,2C145.5,15.6,145.3,15.8,145.1,15.9z"/>
			<path class="st3" d="M137.5,19.4c-0.2,0.1-0.5,0.1-0.7,0l-1.7-1.1c-0.4-0.2-0.5-0.7-0.3-1c0.2-0.4,0.7-0.5,1-0.3c0,0,0,0,0.1,0
				l1.7,1.1c0.4,0.2,0.5,0.7,0.2,1C137.8,19.3,137.7,19.4,137.5,19.4z"/>
			<path class="st3" d="M152.8,42.3c-0.4,0.2-0.8,0-1-0.4c0,0,0,0,0,0l-1-2.2c-0.2-0.4,0-0.8,0.4-1c0.4-0.2,0.8,0,1,0.4l1,2.2
				C153.4,41.7,153.2,42.1,152.8,42.3L152.8,42.3z"/>
			<path class="st3" d="M156.4,37.5c-0.2,0.1-0.5,0.1-0.7,0l-1.8-1.1c-0.4-0.2-0.5-0.7-0.2-1c0.2-0.4,0.7-0.5,1-0.2l1.8,1.1
				c0.4,0.2,0.5,0.7,0.2,1C156.7,37.4,156.6,37.5,156.4,37.5L156.4,37.5z"/>
			<path class="st3" d="M146.8,42c-0.1,0.1-0.3,0.1-0.4,0.1c-0.4-0.1-0.7-0.4-0.6-0.8l0.3-2c0.1-0.4,0.4-0.7,0.8-0.6c0,0,0,0,0,0
				c0.4,0.1,0.7,0.4,0.6,0.8c0,0,0,0,0,0l-0.3,2C147.2,41.7,147.1,41.9,146.8,42z"/>
			<path class="st3" d="M134,33.6l-2.2,1c-0.4,0.2-0.8,0-1-0.4c-0.2-0.4,0-0.8,0.4-1c0,0,0,0,0,0l2.2-1c0.4-0.2,0.8,0,1,0.4
				C134.5,33,134.3,33.4,134,33.6C134,33.6,134,33.6,134,33.6z"/>
			<path class="st3" d="M134.1,29c-0.1,0.1-0.3,0.1-0.4,0.1l-2.1-0.3c-0.4-0.1-0.7-0.4-0.6-0.8c0,0,0,0,0,0c0.1-0.4,0.4-0.7,0.9-0.6
				l2,0.3c0.4,0.1,0.7,0.4,0.6,0.8c0,0,0,0,0,0C134.5,28.6,134.3,28.9,134.1,29z"/>
			<path class="st3" d="M136.5,38.3c-0.2,0.1-0.5,0.1-0.7,0c-0.4-0.2-0.5-0.7-0.2-1l1.1-1.7c0.2-0.4,0.7-0.5,1-0.2
				c0.4,0.2,0.5,0.7,0.2,1l0,0l-1.1,1.7C136.8,38.1,136.7,38.2,136.5,38.3z"/>
			<path class="st3" d="M160.5,21.2l-2.2,1c-0.4,0.2-0.8,0-1-0.4c-0.2-0.4,0-0.8,0.4-1l2.2-1c0.4-0.2,0.8,0,1,0.4
				C161,20.6,160.9,21.1,160.5,21.2z"/>
			<path class="st3" d="M154.6,19.4c-0.2,0.1-0.5,0.1-0.7,0c-0.4-0.2-0.5-0.7-0.2-1c0,0,0,0,0,0l1.1-1.7c0.2-0.4,0.6-0.5,1-0.3
				c0.4,0.2,0.5,0.6,0.3,1c0,0,0,0.1-0.1,0.1l-1.1,1.7C154.9,19.2,154.8,19.3,154.6,19.4z"/>
			<path class="st3" d="M160.2,27.2c-0.1,0.1-0.3,0.1-0.4,0.1l-2-0.3c-0.4-0.1-0.7-0.4-0.7-0.8c0.1-0.4,0.4-0.7,0.8-0.7l0,0l2,0.3
				c0.4,0.1,0.7,0.4,0.6,0.9C160.6,26.9,160.4,27.1,160.2,27.2z"/>
			<g class="st4">
				<circle class="st5" cx="150.3" cy="28.9" r="22.7"/>
				<circle class="st5" cx="150.3" cy="28.9" r="18.4"/>
				<circle class="st5" cx="150.3" cy="28.9" r="3.7"/>
				<polygon class="st5" points="158.8,9.9 156,8.9 149.4,27 131.4,20.4 130.3,23.2 148.4,29.8 141.8,47.9 144.7,48.9 151.2,30.8 
					169.3,37.4 170.3,34.6 152.2,28 				"/>
				<path class="st5" d="M145,17.4c-0.4,0.2-0.8,0-1-0.3c0,0,0,0,0,0l-1-2.2c-0.2-0.4,0-0.8,0.4-1s0.8,0,1,0.4l1,2.2
					C145.5,16.8,145.3,17.2,145,17.4z"/>
				<path class="st5" d="M149.6,17.6c-0.1,0.1-0.3,0.1-0.4,0.1c-0.4-0.1-0.7-0.4-0.6-0.9l0.3-2c0-0.4,0.4-0.7,0.8-0.7
					c0.4,0,0.7,0.4,0.7,0.8c0,0,0,0.1,0,0.1l-0.3,2C150.1,17.2,149.9,17.5,149.6,17.6z"/>
				<path class="st5" d="M142.1,21.1c-0.2,0.1-0.5,0.1-0.7,0l-1.7-1.1c-0.4-0.2-0.5-0.7-0.3-1c0.2-0.4,0.7-0.5,1-0.3c0,0,0,0,0.1,0
					l1.7,1.1c0.4,0.2,0.5,0.7,0.2,1C142.3,20.9,142.2,21,142.1,21.1z"/>
				<path class="st5" d="M157.3,43.9c-0.4,0.2-0.8,0-1-0.4v0l-1-2.2c-0.2-0.4,0-0.8,0.4-1c0.4-0.2,0.8,0,1,0.4l0,0l1.1,2.3
					C157.9,43.4,157.7,43.8,157.3,43.9z"/>
				<path class="st5" d="M160.9,39.2c-0.2,0.1-0.5,0.1-0.7,0l-1.7-1.1c-0.3-0.2-0.4-0.7-0.2-1.1c0.2-0.3,0.6-0.4,1-0.2l1.7,1.1
					c0.4,0.2,0.5,0.7,0.2,1c0,0,0,0,0,0C161.2,39,161.1,39.1,160.9,39.2z"/>
				<path class="st5" d="M151.4,43.6c-0.1,0.1-0.3,0.1-0.4,0.1c-0.4-0.1-0.7-0.4-0.6-0.8c0,0,0,0,0,0l0.3-2c0.1-0.4,0.5-0.7,0.9-0.6
					c0.4,0.1,0.6,0.4,0.6,0.8l-0.2,2C151.8,43.3,151.6,43.5,151.4,43.6z"/>
				<path class="st5" d="M138.5,35.3l-2.2,1c-0.4,0.2-0.8,0-1-0.4c-0.2-0.4,0-0.8,0.4-1c0,0,0,0,0,0l2.2-1c0.4-0.2,0.8,0,1,0.4
					C139,34.6,138.9,35.1,138.5,35.3C138.5,35.3,138.5,35.3,138.5,35.3z"/>
				<path class="st5" d="M138.6,30.6c-0.1,0.1-0.3,0.1-0.4,0.1l-2-0.3c-0.4,0-0.7-0.4-0.7-0.8c0-0.4,0.4-0.7,0.8-0.7
					c0,0,0.1,0,0.1,0l2,0.3c0.4,0.1,0.7,0.4,0.6,0.9C139,30.3,138.8,30.5,138.6,30.6z"/>
				<path class="st5" d="M141,39.9c-0.4,0.2-0.8,0-1-0.4c-0.1-0.2-0.1-0.5,0-0.7l1.1-1.7c0.2-0.3,0.7-0.4,1.1-0.2
					c0.3,0.2,0.4,0.6,0.2,1l-1.1,1.7C141.3,39.7,141.2,39.8,141,39.9z"/>
				<path class="st5" d="M165,22.9l-2.2,1c-0.4,0.2-0.8,0-1-0.4c-0.2-0.4,0-0.8,0.4-1l2.2-1c0.4-0.2,0.8,0,1,0.4
					C165.6,22.3,165.4,22.7,165,22.9z"/>
				<path class="st5" d="M159.1,21c-0.2,0.1-0.5,0.1-0.7,0c-0.4-0.2-0.5-0.7-0.2-1c0,0,0,0,0,0l1.1-1.7c0.2-0.4,0.7-0.5,1-0.3
					c0.4,0.2,0.5,0.7,0.3,1c0,0,0,0,0,0.1l-1.1,1.7C159.4,20.8,159.3,20.9,159.1,21z"/>
				<path class="st5" d="M164.7,28.8c-0.1,0.1-0.3,0.1-0.4,0.1l-2-0.3c-0.4-0.1-0.7-0.4-0.6-0.8c0,0,0,0,0,0
					c0.1-0.4,0.4-0.7,0.9-0.6l2,0.3c0.4,0.1,0.7,0.4,0.6,0.9C165.1,28.5,164.9,28.7,164.7,28.8z"/>
			</g>
			<circle class="st0" cx="28.3" cy="115.8" r="22.7"/>
			<circle class="st1" cx="28.3" cy="115.8" r="18.4"/>
			<circle class="st2" cx="28.3" cy="115.8" r="3.7"/>
			<polygon class="st0" points="36.8,96.8 34,95.8 27.4,113.8 9.4,107.3 8.3,110.1 26.4,116.7 19.8,134.7 22.7,135.8 29.2,117.7 
				47.3,124.3 48.3,121.4 30.3,114.9 			"/>
			<path class="st3" d="M23,104.3c-0.4,0.2-0.8,0-1-0.3c0,0,0,0,0,0l-1-2.2c-0.2-0.4,0-0.8,0.4-1c0.4-0.2,0.8,0,1,0.4l1,2.2
				C23.5,103.7,23.4,104.1,23,104.3C23,104.3,23,104.3,23,104.3z"/>
			<path class="st3" d="M27.6,104.4c-0.1,0.1-0.3,0.1-0.4,0.1c-0.4-0.1-0.7-0.4-0.6-0.9l0.3-2c0-0.4,0.4-0.7,0.8-0.7
				c0.4,0,0.7,0.4,0.7,0.8c0,0,0,0.1,0,0.1l-0.3,2C28,104.1,27.9,104.3,27.6,104.4z"/>
			<path class="st3" d="M20.1,107.9c-0.2,0.1-0.5,0.1-0.7,0l-1.7-1.1c-0.3-0.2-0.4-0.7-0.2-1.1c0.2-0.4,0.7-0.5,1-0.2l1.7,1.1
				c0.3,0.2,0.4,0.7,0.2,1.1c0,0,0,0,0,0C20.3,107.8,20.2,107.9,20.1,107.9z"/>
			<path class="st3" d="M35.4,130.8c-0.4,0.2-0.8,0-1-0.4l0,0l-1-2.2c-0.2-0.4,0-0.8,0.4-1s0.8,0,1,0.4l1,2.2
				C35.9,130.2,35.7,130.6,35.4,130.8C35.4,130.8,35.4,130.8,35.4,130.8z"/>
			<path class="st3" d="M39,126.1c-0.2,0.1-0.5,0.1-0.7,0l-1.7-1.1c-0.3-0.2-0.4-0.7-0.2-1.1c0.2-0.3,0.6-0.4,1-0.2l1.7,1.1
				c0.4,0.2,0.5,0.7,0.2,1c0,0,0,0,0,0C39.2,125.9,39.1,126,39,126.1z"/>
			<path class="st3" d="M29.4,130.5c-0.1,0.1-0.3,0.1-0.4,0.1c-0.4-0.1-0.7-0.4-0.6-0.9l0.3-2c0.1-0.4,0.4-0.7,0.9-0.6c0,0,0,0,0,0
				c0.4,0.1,0.7,0.4,0.6,0.8c0,0,0,0,0,0l-0.3,2C29.8,130.2,29.6,130.4,29.4,130.5z"/>
			<path class="st3" d="M16.5,122.1l-2.2,1c-0.4,0.2-0.8,0-1-0.4c-0.2-0.4,0-0.8,0.4-1l2.2-1c0.4-0.2,0.8,0,1,0.4
				C17,121.5,16.9,122,16.5,122.1C16.5,122.1,16.5,122.1,16.5,122.1z"/>
			<path class="st3" d="M16.6,117.5c-0.1,0.1-0.3,0.1-0.4,0.1l-2.1-0.3c-0.4-0.1-0.7-0.4-0.6-0.8c0,0,0,0,0,0
				c0.1-0.4,0.4-0.7,0.8-0.6c0,0,0,0,0,0l2,0.3c0.4,0,0.7,0.4,0.7,0.8C17,117.1,16.9,117.4,16.6,117.5z"/>
			<path class="st3" d="M19,126.8c-0.4,0.2-0.8,0-1-0.4c-0.1-0.2-0.1-0.5,0-0.7l1.1-1.7c0.2-0.4,0.7-0.5,1-0.2c0,0,0,0,0,0
				c0.4,0.2,0.5,0.7,0.2,1c0,0,0,0,0,0l-1.1,1.7C19.3,126.6,19.2,126.7,19,126.8z"/>
			<path class="st3" d="M43,109.8l-2.2,1c-0.4,0.2-0.8,0-1-0.4c-0.2-0.4,0-0.8,0.4-1c0,0,0,0,0,0l2.2-1c0.4-0.2,0.8,0,1,0.4
				C43.6,109.1,43.4,109.6,43,109.8C43,109.8,43,109.8,43,109.8z"/>
			<path class="st3" d="M37.2,107.9c-0.2,0.1-0.5,0.1-0.7,0c-0.4-0.2-0.5-0.7-0.2-1c0,0,0,0,0,0l1.1-1.7c0.1-0.4,0.5-0.6,0.9-0.5
				c0.4,0.1,0.6,0.5,0.5,0.9c0,0.1-0.1,0.2-0.2,0.3l-1.1,1.8C37.4,107.7,37.3,107.8,37.2,107.9z"/>
			<path class="st3" d="M42.7,115.7c-0.1,0.1-0.3,0.1-0.4,0.1l-2.1-0.3c-0.4-0.1-0.7-0.4-0.6-0.8c0,0,0,0,0,0
				c0.1-0.4,0.4-0.7,0.9-0.6l2,0.3c0.4,0.1,0.7,0.4,0.6,0.8c0,0,0,0,0,0C43.1,115.4,42.9,115.6,42.7,115.7z"/>
			<g class="st4">
				<circle class="st5" cx="32.8" cy="117.4" r="22.7"/>
				<circle class="st5" cx="32.8" cy="117.4" r="18.4"/>
				<circle class="st5" cx="32.8" cy="117.4" r="3.7"/>
				<polygon class="st5" points="41.3,98.5 38.5,97.4 31.9,115.5 13.9,108.9 12.9,111.7 30.9,118.3 24.3,136.4 27.2,137.4 
					33.7,119.4 51.8,125.9 52.8,123.1 34.8,116.5 				"/>
				<path class="st5" d="M27.5,105.9c-0.4,0.2-0.8,0-1-0.4l0,0l-1-2.2c-0.2-0.4,0-0.8,0.4-1c0.4-0.2,0.8,0,1,0.4l1,2.2
					C28,105.3,27.9,105.8,27.5,105.9C27.5,105.9,27.5,105.9,27.5,105.9z"/>
				<path class="st5" d="M32.2,106.1c-0.1,0.1-0.3,0.1-0.4,0.1c-0.4-0.1-0.7-0.4-0.6-0.8c0,0,0,0,0,0l0.3-2c0.1-0.4,0.4-0.7,0.9-0.6
					c0.4,0.1,0.7,0.4,0.6,0.8c0,0,0,0,0,0l-0.3,2.1C32.6,105.8,32.4,106,32.2,106.1z"/>
				<path class="st5" d="M24.6,109.6c-0.2,0.1-0.5,0.1-0.7,0l-1.7-1.1c-0.4-0.2-0.5-0.7-0.2-1c0,0,0,0,0,0c0.2-0.4,0.7-0.5,1-0.2
					l1.7,1.1c0.4,0.2,0.5,0.7,0.2,1C24.8,109.4,24.7,109.5,24.6,109.6z"/>
				<path class="st5" d="M39.9,132.5c-0.4,0.2-0.8,0-1-0.4l0,0l-1-2.2c-0.2-0.4,0-0.8,0.4-1s0.8,0,1,0.4l1,2.2
					C40.4,131.9,40.2,132.3,39.9,132.5C39.9,132.5,39.9,132.5,39.9,132.5z"/>
				<path class="st5" d="M43.5,127.7c-0.2,0.1-0.5,0.1-0.7,0l-1.7-1.1c-0.4-0.2-0.5-0.7-0.3-1c0.2-0.4,0.7-0.5,1-0.3c0,0,0,0,0.1,0
					l1.7,1.1c0.3,0.2,0.4,0.7,0.2,1C43.7,127.5,43.6,127.6,43.5,127.7z"/>
				<path class="st5" d="M33.9,132.2c-0.1,0.1-0.3,0.1-0.4,0.1c-0.4-0.1-0.7-0.4-0.6-0.9l0.3-2c0.1-0.4,0.4-0.7,0.9-0.6
					c0.4,0.1,0.7,0.4,0.6,0.9c0,0,0,0,0,0l-0.3,2C34.3,131.8,34.1,132.1,33.9,132.2z"/>
				<path class="st5" d="M21,123.8l-2.2,1c-0.4,0.2-0.8,0-1-0.4c-0.2-0.4,0-0.8,0.4-1l2.2-1c0.4-0.2,0.8,0,1,0.4
					C21.5,123.1,21.4,123.6,21,123.8C21,123.8,21,123.8,21,123.8z"/>
				<path class="st5" d="M21.1,119.1c-0.1,0.1-0.3,0.1-0.4,0.1l-2-0.3c-0.4-0.1-0.7-0.4-0.7-0.8c0.1-0.4,0.4-0.7,0.8-0.7l2,0.3
					c0.4,0.1,0.7,0.4,0.6,0.9C21.5,118.8,21.4,119,21.1,119.1z"/>
				<path class="st5" d="M23.6,128.4c-0.4,0.2-0.8,0-1-0.4c-0.1-0.2-0.1-0.5,0-0.7l1.1-1.7c0.2-0.4,0.7-0.5,1-0.2c0,0,0,0,0,0
					c0.4,0.2,0.5,0.7,0.2,1c0,0,0,0,0,0l-1.1,1.7C23.8,128.3,23.7,128.4,23.6,128.4z"/>
				<path class="st5" d="M47.5,111.4l-2.2,1c-0.4,0.2-0.8,0-1-0.4c-0.2-0.4,0-0.8,0.4-1c0,0,0,0,0,0l2.2-1c0.4-0.2,0.8,0,1,0.4
					C48.1,110.8,47.9,111.2,47.5,111.4C47.5,111.4,47.5,111.4,47.5,111.4z"/>
				<path class="st5" d="M41.7,109.5c-0.2,0.1-0.5,0.1-0.7,0c-0.4-0.2-0.5-0.7-0.2-1l1.1-1.8c0.2-0.4,0.7-0.5,1-0.2
					c0.4,0.2,0.5,0.7,0.2,1l-1.1,1.8C41.9,109.4,41.8,109.5,41.7,109.5z"/>
				<path class="st5" d="M47.2,117.4c-0.1,0.1-0.3,0.1-0.4,0.1l-2-0.3c-0.4,0-0.7-0.4-0.7-0.8c0-0.4,0.4-0.7,0.8-0.7
					c0,0,0.1,0,0.1,0l2,0.3c0.4,0.1,0.7,0.4,0.6,0.9C47.6,117.1,47.5,117.3,47.2,117.4L47.2,117.4z"/>
			</g>
			<circle class="st0" cx="101.4" cy="95.5" r="22.7"/>
			<circle class="st1" cx="101.4" cy="95.5" r="18.4"/>
			<circle class="st2" cx="101.4" cy="95.5" r="3.7"/>
			<polygon class="st0" points="109.9,76.5 107,75.5 100.5,93.5 82.4,87 81.4,89.8 99.4,96.4 92.9,114.4 95.7,115.5 102.3,97.4 
				120.3,104 121.3,101.1 103.3,94.6 			"/>
			<path class="st3" d="M96,84c-0.4,0.2-0.8,0-1-0.4v0l-1-2.2c-0.2-0.4,0-0.8,0.4-1s0.8,0,1,0.4c0,0,0,0,0,0l1,2.2
				C96.6,83.4,96.4,83.8,96,84z"/>
			<path class="st3" d="M100.7,84.1c-0.1,0.1-0.3,0.1-0.4,0.1c-0.4-0.1-0.7-0.4-0.6-0.9l0.3-2c0.1-0.4,0.4-0.7,0.9-0.6
				c0.4,0.1,0.7,0.4,0.6,0.9l-0.3,2C101.1,83.8,100.9,84,100.7,84.1z"/>
			<path class="st3" d="M93.1,87.6c-0.2,0.1-0.5,0.1-0.7,0l-1.7-1.1c-0.4-0.2-0.5-0.7-0.2-1c0.2-0.4,0.7-0.5,1-0.2c0,0,0,0,0,0
				l1.7,1.1c0.4,0.2,0.5,0.7,0.2,1c0,0,0,0,0,0C93.3,87.5,93.2,87.6,93.1,87.6z"/>
			<path class="st3" d="M108.4,110.5c-0.4,0.2-0.8,0-1-0.4l0,0l-1-2.2c-0.2-0.4,0-0.8,0.4-1c0.4-0.2,0.8,0,1,0.4c0,0,0,0,0,0l1,2.2
				C108.9,109.9,108.8,110.3,108.4,110.5z"/>
			<path class="st3" d="M112,105.8c-0.2,0.1-0.5,0.1-0.7,0l-1.7-1.1c-0.4-0.2-0.5-0.7-0.2-1c0,0,0,0,0,0c0.2-0.4,0.7-0.5,1-0.2
				c0,0,0,0,0,0l1.7,1.1c0.4,0.2,0.5,0.7,0.2,1.1C112.2,105.6,112.1,105.7,112,105.8z"/>
			<path class="st3" d="M102.4,110.2c-0.1,0.1-0.3,0.1-0.4,0.1c-0.4-0.1-0.7-0.4-0.6-0.8c0,0,0,0,0,0l0.2-2c0.1-0.4,0.5-0.7,0.9-0.6
				c0.4,0.1,0.6,0.4,0.6,0.8l-0.3,2C102.8,109.9,102.6,110.1,102.4,110.2z"/>
			<path class="st3" d="M89.5,101.8l-2.2,1c-0.4,0.2-0.8,0-1-0.4c-0.2-0.4,0-0.8,0.4-1c0,0,0,0,0,0l2.2-1c0.4-0.2,0.8,0,1,0.4
				S89.9,101.6,89.5,101.8C89.5,101.8,89.5,101.8,89.5,101.8z"/>
			<path class="st3" d="M89.6,97.2c-0.1,0.1-0.3,0.1-0.4,0.1l-2-0.3c-0.4,0-0.7-0.4-0.7-0.8c0-0.4,0.4-0.7,0.8-0.7c0,0,0.1,0,0.1,0
				l2,0.3c0.4,0.1,0.7,0.4,0.6,0.9C90,96.8,89.9,97,89.6,97.2z"/>
			<path class="st3" d="M92.1,106.5c-0.2,0.1-0.5,0.1-0.7,0c-0.4-0.2-0.5-0.7-0.2-1l1.1-1.7c0.2-0.4,0.7-0.5,1-0.2
				c0.4,0.2,0.5,0.7,0.2,1c0,0,0,0,0,0l-1.1,1.7C92.3,106.3,92.2,106.4,92.1,106.5z"/>
			<path class="st3" d="M116.1,89.5l-2.2,1c-0.4,0.2-0.8,0-1-0.4c-0.2-0.4,0-0.8,0.4-1l2.2-1c0.4-0.2,0.8,0,1,0.4
				C116.6,88.8,116.4,89.3,116.1,89.5z"/>
			<path class="st3" d="M110.2,87.6c-0.4,0.2-0.8,0-1-0.4c-0.1-0.2-0.1-0.5,0-0.7l1.1-1.7c0.3-0.3,0.7-0.4,1.1-0.1
				c0.3,0.2,0.4,0.6,0.2,0.9l-1.1,1.7C110.4,87.4,110.3,87.5,110.2,87.6z"/>
			<path class="st3" d="M115.8,95.4c-0.1,0.1-0.3,0.1-0.4,0.1l-2-0.3c-0.4,0-0.7-0.4-0.7-0.8c0-0.4,0.4-0.7,0.8-0.7c0,0,0.1,0,0.1,0
				l2,0.3c0.4,0.1,0.7,0.4,0.6,0.9C116.2,95.1,116,95.3,115.8,95.4z"/>
			<g class="st4">
				<circle class="st5" cx="105.9" cy="97.1" r="22.7"/>
				<circle class="st5" cx="105.9" cy="97.1" r="18.4"/>
				<circle class="st5" cx="105.9" cy="97.1" r="3.7"/>
				<polygon class="st5" points="114.4,78.2 111.5,77.1 105,95.2 86.9,88.6 85.9,91.4 103.9,98 97.4,116.1 100.2,117.1 106.8,99.1 
					124.8,105.6 125.9,102.8 107.8,96.2 				"/>
				<path class="st5" d="M100.5,85.6c-0.4,0.2-0.8,0-1-0.3c0,0,0,0,0,0l-1-2.2c-0.2-0.4-0.1-0.8,0.3-1c0.4-0.2,0.8-0.1,1,0.3
					c0,0,0.1,0.1,0.1,0.2l1,2.2C101.1,85,100.9,85.5,100.5,85.6z"/>
				<path class="st5" d="M105.2,85.8c-0.1,0.1-0.3,0.1-0.4,0.1c-0.4-0.1-0.7-0.4-0.6-0.8c0,0,0,0,0,0l0.3-2c0-0.4,0.4-0.7,0.8-0.7
					c0.4,0,0.7,0.4,0.7,0.8c0,0,0,0.1,0,0.1l-0.3,2C105.6,85.4,105.4,85.7,105.2,85.8z"/>
				<path class="st5" d="M97.6,89.3c-0.2,0.1-0.5,0.1-0.7,0l-1.7-1.1c-0.4-0.2-0.5-0.7-0.2-1c0,0,0,0,0,0c0.2-0.4,0.7-0.5,1-0.2
					c0,0,0,0,0,0l1.8,1.1c0.4,0.2,0.5,0.7,0.2,1c0,0,0,0,0,0C97.9,89.1,97.8,89.2,97.6,89.3z"/>
				<path class="st5" d="M112.9,112.2c-0.4,0.2-0.8,0-1-0.4l0,0l-1-2.2c-0.2-0.4-0.1-0.8,0.3-1c0.4-0.2,0.8-0.1,1,0.3
					c0,0,0.1,0.1,0.1,0.2l1,2.2C113.4,111.5,113.3,112,112.9,112.2C112.9,112.2,112.9,112.2,112.9,112.2z"/>
				<path class="st5" d="M116.5,107.4c-0.2,0.1-0.5,0.1-0.7,0l-1.7-1.1c-0.4-0.2-0.5-0.7-0.3-1s0.7-0.5,1-0.3c0,0,0,0,0.1,0l1.7,1.1
					c0.4,0.2,0.5,0.7,0.2,1c0,0,0,0,0,0C116.7,107.2,116.6,107.3,116.5,107.4z"/>
				<path class="st5" d="M106.9,111.9c-0.1,0.1-0.3,0.1-0.4,0.1c-0.4-0.1-0.7-0.4-0.6-0.9l0.3-2c0-0.4,0.4-0.7,0.8-0.7
					c0.4,0,0.7,0.4,0.7,0.8c0,0,0,0.1,0,0.1l-0.3,2C107.3,111.5,107.2,111.8,106.9,111.9z"/>
				<path class="st5" d="M94,103.5l-2.2,1c-0.4,0.2-0.8,0-1-0.4c-0.2-0.4,0-0.8,0.4-1c0,0,0,0,0,0l2.2-1c0.4-0.2,0.8,0,1,0.4
					C94.6,102.8,94.4,103.3,94,103.5z"/>
				<path class="st5" d="M94.2,98.8c-0.1,0.1-0.3,0.1-0.4,0.1l-2-0.3c-0.4,0-0.7-0.4-0.7-0.8c0-0.4,0.4-0.7,0.8-0.7c0,0,0.1,0,0.1,0
					l2,0.3c0.4,0.1,0.7,0.4,0.6,0.9C94.6,98.5,94.4,98.7,94.2,98.8L94.2,98.8z"/>
				<path class="st5" d="M96.6,108.1c-0.4,0.2-0.8,0-1-0.4c-0.1-0.2-0.1-0.5,0-0.7l1.1-1.7c0.2-0.4,0.7-0.5,1-0.3
					c0.4,0.2,0.5,0.7,0.3,1c0,0,0,0,0,0.1l-1.1,1.7C96.8,107.9,96.7,108,96.6,108.1z"/>
				<path class="st5" d="M120.6,91.1l-2.2,1c-0.4,0.2-0.8,0-1-0.4s0-0.8,0.4-1c0,0,0,0,0,0l2.2-1c0.4-0.2,0.8,0,1,0.4
					C121.1,90.5,120.9,90.9,120.6,91.1z"/>
				<path class="st5" d="M114.7,89.2c-0.2,0.1-0.5,0.1-0.7,0c-0.3-0.2-0.5-0.7-0.2-1l1.1-1.7c0.2-0.4,0.7-0.5,1-0.3
					c0.4,0.2,0.5,0.7,0.3,1c0,0,0,0,0,0.1L115,89C114.9,89.1,114.8,89.2,114.7,89.2z"/>
				<path class="st5" d="M120.3,97.1c-0.1,0.1-0.3,0.1-0.4,0.1l-2-0.3c-0.4,0-0.7-0.4-0.7-0.8c0-0.4,0.4-0.7,0.8-0.7
					c0,0,0.1,0,0.1,0l2.1,0.3c0.4,0.1,0.7,0.4,0.6,0.9C120.7,96.7,120.5,97,120.3,97.1L120.3,97.1z"/>
			</g>
			<circle class="st0" cx="197.7" cy="93" r="22.7"/>
			<circle class="st1" cx="197.7" cy="93" r="18.4"/>
			<circle class="st2" cx="197.7" cy="93" r="3.7"/>
			<polygon class="st0" points="206.2,74.1 203.4,73 196.8,91.1 178.8,84.5 177.7,87.4 195.8,93.9 189.2,112 192.1,113 198.6,95 
				216.7,101.5 217.7,98.7 199.7,92.1 			"/>
			<path class="st3" d="M192.4,81.6c-0.4,0.2-0.8,0-1-0.4v0l-1-2.2c-0.2-0.4,0-0.8,0.4-1s0.8,0,1,0.4l0,0l1,2.2
				C192.9,80.9,192.8,81.4,192.4,81.6L192.4,81.6z"/>
			<path class="st3" d="M197,81.7c-0.1,0.1-0.3,0.1-0.4,0.1c-0.4-0.1-0.7-0.4-0.6-0.9l0.3-2c0-0.4,0.4-0.7,0.8-0.7
				c0.4,0,0.7,0.4,0.7,0.8c0,0,0,0.1,0,0.1l-0.3,2C197.4,81.4,197.3,81.6,197,81.7z"/>
			<path class="st3" d="M189.5,85.2c-0.2,0.1-0.5,0.1-0.7,0l-1.7-1.1c-0.4-0.2-0.5-0.7-0.2-1c0.2-0.4,0.7-0.5,1-0.2l1.7,1.1
				c0.4,0.2,0.5,0.7,0.2,1C189.7,85.1,189.6,85.2,189.5,85.2z"/>
			<path class="st3" d="M204.7,108.1c-0.4,0.2-0.8,0-1-0.4l0,0l-1-2.2c-0.2-0.4,0-0.8,0.4-1c0.4-0.2,0.8,0,1,0.4l1,2.2
				C205.3,107.5,205.1,107.9,204.7,108.1L204.7,108.1z"/>
			<path class="st3" d="M208.4,103.3c-0.2,0.1-0.5,0.1-0.7,0l-1.7-1.1c-0.4-0.2-0.5-0.7-0.2-1c0,0,0,0,0,0c0.2-0.4,0.7-0.5,1-0.2
				c0,0,0,0,0,0l1.7,1.1c0.4,0.2,0.5,0.7,0.2,1c0,0,0,0,0,0C208.6,103.2,208.5,103.3,208.4,103.3z"/>
			<path class="st3" d="M198.8,107.8c-0.4,0.2-0.8,0-1-0.4c-0.1-0.1-0.1-0.3-0.1-0.4l0.3-2c0.1-0.4,0.4-0.7,0.8-0.7
				c0.4,0.1,0.7,0.4,0.7,0.8l0,0l-0.3,2C199.2,107.5,199,107.7,198.8,107.8z"/>
			<path class="st3" d="M185.9,99.4l-2.2,1c-0.4,0.2-0.8,0-1-0.4s0-0.8,0.4-1l0,0l2.2-1c0.4-0.2,0.8,0,1,0.4S186.3,99.2,185.9,99.4z
				"/>
			<path class="st3" d="M186,94.7c-0.1,0.1-0.3,0.1-0.4,0.1l-2-0.3c-0.4-0.1-0.7-0.5-0.6-0.9c0.1-0.4,0.4-0.6,0.8-0.6l2,0.3
				c0.4,0.1,0.7,0.4,0.6,0.9C186.4,94.4,186.2,94.6,186,94.7L186,94.7z"/>
			<path class="st3" d="M188.4,104c-0.4,0.2-0.8,0-1-0.4c-0.1-0.2-0.1-0.5,0-0.7l1.1-1.7c0.2-0.4,0.7-0.5,1-0.2
				c0.4,0.2,0.5,0.7,0.2,1l-1.1,1.7C188.7,103.9,188.6,104,188.4,104z"/>
			<path class="st3" d="M212.4,87l-2.2,1c-0.4,0.2-0.8,0-1-0.4c-0.2-0.4,0-0.8,0.4-1l0,0l2.2-1c0.4-0.2,0.8,0,1,0.4
				S212.8,86.8,212.4,87z"/>
			<path class="st3" d="M206.6,85.1c-0.2,0.1-0.5,0.1-0.7,0c-0.4-0.2-0.5-0.7-0.2-1c0,0,0,0,0,0l1.1-1.7c0.2-0.4,0.7-0.5,1-0.2
				c0.4,0.2,0.5,0.7,0.2,1c0,0,0,0,0,0l-1.1,1.7C206.8,85,206.7,85.1,206.6,85.1z"/>
			<path class="st3" d="M212.1,93c-0.1,0.1-0.3,0.1-0.4,0.1l-2-0.3c-0.4-0.1-0.7-0.4-0.6-0.9c0.1-0.4,0.4-0.7,0.9-0.6l0,0l2,0.3
				c0.4,0.1,0.7,0.4,0.6,0.9C212.5,92.7,212.3,92.9,212.1,93z"/>
			<g class="st4">
				<circle class="st5" cx="202.2" cy="94.7" r="22.7"/>
				<circle class="st5" cx="202.2" cy="94.7" r="18.4"/>
				<circle class="st5" cx="202.2" cy="94.7" r="3.7"/>
				<polygon class="st5" points="210.7,75.7 207.9,74.7 201.3,92.7 183.3,86.2 182.3,89 200.3,95.6 193.7,113.6 196.6,114.7 
					203.1,96.6 221.2,103.2 222.2,100.3 204.2,93.8 				"/>
				<path class="st5" d="M196.9,83.2c-0.4,0.2-0.8,0-1-0.3c0,0,0,0,0,0l-1-2.2c-0.2-0.4,0-0.8,0.4-1s0.8,0,1,0.4l1,2.2
					C197.4,82.6,197.3,83,196.9,83.2C196.9,83.2,196.9,83.2,196.9,83.2z"/>
				<path class="st5" d="M201.6,83.3c-0.1,0.1-0.3,0.1-0.4,0.1c-0.4-0.1-0.7-0.4-0.6-0.9l0.3-2c0.1-0.4,0.4-0.7,0.9-0.6
					c0.4,0.1,0.7,0.4,0.6,0.9l-0.3,2.1C202,83,201.8,83.2,201.6,83.3z"/>
				<path class="st5" d="M194,86.9c-0.2,0.1-0.5,0.1-0.7,0l-1.7-1.1c-0.4-0.2-0.5-0.7-0.2-1c0.2-0.4,0.7-0.5,1-0.2l1.7,1.1
					c0.3,0.2,0.5,0.7,0.2,1C194.2,86.7,194.1,86.8,194,86.9z"/>
				<path class="st5" d="M209.3,109.7c-0.4,0.2-0.8,0-1-0.4l0,0l-1-2.2c-0.2-0.4,0-0.8,0.4-1s0.8,0,1,0.4l1,2.2
					C209.8,109.1,209.6,109.6,209.3,109.7L209.3,109.7z"/>
				<path class="st5" d="M212.9,105c-0.2,0.1-0.5,0.1-0.7,0l-1.7-1.1c-0.4-0.2-0.5-0.7-0.2-1s0.7-0.5,1-0.2l0,0l1.7,1.1
					c0.4,0.2,0.5,0.7,0.2,1c0,0,0,0,0,0C213.1,104.8,213,104.9,212.9,105z"/>
				<path class="st5" d="M203.3,109.4c-0.1,0.1-0.3,0.1-0.4,0.1c-0.4-0.1-0.7-0.4-0.6-0.8c0,0,0,0,0,0l0.3-2
					c0.1-0.4,0.4-0.7,0.9-0.6s0.7,0.4,0.6,0.9l0,0l-0.3,2C203.7,109.1,203.5,109.3,203.3,109.4z"/>
				<path class="st5" d="M190.4,101l-2.2,1c-0.4,0.2-0.8,0.1-1-0.3c-0.2-0.4-0.1-0.8,0.3-1c0,0,0.1-0.1,0.2-0.1l2.2-1
					c0.4-0.2,0.8-0.1,1,0.3c0.2,0.4,0.1,0.8-0.3,1C190.5,101,190.5,101,190.4,101z"/>
				<path class="st5" d="M190.5,96.4c-0.1,0.1-0.3,0.1-0.4,0.1l-2-0.3c-0.4,0-0.7-0.4-0.7-0.8c0-0.4,0.4-0.7,0.8-0.7
					c0,0,0.1,0,0.1,0l2,0.3c0.4,0.1,0.7,0.4,0.6,0.9C190.9,96,190.7,96.3,190.5,96.4L190.5,96.4z"/>
				<path class="st5" d="M193,105.7c-0.4,0.2-0.8,0-1-0.4c-0.1-0.2-0.1-0.5,0-0.7l1.1-1.7c0.3-0.3,0.7-0.4,1.1-0.1
					c0.3,0.2,0.4,0.6,0.2,0.9l-1.1,1.7C193.2,105.5,193.1,105.6,193,105.7z"/>
				<path class="st5" d="M216.9,88.7l-2.2,1c-0.4,0.2-0.8,0.1-1-0.3c-0.2-0.4-0.1-0.8,0.3-1c0,0,0.1-0.1,0.2-0.1l2.2-1
					c0.4-0.2,0.8-0.1,1,0.3c0.2,0.4,0.1,0.8-0.3,1C217,88.6,217,88.6,216.9,88.7z"/>
				<path class="st5" d="M211.1,86.8c-0.4,0.2-0.8,0-1-0.4c-0.1-0.2-0.1-0.5,0-0.7l1.1-1.7c0.2-0.3,0.7-0.4,1.1-0.2
					c0.3,0.2,0.4,0.6,0.2,1l-1.1,1.7C211.3,86.6,211.2,86.7,211.1,86.8z"/>
				<path class="st5" d="M216.6,94.6c-0.1,0.1-0.3,0.1-0.4,0.1l-2-0.3c-0.4-0.1-0.7-0.4-0.6-0.8c0,0,0,0,0,0
					c0.1-0.4,0.4-0.7,0.8-0.6c0,0,0,0,0,0l2,0.3c0.4,0.1,0.7,0.4,0.6,0.9C217,94.3,216.9,94.5,216.6,94.6L216.6,94.6z"/>
			</g>
			<circle class="st0" cx="112.5" cy="170.3" r="22.7"/>
			<circle class="st1" cx="112.5" cy="170.3" r="18.4"/>
			<circle class="st2" cx="112.5" cy="170.3" r="3.7"/>
			<polygon class="st0" points="121,151.3 118.2,150.3 111.6,168.3 93.5,161.8 92.5,164.6 110.6,171.2 104,189.2 106.8,190.3 
				113.4,172.2 131.4,178.8 132.5,175.9 114.4,169.4 			"/>
			<path class="st3" d="M107.1,158.8c-0.4,0.2-0.8,0-1-0.4l0,0l-1-2.2c-0.2-0.4,0-0.8,0.4-1c0.4-0.2,0.8,0,1,0.4l1,2.2
				C107.7,158.2,107.5,158.6,107.1,158.8z"/>
			<path class="st3" d="M111.8,158.9c-0.1,0.1-0.3,0.1-0.4,0.1c-0.4-0.1-0.7-0.4-0.6-0.8c0,0,0,0,0,0l0.3-2c0-0.4,0.4-0.7,0.8-0.7
				c0.4,0,0.7,0.4,0.7,0.8c0,0,0,0.1,0,0.1l-0.3,2C112.2,158.6,112,158.8,111.8,158.9z"/>
			<path class="st3" d="M104.2,162.5c-0.2,0.1-0.5,0.1-0.7,0l-1.7-1.1c-0.4-0.2-0.5-0.7-0.2-1c0,0,0,0,0,0c0.2-0.4,0.7-0.5,1-0.2
				l1.7,1.1c0.4,0.2,0.5,0.7,0.2,1c0,0,0,0,0,0C104.5,162.3,104.4,162.4,104.2,162.5z"/>
			<path class="st3" d="M119.5,185.3c-0.4,0.2-0.8,0-1-0.4l0,0l-1-2.2c-0.2-0.4,0-0.8,0.4-1c0.4-0.2,0.8,0,1,0.4c0,0,0,0,0,0l1,2.2
				C120.1,184.7,119.9,185.2,119.5,185.3z"/>
			<path class="st3" d="M123.1,180.6c-0.2,0.1-0.5,0.1-0.7,0l-1.7-1.1c-0.4-0.2-0.5-0.7-0.2-1c0.2-0.4,0.7-0.5,1-0.2c0,0,0,0,0,0
				l1.7,1.1c0.4,0.2,0.5,0.7,0.2,1C123.4,180.4,123.2,180.5,123.1,180.6z"/>
			<path class="st3" d="M113.5,185c-0.1,0.1-0.3,0.1-0.4,0.1c-0.4-0.1-0.7-0.4-0.6-0.9c0,0,0,0,0,0l0.3-2c0.1-0.4,0.4-0.7,0.8-0.6
				c0,0,0,0,0,0c0.4,0.1,0.7,0.4,0.6,0.9l-0.3,2C113.9,184.7,113.8,184.9,113.5,185z"/>
			<path class="st3" d="M100.6,176.6l-2.2,1c-0.4,0.2-0.8,0-1-0.4c-0.2-0.4,0-0.8,0.4-1l0,0l2.2-1c0.4-0.2,0.8,0,1,0.4
				C101.2,176,101,176.5,100.6,176.6z"/>
			<path class="st3" d="M100.8,172c-0.1,0.1-0.3,0.1-0.4,0.1l-2-0.2c-0.4-0.1-0.7-0.4-0.6-0.8c0,0,0,0,0,0c0.1-0.4,0.4-0.7,0.9-0.6
				l2,0.3c0.4,0.1,0.7,0.4,0.6,0.8C101.2,171.6,101,171.9,100.8,172z"/>
			<path class="st3" d="M103.2,181.3c-0.4,0.2-0.8,0-1-0.4c-0.1-0.2-0.1-0.5,0-0.7l1.1-1.7c0.2-0.3,0.7-0.4,1.1-0.2
				c0.3,0.2,0.4,0.6,0.2,1l-1.1,1.7C103.5,181.1,103.4,181.2,103.2,181.3z"/>
			<path class="st3" d="M127.2,164.3l-2.2,1c-0.4,0.2-0.8,0-1-0.4s0-0.8,0.4-1l2.2-1c0.4-0.2,0.8,0,1,0.4
				C127.7,163.6,127.6,164.1,127.2,164.3z"/>
			<path class="st3" d="M121.3,162.4c-0.4,0.2-0.8,0-1-0.3c-0.1-0.2-0.1-0.5,0-0.7l1.1-1.7c0.2-0.4,0.7-0.5,1.1-0.2
				c0.4,0.2,0.5,0.7,0.2,1.1l-1.1,1.7C121.6,162.3,121.4,162.3,121.3,162.4z"/>
			<path class="st3" d="M126.9,170.2c-0.1,0.1-0.3,0.1-0.4,0.1l-2-0.3c-0.4,0-0.7-0.4-0.7-0.8c0-0.4,0.4-0.7,0.8-0.7
				c0,0,0.1,0,0.1,0l2,0.3c0.4,0.1,0.7,0.4,0.6,0.8c0,0,0,0,0,0C127.3,169.9,127.1,170.1,126.9,170.2z"/>
			<g class="st4">
				<circle class="st5" cx="117" cy="171.9" r="22.7"/>
				<circle class="st5" cx="117" cy="171.9" r="18.4"/>
				<circle class="st5" cx="117" cy="171.9" r="3.7"/>
				<polygon class="st5" points="125.5,153 122.7,151.9 116.1,170 98.1,163.4 97,166.3 115.1,172.8 108.5,190.9 111.3,191.9 
					117.9,173.9 136,180.4 137,177.6 118.9,171 				"/>
				<path class="st5" d="M111.7,160.4c-0.4,0.2-0.8,0-1-0.4l0,0l-1-2.2c-0.2-0.4,0-0.8,0.4-1c0.4-0.2,0.8,0,1,0.4l1,2.2
					C112.2,159.8,112,160.3,111.7,160.4z"/>
				<path class="st5" d="M116.3,160.6c-0.1,0.1-0.3,0.1-0.4,0.1c-0.4-0.1-0.7-0.4-0.6-0.8c0,0,0,0,0,0l0.3-2c0-0.4,0.4-0.7,0.8-0.7
					c0,0,0,0,0.1,0c0.4,0.1,0.7,0.4,0.6,0.8c0,0,0,0,0,0l-0.3,2.1C116.7,160.2,116.5,160.5,116.3,160.6z"/>
				<path class="st5" d="M108.8,164.1c-0.2,0.1-0.5,0.1-0.7,0l-1.7-1.1c-0.4-0.2-0.5-0.7-0.2-1c0.2-0.4,0.7-0.5,1-0.2l0,0l1.7,1.1
					c0.4,0.2,0.5,0.7,0.2,1C109,163.9,108.9,164,108.8,164.1z"/>
				<path class="st5" d="M124,187c-0.4,0.2-0.8,0-1-0.4l0,0l-1-2.2c-0.2-0.4,0-0.8,0.4-1c0.4-0.2,0.8,0,1,0.4c0,0,0,0,0,0l1,2.2
					C124.6,186.4,124.4,186.8,124,187z"/>
				<path class="st5" d="M127.6,182.2c-0.2,0.1-0.5,0.1-0.7,0l-1.7-1.1c-0.4-0.2-0.5-0.6-0.4-1c0.2-0.4,0.6-0.5,1-0.4
					c0,0,0.1,0,0.1,0.1l1.7,1.1c0.4,0.2,0.5,0.6,0.4,1c0,0,0,0.1,0,0.1C127.9,182.1,127.8,182.2,127.6,182.2z"/>
				<path class="st5" d="M118,186.7c-0.4,0.2-0.8,0-1-0.4c-0.1-0.1-0.1-0.3-0.1-0.4l0.3-2.1c0.1-0.4,0.4-0.7,0.9-0.6
					c0.4,0.1,0.7,0.4,0.6,0.9l0,0l-0.3,2.1C118.4,186.4,118.3,186.6,118,186.7z"/>
				<path class="st5" d="M105.2,178.3l-2.2,1c-0.4,0.2-0.8,0-1-0.4c-0.2-0.4,0-0.8,0.4-1l2.2-1c0.4-0.2,0.8,0,1,0.4
					S105.5,178.1,105.2,178.3z"/>
				<path class="st5" d="M105.3,173.6c-0.1,0.1-0.3,0.1-0.4,0.1l-2-0.3c-0.4-0.1-0.7-0.4-0.6-0.9c0.1-0.4,0.4-0.7,0.8-0.6
					c0,0,0,0,0,0l2,0.3c0.4,0.1,0.7,0.4,0.6,0.9C105.7,173.3,105.6,173.5,105.3,173.6z"/>
				<path class="st5" d="M107.7,182.9c-0.2,0.1-0.5,0.1-0.7,0c-0.4-0.2-0.5-0.7-0.2-1l1.1-1.7c0.2-0.4,0.7-0.5,1-0.2
					c0.4,0.2,0.5,0.7,0.2,1l0,0l-1.1,1.7C108,182.8,107.9,182.9,107.7,182.9z"/>
				<path class="st5" d="M131.7,165.9l-2.2,1c-0.4,0.2-0.8,0-1-0.4c-0.2-0.4,0-0.8,0.4-1l2.2-1c0.4-0.2,0.8,0,1,0.4
					C132.2,165.3,132.1,165.7,131.7,165.9z"/>
				<path class="st5" d="M125.8,164c-0.4,0.2-0.8,0-1-0.4c-0.1-0.2-0.1-0.5,0-0.7l1.1-1.7c0.2-0.4,0.7-0.5,1-0.2
					c0.4,0.2,0.5,0.7,0.2,1l-1.1,1.7C126.1,163.9,126,164,125.8,164z"/>
				<path class="st5" d="M131.4,171.9c-0.1,0.1-0.3,0.1-0.4,0.1l-2-0.3c-0.4-0.1-0.7-0.4-0.6-0.8c0,0,0,0,0,0
					c0.1-0.4,0.4-0.7,0.9-0.6l2,0.3c0.4,0,0.7,0.4,0.7,0.8C131.8,171.5,131.6,171.8,131.4,171.9L131.4,171.9z"/>
			</g>
			<circle class="st0" cx="64.3" cy="42.8" r="22.7"/>
			<circle class="st1" cx="64.3" cy="42.8" r="18.4"/>
			<circle class="st2" cx="64.3" cy="42.8" r="3.7"/>
			<polygon class="st0" points="72.8,23.8 69.9,22.8 63.4,40.8 45.3,34.2 44.3,37.1 62.3,43.7 55.8,61.7 58.6,62.7 65.2,44.7 
				83.2,51.3 84.3,48.4 66.2,41.9 			"/>
			<path class="st3" d="M58.9,31.3c-0.4,0.2-0.8,0-1-0.4c0,0,0,0,0,0l-1-2.2c-0.2-0.4,0-0.8,0.4-1c0.4-0.2,0.8,0,1,0.4l1,2.2
				C59.5,30.7,59.3,31.1,58.9,31.3z"/>
			<path class="st3" d="M63.6,31.4c-0.1,0.1-0.3,0.1-0.4,0.1c-0.4-0.1-0.7-0.4-0.6-0.8c0,0,0,0,0,0l0.3-2c0.1-0.4,0.4-0.7,0.8-0.6
				c0,0,0,0,0,0c0.4,0.1,0.7,0.4,0.6,0.8c0,0,0,0,0,0l-0.3,2C64,31.1,63.8,31.3,63.6,31.4z"/>
			<path class="st3" d="M56,34.9c-0.2,0.1-0.5,0.1-0.7,0l-1.7-1.1c-0.4-0.2-0.5-0.6-0.3-1s0.6-0.5,1-0.3c0,0,0.1,0,0.1,0.1l1.7,1.1
				c0.4,0.2,0.5,0.7,0.2,1c0,0,0,0,0,0C56.3,34.8,56.2,34.9,56,34.9z"/>
			<path class="st3" d="M71.3,57.8c-0.4,0.2-0.8,0-1-0.4c0,0,0,0,0,0l-1-2.2c-0.2-0.4,0-0.8,0.4-1c0.4-0.2,0.8,0,1,0.4c0,0,0,0,0,0
				l1,2.2C71.8,57.2,71.7,57.6,71.3,57.8z"/>
			<path class="st3" d="M74.9,53c-0.2,0.1-0.5,0.1-0.7,0l-1.7-1.1c-0.4-0.2-0.5-0.7-0.2-1c0.2-0.4,0.7-0.5,1-0.2c0,0,0,0,0,0
				l1.7,1.1c0.4,0.2,0.5,0.7,0.2,1c0,0,0,0,0,0C75.1,52.9,75,53,74.9,53z"/>
			<path class="st3" d="M65.3,57.5c-0.1,0.1-0.3,0.1-0.4,0.1c-0.4-0.1-0.7-0.4-0.6-0.9l0.3-2c0-0.4,0.4-0.7,0.8-0.7
				c0.4,0,0.7,0.4,0.7,0.8c0,0,0,0.1,0,0.1l-0.3,2C65.7,57.2,65.6,57.4,65.3,57.5z"/>
			<path class="st3" d="M52.4,49.1l-2.2,1c-0.4,0.2-0.8,0-1-0.4c-0.2-0.4,0-0.8,0.4-1l0,0l2.2-1c0.4-0.2,0.8,0,1,0.4
				S52.8,48.9,52.4,49.1z"/>
			<path class="st3" d="M52.6,44.5c-0.1,0.1-0.3,0.1-0.4,0.1l-2-0.3c-0.4-0.1-0.7-0.4-0.6-0.8c0.1-0.4,0.4-0.7,0.9-0.6l2,0.3
				c0.4,0,0.7,0.4,0.7,0.8C53,44.2,52.8,44.4,52.6,44.5L52.6,44.5z"/>
			<path class="st3" d="M55,53.8c-0.2,0.1-0.5,0.1-0.7,0c-0.4-0.2-0.5-0.7-0.2-1c0,0,0,0,0,0l1.1-1.7c0.2-0.4,0.7-0.5,1-0.3
				c0.4,0.2,0.5,0.7,0.3,1c0,0,0,0,0,0.1l-1.1,1.7C55.2,53.6,55.1,53.7,55,53.8z"/>
			<path class="st3" d="M79,36.7l-2.2,1c-0.4,0.2-0.8,0-1-0.4s0-0.8,0.4-1l2.2-1c0.4-0.2,0.8,0,1,0.4C79.5,36.1,79.3,36.6,79,36.7z"
				/>
			<path class="st3" d="M73.1,34.9c-0.2,0.1-0.5,0.1-0.7,0c-0.4-0.2-0.5-0.7-0.2-1c0,0,0,0,0,0l1.1-1.7c0.2-0.3,0.7-0.5,1-0.2
				c0.4,0.2,0.5,0.7,0.2,1c0,0,0,0,0,0l-1.1,1.7C73.3,34.7,73.2,34.8,73.1,34.9z"/>
			<path class="st3" d="M78.7,42.7c-0.1,0.1-0.3,0.1-0.4,0.1l-2-0.3c-0.4-0.1-0.7-0.5-0.6-0.9c0.1-0.4,0.4-0.6,0.8-0.6l2,0.3
				c0.4,0.1,0.7,0.4,0.6,0.9C79.1,42.4,78.9,42.6,78.7,42.7z"/>
			<g class="st4">
				<circle class="st5" cx="68.8" cy="44.4" r="22.7"/>
				<circle class="st5" cx="68.8" cy="44.4" r="18.4"/>
				<circle class="st5" cx="68.8" cy="44.4" r="3.7"/>
				<polygon class="st5" points="77.3,25.4 74.5,24.4 67.9,42.5 49.8,35.9 48.8,38.7 66.9,45.3 60.3,63.4 63.1,64.4 69.7,46.3 
					87.7,52.9 88.8,50.1 70.7,43.5 				"/>
				<path class="st5" d="M63.4,32.9c-0.4,0.2-0.8,0-1-0.4c0,0,0,0,0,0l-1-2.2c-0.2-0.4,0-0.8,0.4-1c0.4-0.2,0.8,0,1,0.4c0,0,0,0,0,0
					l1,2.2C64,32.3,63.8,32.8,63.4,32.9z"/>
				<path class="st5" d="M68.1,33.1c-0.1,0.1-0.3,0.1-0.4,0.1c-0.4-0.1-0.7-0.4-0.6-0.8c0,0,0,0,0,0l0.3-2c0.1-0.4,0.4-0.7,0.8-0.6
					c0,0,0,0,0,0c0.4,0.1,0.7,0.4,0.6,0.8c0,0,0,0,0,0l-0.3,2C68.5,32.7,68.3,32.9,68.1,33.1z"/>
				<path class="st5" d="M60.5,36.6c-0.2,0.1-0.5,0.1-0.7,0l-1.7-1.1c-0.4-0.2-0.5-0.6-0.3-1c0.2-0.4,0.6-0.5,1-0.3
					c0,0,0.1,0,0.1,0.1l1.7,1.1c0.4,0.2,0.5,0.7,0.2,1c0,0,0,0,0,0C60.8,36.4,60.7,36.5,60.5,36.6z"/>
				<path class="st5" d="M75.8,59.5c-0.4,0.2-0.8,0-1-0.4c0,0,0,0,0,0l-1-2.2c-0.2-0.4,0-0.8,0.4-1c0.4-0.2,0.8,0,1,0.4c0,0,0,0,0,0
					l1,2.2C76.4,58.8,76.2,59.3,75.8,59.5z"/>
				<path class="st5" d="M79.4,54.7c-0.2,0.1-0.5,0.1-0.7,0L77,53.5c-0.4-0.2-0.5-0.7-0.2-1c0,0,0,0,0,0c0.2-0.4,0.7-0.5,1-0.2
					c0,0,0,0,0,0l1.8,1.1c0.4,0.2,0.5,0.7,0.2,1c0,0,0,0,0,0C79.7,54.5,79.6,54.6,79.4,54.7z"/>
				<path class="st5" d="M69.8,59.2c-0.1,0.1-0.3,0.1-0.4,0.1c-0.4-0.1-0.7-0.4-0.6-0.8c0,0,0,0,0,0l0.3-2c0.1-0.4,0.4-0.7,0.8-0.6
					c0,0,0,0,0,0c0.4,0.1,0.7,0.4,0.7,0.8l-0.3,2C70.2,58.8,70.1,59,69.8,59.2z"/>
				<path class="st5" d="M57,50.8l-2.2,1c-0.4,0.2-0.8,0-1-0.4c-0.2-0.4,0-0.8,0.4-1l2.2-1c0.4-0.2,0.8,0,1,0.4S57.4,50.6,57,50.8
					L57,50.8z"/>
				<path class="st5" d="M57.1,46.1c-0.1,0.1-0.3,0.1-0.4,0.1l-2-0.3c-0.4-0.1-0.7-0.4-0.6-0.9c0.1-0.4,0.4-0.7,0.9-0.6l0,0l2,0.3
					c0.4,0.1,0.7,0.4,0.6,0.9C57.5,45.8,57.3,46,57.1,46.1z"/>
				<path class="st5" d="M59.5,55.4c-0.2,0.1-0.5,0.1-0.7,0c-0.4-0.2-0.5-0.7-0.2-1l1.1-1.7c0.2-0.4,0.7-0.5,1-0.2c0,0,0,0,0,0
					c0.4,0.2,0.5,0.7,0.2,1c0,0,0,0,0,0l-1.1,1.7C59.8,55.3,59.7,55.4,59.5,55.4z"/>
				<path class="st5" d="M83.5,38.4l-2.2,1c-0.4,0.2-0.8,0-1-0.4c-0.2-0.4,0-0.8,0.4-1l2.2-1c0.4-0.2,0.8,0,1,0.4
					S83.9,38.2,83.5,38.4z"/>
				<path class="st5" d="M77.6,36.5c-0.2,0.1-0.5,0.1-0.7,0c-0.4-0.2-0.5-0.7-0.2-1l1.1-1.7c0.2-0.4,0.7-0.5,1-0.2
					c0.4,0.2,0.5,0.7,0.2,1l0,0L78,36.3C77.9,36.4,77.8,36.5,77.6,36.5z"/>
				<path class="st5" d="M83.2,44.4c-0.1,0.1-0.3,0.1-0.4,0.1l-2-0.3c-0.4,0-0.7-0.4-0.7-0.8c0-0.4,0.4-0.7,0.8-0.7c0,0,0.1,0,0.1,0
					l2,0.3c0.4,0,0.7,0.4,0.7,0.8C83.6,44,83.4,44.3,83.2,44.4L83.2,44.4z"/>
			</g>
		</g>
	</g>
</g>
</svg>
