<?xml version="1.0" encoding="utf-8"?>
<!-- Generator: Adobe Illustrator 27.7.0, SVG Export Plug-In . SVG Version: 6.00 Build 0)  -->
<svg version="1.1" id="Layer_1" xmlns="http://www.w3.org/2000/svg" xmlns:xlink="http://www.w3.org/1999/xlink" x="0px" y="0px"
	 viewBox="0 0 257 257" style="enable-background:new 0 0 257 257;" xml:space="preserve">
<style type="text/css">
	.st0{fill:#33221E;}
	.st1{opacity:0.2;}
	.st2{fill:#534741;}
	.st3{opacity:0.1;fill:#534741;enable-background:new    ;}
	.st4{opacity:0.7;fill:#534741;enable-background:new    ;}
	.st5{opacity:0.5;fill:#534741;enable-background:new    ;}
	.st6{fill:#F2F4EF;}
	.st7{fill:#EAD4B1;}
	.st8{opacity:0.1;}
	.st9{fill:#D1AA5A;}
	.st10{fill:#F2CB6B;}
	.st11{fill:#DDB55B;}
	.st12{fill:#E6EAE1;}
	.st13{fill:#3F2500;}
	.st14{opacity:0.5;fill:#BC8F48;enable-background:new    ;}
	.st15{fill:#996C42;}
</style>
<g>
	<g id="Layer_2_1_">
		<g id="Layer_1-2">
			<ellipse class="st0" cx="127.3" cy="128.4" rx="129.7" ry="128.5"/>
			<g class="st1">
				<circle class="st2" cx="94.3" cy="143.2" r="57.6"/>
				<circle class="st2" cx="94.3" cy="143.2" r="40.4"/>
				<path class="st3" d="M80.7,109.4l50.6,18.4c1.4,0.5,2.2,2.1,1.6,3.5L114.6,182c-0.5,1.4-2.1,2.2-3.5,1.6l-50.6-18.4
					c-1.4-0.5-2.2-2.1-1.6-3.5l18.4-50.6C77.7,109.6,79.3,108.8,80.7,109.4z"/>
				<path class="st2" d="M79.5,106.9l50.6,18.4c1.4,0.5,2.2,2.1,1.6,3.5l-18.4,50.6c-0.5,1.4-2.1,2.2-3.5,1.6l-50.6-18.4
					c-1.4-0.5-2.2-2.1-1.6-3.5L76,108.5C76.5,107,78.1,106.3,79.5,106.9z"/>
				<path class="st2" d="M60.6,158.2l17.1-47.1c0.4-1.1,1.6-1.7,2.7-1.2l47.1,17.1c1.1,0.4,1.7,1.6,1.2,2.7l-17.1,47.1
					c-0.4,1.1-1.6,1.7-2.7,1.2l-47.1-17.1C60.8,160.4,60.3,159.2,60.6,158.2z"/>
				<path class="st2" d="M63.8,158l3.1-8.6c0.1-0.3,0.3-0.3,0.5-0.2l8.6,3.1c0.3,0.1,0.3,0.3,0.2,0.5l-3.1,8.6
					c-0.1,0.3-0.3,0.3-0.5,0.2l-8.6-3.1C63.8,158.4,63.7,158.3,63.8,158z"/>
				<path class="st2" d="M68.2,146l3.1-8.6c0.1-0.3,0.3-0.3,0.5-0.2l8.6,3.1c0.3,0.1,0.3,0.3,0.2,0.5l-3.1,8.6
					c-0.1,0.3-0.3,0.3-0.5,0.2l-8.6-3.1C68.2,146.4,68.1,146.2,68.2,146z"/>
				<path class="st2" d="M72.6,133.9l3.1-8.6c0.1-0.3,0.3-0.3,0.5-0.2l8.6,3.1c0.3,0.1,0.3,0.3,0.2,0.5l-3.1,8.6
					c-0.1,0.3-0.3,0.3-0.5,0.2l-8.6-3.1C72.6,134.3,72.5,134.1,72.6,133.9z"/>
				<path class="st2" d="M77,121.9l3.1-8.6c0.1-0.3,0.3-0.3,0.5-0.2l8.6,3.1c0.3,0.1,0.3,0.3,0.2,0.5l-3.1,8.6
					c-0.1,0.3-0.3,0.3-0.5,0.2l-8.6-3.1C77,122.3,76.9,122,77,121.9z"/>
				<path class="st2" d="M75.9,162.4l3.1-8.6c0.1-0.3,0.3-0.3,0.5-0.2l8.6,3.1c0.3,0.1,0.3,0.3,0.2,0.5l-3.1,8.6
					c-0.1,0.3-0.3,0.3-0.5,0.2l-8.6-3.1C75.9,162.9,75.8,162.6,75.9,162.4z"/>
				<path class="st2" d="M80.2,150.4l3.1-8.6c0.1-0.3,0.3-0.3,0.5-0.2l8.6,3.1c0.3,0.1,0.3,0.3,0.2,0.5l-3.1,8.6
					c-0.1,0.3-0.3,0.3-0.5,0.2l-8.6-3.1C80.3,150.7,80.2,150.6,80.2,150.4z"/>
				<path class="st2" d="M84.7,138.3l3.1-8.6c0.1-0.3,0.3-0.3,0.5-0.2l8.6,3.1c0.3,0.1,0.3,0.3,0.2,0.5l-3.1,8.6
					c-0.1,0.3-0.3,0.3-0.5,0.2l-8.6-3.1C84.7,138.7,84.5,138.5,84.7,138.3z"/>
				<path class="st2" d="M89,126.2l3.1-8.6c0.1-0.3,0.3-0.3,0.5-0.2l8.6,3.1c0.3,0.1,0.3,0.3,0.2,0.5l-3.1,8.6
					c-0.1,0.3-0.3,0.3-0.5,0.2l-8.6-3.1C89.1,126.6,89,126.5,89,126.2z"/>
				<path class="st2" d="M87.9,166.8l3.1-8.6c0.1-0.3,0.3-0.3,0.5-0.2l8.6,3.1c0.3,0.1,0.3,0.3,0.2,0.5l-3.1,8.6
					c-0.1,0.3-0.3,0.3-0.5,0.2l-8.6-3.1C88,167.2,87.9,167,87.9,166.8z"/>
				<path class="st2" d="M92.3,154.8l3.1-8.6c0.1-0.3,0.3-0.3,0.5-0.2l8.6,3.1c0.3,0.1,0.3,0.3,0.2,0.5l-3.1,8.6
					c-0.1,0.3-0.3,0.3-0.5,0.2l-8.6-3.1C92.3,155.2,92.2,154.9,92.3,154.8z"/>
				<path class="st2" d="M96.7,142.7l3.1-8.6c0.1-0.3,0.3-0.3,0.5-0.2l8.6,3.1c0.3,0.1,0.3,0.3,0.2,0.5l-3.1,8.6
					c-0.1,0.3-0.3,0.3-0.5,0.2l-8.6-3.1C96.7,143.1,96.7,142.9,96.7,142.7z"/>
				<path class="st2" d="M101.1,130.6l3.1-8.6c0.1-0.3,0.3-0.3,0.5-0.2l8.6,3.1c0.3,0.1,0.3,0.3,0.2,0.5l-3.1,8.6
					c-0.1,0.3-0.3,0.3-0.5,0.2l-8.6-3.1C101.1,131.1,101,130.8,101.1,130.6z"/>
				<path class="st2" d="M100,171.2l3.1-8.6c0.1-0.3,0.3-0.3,0.5-0.2l8.6,3.1c0.3,0.1,0.3,0.3,0.2,0.5l-3.1,8.6
					c-0.1,0.3-0.3,0.3-0.5,0.2l-8.6-3.1C100,171.6,99.9,171.4,100,171.2z"/>
				<path class="st2" d="M104.3,159.1l3.1-8.6c0.1-0.3,0.3-0.3,0.5-0.2l8.6,3.1c0.3,0.1,0.3,0.3,0.2,0.5l-3.1,8.6
					c-0.1,0.3-0.3,0.3-0.5,0.2l-8.6-3.1C104.4,159.5,104.3,159.3,104.3,159.1z"/>
				<path class="st2" d="M108.8,147.1l3.1-8.6c0.1-0.3,0.3-0.3,0.5-0.2l8.6,3.1c0.3,0.1,0.3,0.3,0.2,0.5l-3.1,8.6
					c-0.1,0.3-0.3,0.3-0.5,0.2l-8.6-3.1C108.8,147.5,108.7,147.3,108.8,147.1z"/>
				<path class="st2" d="M113.1,135l3.1-8.6c0.1-0.3,0.3-0.3,0.5-0.2l8.6,3.1c0.3,0.1,0.3,0.3,0.2,0.5l-3.1,8.6
					c-0.1,0.3-0.3,0.3-0.5,0.2l-8.6-3.1C113.2,135.4,113.1,135.2,113.1,135z"/>
				<path class="st3" d="M111.8,109.1l22.7,48.7c0.6,1.4,0,3-1.3,3.7l-48.8,22.8c-1.4,0.6-3,0-3.7-1.3L58,134.2
					c-0.6-1.4,0-3,1.3-3.7l48.7-22.7C109.4,107.2,111.2,107.7,111.8,109.1z"/>
				<path class="st2" d="M110.7,106.6l22.7,48.7c0.6,1.4,0,3-1.3,3.7l-48.8,22.8c-1.4,0.6-3,0-3.7-1.3l-22.7-48.7
					c-0.6-1.4,0-3,1.3-3.7l48.7-22.7C108.3,104.5,110,105.1,110.7,106.6z"/>
				<path class="st2" d="M60.9,129.5l45.4-21.2c1-0.5,2.3,0,2.8,1l21.2,45.4c0.5,1,0,2.3-1,2.8l-45.4,21.2c-1,0.5-2.3,0-2.8-1
					l-21.2-45.4C59.4,131.3,59.8,130,60.9,129.5z"/>
				<path class="st2" d="M63.2,131.7l8.3-3.9c0.2-0.1,0.4,0,0.5,0.2l3.9,8.3c0.1,0.2,0,0.4-0.2,0.5l-8.3,3.9c-0.2,0.1-0.4,0-0.5-0.2
					l-3.9-8.3C63,132,63,131.7,63.2,131.7z"/>
				<path class="st2" d="M74.8,126.2l8.3-3.9c0.2-0.1,0.4,0,0.5,0.2l3.9,8.3c0.1,0.2,0,0.4-0.2,0.5l-8.3,3.9c-0.2,0.1-0.4,0-0.5-0.2
					l-3.9-8.3C74.6,126.6,74.7,126.3,74.8,126.2z"/>
				<path class="st2" d="M86.6,120.8l8.3-3.9c0.2-0.1,0.4,0,0.5,0.2l3.9,8.3c0.1,0.2,0,0.4-0.2,0.5l-8.3,3.9c-0.2,0.1-0.4,0-0.5-0.2
					l-3.9-8.3C86.3,121.1,86.3,120.9,86.6,120.8z"/>
				<path class="st2" d="M98.2,115.4l8.3-3.9c0.2-0.1,0.4,0,0.5,0.2l3.9,8.3c0.1,0.2,0,0.4-0.2,0.5l-8.3,3.9c-0.2,0.1-0.4,0-0.5-0.2
					l-3.9-8.3C97.9,115.7,97.9,115.5,98.2,115.4z"/>
				<path class="st2" d="M68.6,143.3l8.3-3.9c0.2-0.1,0.4,0,0.5,0.2l3.9,8.3c0.1,0.2,0,0.4-0.2,0.5l-8.3,3.9c-0.2,0.1-0.4,0-0.5-0.2
					l-3.9-8.3C68.4,143.6,68.5,143.4,68.6,143.3z"/>
				<path class="st2" d="M80.3,137.9l8.3-3.9c0.2-0.1,0.4,0,0.5,0.2l3.9,8.3c0.1,0.2,0,0.4-0.2,0.5l-8.3,3.9c-0.2,0.1-0.4,0-0.5-0.2
					l-3.9-8.3C80,138.2,80.1,137.9,80.3,137.9z"/>
				<path class="st2" d="M92,132.4l8.3-3.9c0.2-0.1,0.4,0,0.5,0.2l3.9,8.3c0.1,0.2,0,0.4-0.2,0.5l-8.3,3.9c-0.2,0.1-0.4,0-0.5-0.2
					l-3.9-8.3C91.7,132.7,91.7,132.5,92,132.4z"/>
				<path class="st2" d="M103.6,127l8.3-3.9c0.2-0.1,0.4,0,0.5,0.2l3.9,8.3c0.1,0.2,0,0.4-0.2,0.5l-8.3,3.9c-0.2,0.1-0.4,0-0.5-0.2
					l-3.9-8.3C103.3,127.3,103.3,127.1,103.6,127z"/>
				<path class="st2" d="M74.1,154.9l8.3-3.9c0.2-0.1,0.4,0,0.5,0.2l3.9,8.3c0.1,0.2,0,0.4-0.2,0.5l-8.3,3.9c-0.2,0.1-0.4,0-0.5-0.2
					l-3.9-8.3C73.8,155.2,73.9,155,74.1,154.9z"/>
				<path class="st2" d="M85.7,149.5l8.3-3.9c0.2-0.1,0.4,0,0.5,0.2l3.9,8.3c0.1,0.2,0,0.4-0.2,0.5l-8.3,3.9c-0.2,0.1-0.4,0-0.5-0.2
					l-3.9-8.3C85.4,149.8,85.5,149.6,85.7,149.5z"/>
				<path class="st2" d="M97.4,144l8.3-3.9c0.2-0.1,0.4,0,0.5,0.2l3.9,8.3c0.1,0.2,0,0.4-0.2,0.5l-8.3,3.9c-0.2,0.1-0.4,0-0.5-0.2
					l-3.9-8.3C97.1,144.4,97.1,144.1,97.4,144z"/>
				<path class="st2" d="M109,138.6l8.3-3.9c0.2-0.1,0.4,0,0.5,0.2l3.9,8.3c0.1,0.2,0,0.4-0.2,0.5l-8.3,3.9c-0.2,0.1-0.4,0-0.5-0.2
					l-3.9-8.3C108.8,138.9,108.8,138.7,109,138.6z"/>
				<path class="st2" d="M79.5,166.5l8.3-3.9c0.2-0.1,0.4,0,0.5,0.2l3.9,8.3c0.1,0.2,0,0.4-0.2,0.5l-8.3,3.9c-0.2,0.1-0.4,0-0.5-0.2
					l-3.9-8.3C79.2,166.9,79.3,166.6,79.5,166.5z"/>
				<path class="st2" d="M91.1,161.1l8.3-3.9c0.2-0.1,0.4,0,0.5,0.2l3.9,8.3c0.1,0.2,0,0.4-0.2,0.5l-8.3,3.9c-0.2,0.1-0.4,0-0.5-0.2
					l-3.9-8.3C90.8,161.4,90.9,161.2,91.1,161.1z"/>
				<path class="st2" d="M102.8,155.6l8.3-3.9c0.2-0.1,0.4,0,0.5,0.2l3.9,8.3c0.1,0.2,0,0.4-0.2,0.5l-8.3,3.9
					c-0.2,0.1-0.4,0-0.5-0.2l-3.9-8.3C102.5,156,102.6,155.8,102.8,155.6z"/>
				<path class="st2" d="M114.4,150.2l8.3-3.9c0.2-0.1,0.4,0,0.5,0.2l3.9,8.3c0.1,0.2,0,0.4-0.2,0.5l-8.3,3.9
					c-0.2,0.1-0.4,0-0.5-0.2l-3.9-8.3C114.2,150.6,114.2,150.3,114.4,150.2z"/>
				
					<ellipse transform="matrix(0.9678 -0.2519 0.2519 0.9678 -28.2226 29.189)" class="st4" cx="99.9" cy="124.8" rx="2.9" ry="1.2"/>
				<path class="st2" d="M207.5,74.5l18-8.4c1.5-0.7,3.1-0.1,3.8,1.4l0.2,0.5c0.7,1.5,0.1,3.1-1.4,3.8l-18,8.4l0,0L207.5,74.5
					L207.5,74.5L207.5,74.5z"/>
				<circle class="st2" cx="192.2" cy="85.1" r="28.6"/>
				<circle class="st2" cx="192.2" cy="85.1" r="25.4"/>
				<circle class="st5" cx="183.5" cy="84.9" r="2.1"/>
				<circle class="st5" cx="202.5" cy="88" r="1"/>
				<circle class="st5" cx="185" cy="100.4" r="1.7"/>
				<circle class="st5" cx="199.5" cy="101.2" r="0.9"/>
				<circle class="st5" cx="191.3" cy="62.8" r="1.1"/>
			</g>
			<circle class="st6" cx="88.4" cy="141.7" r="57.6"/>
			<circle class="st7" cx="88.4" cy="141.7" r="40.4"/>
			<g class="st8">
				<path class="st2" d="M75.2,108.9l43.9,31.1c1.3,0.9,1.5,2.6,0.7,3.9l-31.1,43.9c-0.9,1.3-2.6,1.5-3.9,0.7l-43.9-31.1
					c-1.3-0.9-1.5-2.6-0.7-3.9l31.1-43.9C72.2,108.3,74,108,75.2,108.9z"/>
				<path class="st2" d="M43.5,153.4l28.9-40.9c0.7-1,2-1.1,2.9-0.5l40.9,28.9c1,0.7,1.1,2,0.5,2.9l-28.9,40.9c-0.7,1-2,1.1-2.9,0.5
					L44,156.3C43.1,155.7,42.8,154.4,43.5,153.4z"/>
				<path class="st2" d="M46.5,154.1l5.3-7.5c0.1-0.2,0.3-0.2,0.5-0.1l7.5,5.3c0.2,0.1,0.2,0.3,0.1,0.5l-5.3,7.5
					c-0.1,0.2-0.3,0.2-0.5,0.1l-7.5-5.3C46.5,154.5,46.4,154.3,46.5,154.1z"/>
				<path class="st2" d="M54,143.6l5.3-7.5c0.1-0.2,0.3-0.2,0.5-0.1l7.5,5.3c0.2,0.1,0.2,0.3,0.1,0.5l-5.3,7.6
					c-0.1,0.2-0.3,0.2-0.5,0.1l-7.5-5.3C53.9,144.1,53.9,143.8,54,143.6z"/>
				<path class="st2" d="M61.4,133.1l5.3-7.5c0.1-0.2,0.3-0.2,0.5-0.1l7.5,5.3c0.2,0.1,0.2,0.3,0.1,0.5l-5.3,7.5
					c-0.1,0.2-0.3,0.2-0.5,0.1l-7.5-5.3C61.3,133.6,61.3,133.3,61.4,133.1z"/>
				<path class="st2" d="M68.8,122.7l5.3-7.5c0.1-0.2,0.3-0.2,0.5-0.1l7.5,5.3c0.2,0.1,0.2,0.3,0.1,0.5l-5.3,7.5
					c-0.1,0.2-0.3,0.2-0.5,0.1l-7.5-5.3C68.8,123.1,68.6,122.8,68.8,122.7z"/>
				<path class="st2" d="M57,161.6l5.3-7.5c0.1-0.2,0.3-0.2,0.5-0.1l7.5,5.3c0.2,0.1,0.2,0.3,0.1,0.5l-5.3,7.5
					c-0.1,0.2-0.3,0.2-0.5,0.1l-7.5-5.3C57,161.9,57,161.7,57,161.6z"/>
				<path class="st2" d="M64.5,151l5.3-7.5c0.1-0.2,0.3-0.2,0.5-0.1l7.5,5.3c0.2,0.1,0.2,0.3,0.1,0.5l-5.3,7.5
					c-0.1,0.2-0.3,0.2-0.5,0.1l-7.5-5.3C64.4,151.4,64.4,151.2,64.5,151z"/>
				<path class="st2" d="M71.9,140.6l5.3-7.5c0.1-0.2,0.3-0.2,0.5-0.1l7.5,5.3c0.2,0.1,0.2,0.3,0.1,0.5l-5.3,7.5
					c-0.1,0.2-0.3,0.2-0.5,0.1l-7.5-5.3C71.8,141,71.8,140.8,71.9,140.6z"/>
				<path class="st2" d="M79.2,130.1l5.3-7.5c0.1-0.2,0.3-0.2,0.5-0.1l7.5,5.3c0.2,0.1,0.2,0.3,0.1,0.5l-5.3,7.5
					c-0.1,0.2-0.3,0.2-0.5,0.1l-7.5-5.3C79.2,130.5,79.2,130.3,79.2,130.1z"/>
				<path class="st2" d="M67.6,168.9l5.3-7.5c0.1-0.2,0.3-0.2,0.5-0.1l7.5,5.3c0.2,0.1,0.2,0.3,0.1,0.5l-5.3,7.5
					c-0.1,0.2-0.3,0.2-0.5,0.1l-7.5-5.3C67.5,169.3,67.5,169.1,67.6,168.9z"/>
				<path class="st2" d="M75,158.5l5.3-7.5c0.1-0.2,0.3-0.2,0.5-0.1l7.5,5.3c0.2,0.1,0.2,0.3,0.1,0.5l-5.3,7.5
					c-0.1,0.2-0.3,0.2-0.5,0.1l-7.5-5.3C74.8,158.8,74.9,158.6,75,158.5z"/>
				<path class="st2" d="M82.4,148l5.3-7.5c0.1-0.2,0.3-0.2,0.5-0.1l7.5,5.3c0.2,0.1,0.2,0.3,0.1,0.5l-5.3,7.5
					c-0.1,0.2-0.3,0.2-0.5,0.1l-7.5-5.3C82.2,148.4,82.2,148.2,82.4,148z"/>
				<path class="st2" d="M89.7,137.5l5.3-7.5c0.1-0.2,0.3-0.2,0.5-0.1l7.5,5.3c0.2,0.1,0.2,0.3,0.1,0.5l-5.3,7.5
					c-0.1,0.2-0.3,0.2-0.5,0.1l-7.5-5.3C89.7,137.9,89.6,137.7,89.7,137.5z"/>
				<path class="st2" d="M78.1,176.3l5.3-7.5c0.1-0.2,0.3-0.2,0.5-0.1l7.5,5.3c0.2,0.1,0.2,0.3,0.1,0.5l-5.3,7.5
					c-0.1,0.2-0.3,0.2-0.5,0.1l-7.5-5.3C78,176.8,77.9,176.5,78.1,176.3z"/>
				<path class="st2" d="M85.4,165.8l5.3-7.5c0.1-0.2,0.3-0.2,0.5-0.1l7.5,5.3c0.2,0.1,0.2,0.3,0.1,0.5l-5.3,7.5
					c-0.1,0.2-0.3,0.2-0.5,0.1l-7.5-5.3C85.4,166.3,85.3,166,85.4,165.8z"/>
				<path class="st2" d="M92.8,155.4l5.3-7.5c0.1-0.2,0.3-0.2,0.5-0.1l7.5,5.3c0.2,0.1,0.2,0.3,0.1,0.5l-5.3,7.5
					c-0.1,0.2-0.3,0.2-0.5,0.1l-7.5-5.3C92.8,155.8,92.7,155.5,92.8,155.4z"/>
				<path class="st2" d="M100.2,144.9l5.3-7.5c0.1-0.2,0.3-0.2,0.5-0.1l7.5,5.3c0.2,0.1,0.2,0.3,0.1,0.5l-5.3,7.5
					c-0.1,0.2-0.3,0.2-0.5,0.1l-7.5-5.3C100.2,145.2,100.2,145,100.2,144.9z"/>
			</g>
			<path class="st9" d="M71.4,107.5l43.9,31.1c1.3,0.9,1.5,2.6,0.7,3.9L85,186.4c-0.9,1.3-2.6,1.5-3.9,0.7L37.1,156
				c-1.3-0.9-1.5-2.6-0.7-3.9l31.1-43.9C68.4,106.9,70.2,106.6,71.4,107.5z"/>
			<path class="st10" d="M39.7,152.1l28.9-40.9c0.7-1,2-1.1,2.9-0.5l40.9,28.9c1,0.7,1.1,2,0.5,2.9l-28.9,40.9c-0.7,1-2,1.1-2.9,0.5
				L40.2,155C39.3,154.2,39,153,39.7,152.1z"/>
			<path class="st11" d="M42.8,152.7l5.3-7.5c0.1-0.2,0.3-0.2,0.5-0.1l7.5,5.3c0.2,0.1,0.2,0.3,0.1,0.5l-5.3,7.5
				c-0.1,0.2-0.3,0.2-0.5,0.1l-7.5-5.3C42.7,153.2,42.6,152.9,42.8,152.7z"/>
			<path class="st11" d="M50.2,142.2l5.3-7.5c0.1-0.2,0.3-0.2,0.5-0.1l7.5,5.3c0.2,0.1,0.2,0.3,0.1,0.5l-5.3,7.6
				c-0.1,0.2-0.3,0.2-0.5,0.1l-7.5-5.3C50.1,142.7,50.1,142.4,50.2,142.2z"/>
			<path class="st11" d="M57.6,131.8l5.3-7.5c0.1-0.2,0.3-0.2,0.5-0.1l7.5,5.3c0.2,0.1,0.2,0.3,0.1,0.5l-5.3,7.5
				c-0.1,0.2-0.3,0.2-0.5,0.1l-7.5-5.3C57.5,132.2,57.5,131.9,57.6,131.8z"/>
			<path class="st11" d="M65,121.3l5.3-7.5c0.1-0.2,0.3-0.2,0.5-0.1l7.5,5.3c0.2,0.1,0.2,0.3,0.1,0.5l-5.3,7.5
				c-0.1,0.2-0.3,0.2-0.5,0.1l-7.5-5.3C65,121.7,64.9,121.5,65,121.3z"/>
			<path class="st11" d="M53.3,160.2l5.3-7.5c0.1-0.2,0.3-0.2,0.5-0.1l7.5,5.3c0.2,0.1,0.2,0.3,0.1,0.5l-5.3,7.5
				c-0.1,0.2-0.3,0.2-0.5,0.1l-7.5-5.3C53.2,160.5,53.2,160.3,53.3,160.2z"/>
			<path class="st11" d="M60.7,149.7l5.3-7.5c0.1-0.2,0.3-0.2,0.5-0.1l7.5,5.3c0.2,0.1,0.2,0.3,0.1,0.5l-5.3,7.5
				c-0.1,0.2-0.3,0.2-0.5,0.1l-7.5-5.3C60.6,150.1,60.6,149.9,60.7,149.7z"/>
			<path class="st11" d="M68.1,139.1l5.3-7.5c0.1-0.2,0.3-0.2,0.5-0.1l7.5,5.3c0.2,0.1,0.2,0.3,0.1,0.5l-5.3,7.5
				c-0.1,0.2-0.3,0.2-0.5,0.1l-7.5-5.3C68,139.6,68,139.4,68.1,139.1z"/>
			<path class="st11" d="M76,128.4l5.3-7.5c0.1-0.2,0.3-0.2,0.5-0.1l7.5,5.3c0.2,0.1,0.2,0.3,0.1,0.5l-5.3,7.5
				c-0.1,0.2-0.3,0.2-0.5,0.1l-7.5-5.3C75.9,128.8,75.8,128.6,76,128.4z"/>
			<path class="st11" d="M63.8,167.5l5.3-7.5c0.1-0.2,0.3-0.2,0.5-0.1l7.5,5.3c0.2,0.1,0.2,0.3,0.1,0.5l-5.3,7.5
				c-0.1,0.2-0.3,0.2-0.5,0.1l-7.5-5.3C63.7,167.9,63.7,167.7,63.8,167.5z"/>
			<path class="st11" d="M71.2,157.1l5.3-7.5c0.1-0.2,0.3-0.2,0.5-0.1l7.5,5.3c0.2,0.1,0.2,0.3,0.1,0.5l-5.3,7.5
				c-0.1,0.2-0.3,0.2-0.5,0.1l-7.5-5.3C71.1,157.5,71.1,157.2,71.2,157.1z"/>
			<path class="st11" d="M78.6,146.6l5.3-7.5c0.1-0.2,0.3-0.2,0.5-0.1l7.5,5.3c0.2,0.1,0.2,0.3,0.1,0.5l-5.3,7.5
				c-0.1,0.2-0.3,0.2-0.5,0.1l-7.5-5.3C78.4,147,78.4,146.8,78.6,146.6z"/>
			<path class="st11" d="M86,136.1l5.3-7.5c0.1-0.2,0.3-0.2,0.5-0.1l7.5,5.3c0.2,0.1,0.2,0.3,0.1,0.5l-5.3,7.5
				c-0.1,0.2-0.3,0.2-0.5,0.1l-7.5-5.3C85.9,136.5,85.9,136.3,86,136.1z"/>
			<path class="st11" d="M74.3,174.9l5.3-7.5c0.1-0.2,0.3-0.2,0.5-0.1l7.5,5.3c0.2,0.1,0.2,0.3,0.1,0.5l-5.3,7.5
				c-0.1,0.2-0.3,0.2-0.5,0.1l-7.5-5.3C74.2,175.4,74.1,175.1,74.3,174.9z"/>
			<path class="st11" d="M81.7,164.5L87,157c0.1-0.2,0.3-0.2,0.5-0.1l7.5,5.3c0.2,0.1,0.2,0.3,0.1,0.5l-5.3,7.5
				c-0.1,0.2-0.3,0.2-0.5,0.1l-7.5-5.3C81.6,164.9,81.5,164.6,81.7,164.5z"/>
			<path class="st11" d="M89,154l5.3-7.5c0.1-0.2,0.3-0.2,0.5-0.1l7.5,5.3c0.2,0.1,0.2,0.3,0.1,0.5l-5.3,7.5
				c-0.1,0.2-0.3,0.2-0.5,0.1l-7.5-5.3C89,154.4,88.9,154.2,89,154z"/>
			<path class="st11" d="M96.4,143.5l5.3-7.5c0.1-0.2,0.3-0.2,0.5-0.1l7.5,5.3c0.2,0.1,0.2,0.3,0.1,0.5l-5.3,7.5
				c-0.1,0.2-0.3,0.2-0.5,0.1l-7.5-5.3C96.4,143.9,96.4,143.7,96.4,143.5z"/>
			<g class="st8">
				<path class="st2" d="M103.9,103.4l22.7,48.7c0.6,1.4,0,3-1.3,3.7l-48.8,22.8c-1.4,0.6-3,0-3.7-1.3l-22.7-48.7
					c-0.6-1.4,0-3,1.3-3.7l48.7-22.7C101.6,101.4,103.3,102,103.9,103.4z"/>
				<path class="st2" d="M54.2,126.3l45.4-21.2c1-0.5,2.3,0,2.8,1l21.2,45.4c0.5,1,0,2.3-1,2.8l-45.4,21.2c-1,0.5-2.3,0-2.8-1
					l-21.2-45.4C52.7,128.1,53.1,126.8,54.2,126.3z"/>
				<path class="st2" d="M56.5,128.5l8.3-3.9c0.2-0.1,0.4,0,0.5,0.2l3.9,8.3c0.1,0.2,0,0.4-0.2,0.5l-8.3,3.9c-0.2,0.1-0.4,0-0.5-0.2
					l-3.9-8.3C56.2,128.8,56.3,128.6,56.5,128.5z"/>
				<path class="st2" d="M68.1,123.1l8.3-3.9c0.2-0.1,0.4,0,0.5,0.2l3.9,8.3c0.1,0.2,0,0.4-0.2,0.5l-8.3,3.9c-0.2,0.1-0.4,0-0.5-0.2
					l-3.9-8.3C67.9,123.4,68,123.2,68.1,123.1z"/>
				<path class="st2" d="M79.8,117.6l8.3-3.9c0.2-0.1,0.4,0,0.5,0.2l3.9,8.3c0.1,0.2,0,0.4-0.2,0.5l-8.3,3.9c-0.2,0.1-0.4,0-0.5-0.2
					l-3.9-8.3C79.6,117.9,79.6,117.7,79.8,117.6z"/>
				<path class="st2" d="M91.5,112.2l8.3-3.9c0.2-0.1,0.4,0,0.5,0.2l3.9,8.3c0.1,0.2,0,0.4-0.2,0.5l-8.3,3.9c-0.2,0.1-0.4,0-0.5-0.2
					l-3.9-8.3C91.2,112.5,91.2,112.3,91.5,112.2z"/>
				<path class="st2" d="M61.9,140.1l8.3-3.9c0.2-0.1,0.4,0,0.5,0.2l3.9,8.3c0.1,0.2,0,0.4-0.2,0.5l-8.3,3.9c-0.2,0.1-0.4,0-0.5-0.2
					l-3.9-8.3C61.7,140.5,61.8,140.2,61.9,140.1z"/>
				<path class="st2" d="M73.5,134.7l8.3-3.9c0.2-0.1,0.4,0,0.5,0.2l3.9,8.3c0.1,0.2,0,0.4-0.2,0.5l-8.3,3.9c-0.2,0.1-0.4,0-0.5-0.2
					l-3.9-8.3C73.3,135,73.4,134.8,73.5,134.7z"/>
				<path class="st2" d="M85.3,129.2l8.3-3.9c0.2-0.1,0.4,0,0.5,0.2l3.9,8.3c0.1,0.2,0,0.4-0.2,0.5l-8.3,3.9c-0.2,0.1-0.4,0-0.5-0.2
					l-3.9-8.3C85,129.6,85,129.4,85.3,129.2z"/>
				<path class="st2" d="M96.9,123.8l8.3-3.9c0.2-0.1,0.4,0,0.5,0.2l3.9,8.3c0.1,0.2,0,0.4-0.2,0.5l-8.3,3.9c-0.2,0.1-0.4,0-0.5-0.2
					l-3.9-8.3C96.6,124.2,96.6,123.9,96.9,123.8z"/>
				<path class="st2" d="M67.3,151.7l8.3-3.9c0.2-0.1,0.4,0,0.5,0.2l3.9,8.3c0.1,0.2,0,0.4-0.2,0.5l-8.3,3.9c-0.2,0.1-0.4,0-0.5-0.2
					l-3.9-8.3C67.1,152.1,67.2,151.8,67.3,151.7z"/>
				<path class="st2" d="M79,146.3l8.3-3.9c0.2-0.1,0.4,0,0.5,0.2l3.9,8.3c0.1,0.2,0,0.4-0.2,0.5l-8.3,3.9c-0.2,0.1-0.4,0-0.5-0.2
					l-3.9-8.3C78.7,146.7,78.8,146.4,79,146.3z"/>
				<path class="st2" d="M90.7,140.9l8.3-3.9c0.2-0.1,0.4,0,0.5,0.2l3.9,8.3c0.1,0.2,0,0.4-0.2,0.5l-8.3,3.9c-0.2,0.1-0.4,0-0.5-0.2
					l-3.9-8.3C90.4,141.2,90.4,141,90.7,140.9z"/>
				<path class="st2" d="M102.3,135.4l8.3-3.9c0.2-0.1,0.4,0,0.5,0.2l3.9,8.3c0.1,0.2,0,0.4-0.2,0.5l-8.3,3.9
					c-0.2,0.1-0.4,0-0.5-0.2l-3.9-8.3C102,135.8,102,135.6,102.3,135.4z"/>
				<path class="st2" d="M72.8,163.4l8.3-3.9c0.2-0.1,0.4,0,0.5,0.2l3.9,8.3c0.1,0.2,0,0.4-0.2,0.5l-8.3,3.9c-0.2,0.1-0.4,0-0.5-0.2
					l-3.9-8.3C72.5,163.7,72.6,163.4,72.8,163.4z"/>
				<path class="st2" d="M84.4,157.9l8.3-3.9c0.2-0.1,0.4,0,0.5,0.2l3.9,8.3c0.1,0.2,0,0.4-0.2,0.5l-8.3,3.9c-0.2,0.1-0.4,0-0.5-0.2
					l-3.9-8.3C84.1,158.3,84.2,158,84.4,157.9z"/>
				<path class="st2" d="M96.1,152.5l8.3-3.9c0.2-0.1,0.4,0,0.5,0.2l3.9,8.3c0.1,0.2,0,0.4-0.2,0.5l-8.3,3.9c-0.2,0.1-0.4,0-0.5-0.2
					l-3.9-8.3C95.8,152.8,95.8,152.6,96.1,152.5z"/>
				<path class="st2" d="M107.7,147.1l8.3-3.9c0.2-0.1,0.4,0,0.5,0.2l3.9,8.3c0.1,0.2,0,0.4-0.2,0.5l-8.3,3.9
					c-0.2,0.1-0.4,0-0.5-0.2l-3.9-8.3C107.5,147.4,107.5,147.2,107.7,147.1z"/>
			</g>
			<path class="st9" d="M100.2,102.1l22.7,48.7c0.6,1.4,0,3-1.3,3.7l-48.8,22.8c-1.4,0.6-3,0-3.7-1.3l-22.7-48.7
				c-0.6-1.4,0-3,1.3-3.7l48.7-22.7C97.8,100,99.5,100.6,100.2,102.1z"/>
			<path class="st10" d="M50.4,124.9l45.4-21.2c1-0.5,2.3,0,2.8,1l21.2,45.4c0.5,1,0,2.3-1,2.8l-45.4,21.2c-1,0.5-2.3,0-2.8-1
				l-21.2-45.4C48.9,126.7,49.3,125.5,50.4,124.9z"/>
			<path class="st11" d="M52.7,127.1l8.3-3.9c0.2-0.1,0.4,0,0.5,0.2l3.9,8.3c0.1,0.2,0,0.4-0.2,0.5l-8.3,3.9c-0.2,0.1-0.4,0-0.5-0.2
				l-3.9-8.3C52.5,127.5,52.5,127.2,52.7,127.1z"/>
			<path class="st11" d="M64.3,121.7l8.3-3.9c0.2-0.1,0.4,0,0.5,0.2l3.9,8.3c0.1,0.2,0,0.4-0.2,0.5l-8.3,3.9c-0.2,0.1-0.4,0-0.5-0.2
				l-3.9-8.3C64.1,122,64.2,121.8,64.3,121.7z"/>
			<path class="st11" d="M76.1,116.2l8.3-3.9c0.2-0.1,0.4,0,0.5,0.2l3.9,8.3c0.1,0.2,0,0.4-0.2,0.5l-8.3,3.9c-0.2,0.1-0.4,0-0.5-0.2
				l-3.9-8.3C75.8,116.6,75.8,116.4,76.1,116.2z"/>
			<path class="st11" d="M87.7,110.8l8.3-3.9c0.2-0.1,0.4,0,0.5,0.2l3.9,8.3c0.1,0.2,0,0.4-0.2,0.5l-8.3,3.9c-0.2,0.1-0.4,0-0.5-0.2
				l-3.9-8.3C87.4,111.1,87.4,110.9,87.7,110.8z"/>
			<path class="st11" d="M58.1,138.7l8.3-3.9c0.2-0.1,0.4,0,0.5,0.2l3.9,8.3c0.1,0.2,0,0.4-0.2,0.5l-8.3,3.9c-0.2,0.1-0.4,0-0.5-0.2
				l-3.9-8.3C57.9,139.1,58,138.8,58.1,138.7z"/>
			<path class="st11" d="M69.8,133.3l8.3-3.9c0.2-0.1,0.4,0,0.5,0.2l3.9,8.3c0.1,0.2,0,0.4-0.2,0.5l-8.3,3.9c-0.2,0.1-0.4,0-0.5-0.2
				l-3.9-8.3C69.5,133.7,69.6,133.4,69.8,133.3z"/>
			<path class="st11" d="M81.5,127.9l8.3-3.9c0.2-0.1,0.4,0,0.5,0.2l3.9,8.3c0.1,0.2,0,0.4-0.2,0.5l-8.3,3.9c-0.2,0.1-0.4,0-0.5-0.2
				l-3.9-8.3C81.2,128.2,81.2,128,81.5,127.9z"/>
			<path class="st11" d="M93.1,122.4l8.3-3.9c0.2-0.1,0.4,0,0.5,0.2l3.9,8.3c0.1,0.2,0,0.4-0.2,0.5l-8.3,3.9c-0.2,0.1-0.4,0-0.5-0.2
				l-3.9-8.3C92.8,122.8,92.8,122.6,93.1,122.4z"/>
			<path class="st11" d="M63.6,150.4l8.3-3.9c0.2-0.1,0.4,0,0.5,0.2l3.9,8.3c0.1,0.2,0,0.4-0.2,0.5l-8.3,3.9c-0.2,0.1-0.4,0-0.5-0.2
				l-3.9-8.3C63.3,150.7,63.4,150.4,63.6,150.4z"/>
			<path class="st11" d="M75.2,144.9l8.3-3.9c0.2-0.1,0.4,0,0.5,0.2l3.9,8.3c0.1,0.2,0,0.4-0.2,0.5l-8.3,3.9c-0.2,0.1-0.4,0-0.5-0.2
				l-3.9-8.3C74.9,145.3,75,145,75.2,144.9z"/>
			<path class="st11" d="M86.9,139.5l8.3-3.9c0.2-0.1,0.4,0,0.5,0.2l3.9,8.3c0.1,0.2,0,0.4-0.2,0.5l-8.3,3.9c-0.2,0.1-0.4,0-0.5-0.2
				l-3.9-8.3C86.6,139.8,86.6,139.6,86.9,139.5z"/>
			<path class="st11" d="M98.5,134.1l8.3-3.9c0.2-0.1,0.4,0,0.5,0.2l3.9,8.3c0.1,0.2,0,0.4-0.2,0.5l-8.3,3.9c-0.2,0.1-0.4,0-0.5-0.2
				l-3.9-8.3C98.3,134.4,98.3,134.2,98.5,134.1z"/>
			<path class="st11" d="M69,162l8.3-3.9c0.2-0.1,0.4,0,0.5,0.2l3.9,8.3c0.1,0.2,0,0.4-0.2,0.5l-8.3,3.9c-0.2,0.1-0.4,0-0.5-0.2
				l-3.9-8.3C68.7,162.3,68.8,162.1,69,162z"/>
			<path class="st11" d="M80.6,156.6l8.3-3.9c0.2-0.1,0.4,0,0.5,0.2l3.9,8.3c0.1,0.2,0,0.4-0.2,0.5l-8.3,3.9c-0.2,0.1-0.4,0-0.5-0.2
				l-3.9-8.3C80.3,156.9,80.4,156.6,80.6,156.6z"/>
			<path class="st11" d="M92.3,151.1l8.3-3.9c0.2-0.1,0.4,0,0.5,0.2l3.9,8.3c0.1,0.2,0,0.4-0.2,0.5l-8.3,3.9c-0.2,0.1-0.4,0-0.5-0.2
				l-3.9-8.3C92,151.4,92.1,151.2,92.3,151.1z"/>
			<path class="st11" d="M103.9,145.7l8.3-3.9c0.2-0.1,0.4,0,0.5,0.2l3.9,8.3c0.1,0.2,0,0.4-0.2,0.5l-8.3,3.9
				c-0.2,0.1-0.4,0-0.5-0.2l-3.9-8.3C103.7,146,103.7,145.8,103.9,145.7z"/>
			<path class="st12" d="M201.6,73l18-8.4c1.5-0.7,3.1-0.1,3.8,1.4l0.2,0.5c0.7,1.5,0.1,3.1-1.4,3.8l-18,8.4l0,0L201.6,73L201.6,73z
				"/>
			<path class="st6" d="M174.2,57.7c14.3-6.7,31.3-0.5,38,13.8c6.7,14.3,0.5,31.3-13.8,38c-14.3,6.7-44.5,6.8-44.5-9.8
				S159.9,64.4,174.2,57.7z"/>
			<circle class="st13" cx="186.3" cy="83.6" r="25.4"/>
			
				<ellipse transform="matrix(0.9063 -0.4226 0.4226 0.9063 -43.404 94.4213)" class="st14" cx="191.3" cy="145.1" rx="3.4" ry="3.4"/>
			<circle class="st14" cx="196.6" cy="86.6" r="1"/>
			<circle class="st14" cx="179.1" cy="98.9" r="1.7"/>
			<circle class="st14" cx="193.6" cy="99.7" r="0.9"/>
			<circle class="st14" cx="185.3" cy="61.3" r="1.1"/>
			<g class="st8">
				<path class="st2" d="M130.2,177.3l-53.1-9c-1.5-0.3-2.5-1.6-2.2-3.2l9-53.1c0.3-1.5,1.6-2.5,3.2-2.2l53.1,9
					c1.5,0.3,2.5,1.6,2.2,3.2l-9,53.1C133.2,176.5,131.8,177.5,130.2,177.3z"/>
				<path class="st2" d="M139.6,123.3l-8.4,49.4c-0.2,1.1-1.3,1.9-2.4,1.8l-49.4-8.4c-1.1-0.2-1.9-1.3-1.8-2.4l8.4-49.4
					c0.2-1.1,1.3-1.9,2.4-1.8l49.4,8.4C139.1,121.1,139.8,122.1,139.6,123.3z"/>
				<path class="st2" d="M136.6,124.1l-1.6,9c0,0.2-0.3,0.3-0.5,0.3l-9-1.6c-0.2,0-0.3-0.3-0.3-0.5l1.6-9c0-0.2,0.3-0.3,0.5-0.3
					l9,1.6C136.4,123.6,136.6,123.8,136.6,124.1z"/>
				<path class="st2" d="M134.4,136.7l-1.6,9c0,0.2-0.3,0.3-0.5,0.3l-9-1.6c-0.2,0-0.3-0.3-0.3-0.5l1.6-9c0-0.2,0.3-0.3,0.5-0.3
					l9,1.6C134.3,136.2,134.4,136.5,134.4,136.7z"/>
				<path class="st2" d="M132.3,149.4l-1.6,9c0,0.2-0.3,0.3-0.5,0.3l-9-1.6c-0.2,0-0.3-0.3-0.3-0.5l1.6-9c0-0.2,0.3-0.3,0.5-0.3
					l9,1.6C132.2,148.9,132.3,149.1,132.3,149.4z"/>
				<path class="st2" d="M130.1,162l-1.6,9c0,0.2-0.3,0.3-0.5,0.3l-9-1.6c-0.2,0-0.3-0.3-0.3-0.5l1.6-9c0-0.2,0.3-0.3,0.5-0.3l9,1.6
					C130,161.5,130.1,161.8,130.1,162z"/>
				<path class="st2" d="M123.9,121.9l-1.6,9c0,0.2-0.3,0.3-0.5,0.3l-9-1.6c-0.2,0-0.3-0.3-0.3-0.5l1.6-9c0-0.2,0.3-0.3,0.5-0.3
					l9,1.6C123.8,121.5,124,121.7,123.9,121.9z"/>
				<path class="st2" d="M121.8,134.5l-1.6,9c0,0.2-0.3,0.3-0.5,0.3l-9-1.6c-0.2,0-0.3-0.3-0.3-0.5l1.6-9c0-0.2,0.3-0.3,0.5-0.3
					l9,1.6C121.6,134.1,121.8,134.3,121.8,134.5z"/>
				<path class="st2" d="M119.6,147.2l-1.6,9c0,0.2-0.3,0.3-0.5,0.3l-9-1.6c-0.2,0-0.3-0.3-0.3-0.5l1.6-9c0-0.2,0.3-0.3,0.5-0.3
					l9,1.6C119.5,146.8,119.6,147,119.6,147.2z"/>
				<path class="st2" d="M117.4,159.8l-1.6,9c0,0.2-0.3,0.3-0.5,0.3l-9-1.6c-0.2,0-0.3-0.3-0.3-0.5l1.6-9c0-0.2,0.3-0.3,0.5-0.3
					l9,1.6C117.4,159.4,117.5,159.6,117.4,159.8z"/>
				<path class="st2" d="M111.2,119.7l-1.6,9c0,0.2-0.3,0.3-0.5,0.3l-9-1.6c-0.2,0-0.3-0.3-0.3-0.5l1.6-9c0-0.2,0.3-0.3,0.5-0.3
					l9,1.6C111.1,119.3,111.3,119.5,111.2,119.7z"/>
				<path class="st2" d="M109.1,132.4l-1.6,9c0,0.2-0.3,0.3-0.5,0.3l-9-1.6c-0.2,0-0.3-0.3-0.3-0.5l1.6-9c0-0.2,0.3-0.3,0.5-0.3
					l9,1.6C109,132,109.1,132.1,109.1,132.4z"/>
				<path class="st2" d="M107,145l-1.6,9c0,0.2-0.3,0.3-0.5,0.3l-9-1.6c-0.2,0-0.3-0.3-0.3-0.5l1.6-9c0-0.2,0.3-0.3,0.5-0.3l9,1.6
					C106.8,144.7,107,144.8,107,145z"/>
				<path class="st2" d="M104.8,157.7l-1.6,9c0,0.2-0.3,0.3-0.5,0.3l-9-1.6c-0.2,0-0.3-0.3-0.3-0.5l1.6-9c0-0.2,0.3-0.3,0.5-0.3
					l9,1.6C104.7,157.3,104.8,157.4,104.8,157.7z"/>
				<path class="st2" d="M98.6,117.6l-1.6,9c0,0.2-0.3,0.3-0.5,0.3l-9-1.6c-0.2,0-0.3-0.3-0.3-0.5l1.6-9c0-0.2,0.3-0.3,0.5-0.3
					l9,1.6C98.5,117.2,98.7,117.3,98.6,117.6z"/>
				<path class="st2" d="M96.4,130.2l-1.6,9c0,0.2-0.3,0.3-0.5,0.3l-9-1.6c-0.2,0-0.3-0.3-0.3-0.5l1.6-9c0-0.2,0.3-0.3,0.5-0.3
					l9,1.6C96.3,129.8,96.5,130,96.4,130.2z"/>
				<path class="st2" d="M94.2,142.9l-1.6,9c0,0.2-0.3,0.3-0.5,0.3l-9-1.6c-0.2,0-0.3-0.3-0.3-0.5l1.6-9c0-0.2,0.3-0.3,0.5-0.3
					l9,1.6C94.2,142.5,94.3,142.6,94.2,142.9z"/>
				<path class="st2" d="M92.1,155.5l-1.6,9c0,0.2-0.3,0.3-0.5,0.3l-9-1.6c-0.2,0-0.3-0.3-0.3-0.5l1.6-9c0-0.2,0.3-0.3,0.5-0.3
					l9,1.6C92,155.1,92.2,155.3,92.1,155.5z"/>
			</g>
			<path class="st9" d="M126.4,175.9l-53.1-9c-1.5-0.3-2.5-1.6-2.2-3.2l9-53.1c0.3-1.5,1.6-2.5,3.2-2.2l53.1,9
				c1.5,0.3,2.5,1.6,2.2,3.2l-9,53.1C129.4,175.1,128,176.1,126.4,175.9z"/>
			<path class="st10" d="M135.8,121.9l-8.4,49.4c-0.2,1.1-1.3,1.9-2.4,1.8l-49.4-8.4c-1.1-0.2-1.9-1.3-1.8-2.4l8.4-49.4
				c0.2-1.1,1.3-1.9,2.4-1.8l49.4,8.4C135.3,119.7,136,120.8,135.8,121.9z"/>
			<path class="st11" d="M132.8,122.6l-1.6,9c0,0.2-0.3,0.3-0.5,0.3l-9-1.6c-0.2,0-0.3-0.3-0.3-0.5l1.6-9c0-0.2,0.3-0.3,0.5-0.3
				l9,1.6C132.6,122.2,132.8,122.5,132.8,122.6z"/>
			<path class="st11" d="M130.7,135.3l-1.6,9c0,0.2-0.3,0.3-0.5,0.3l-9-1.6c-0.2,0-0.3-0.3-0.3-0.5l1.6-9c0-0.2,0.3-0.3,0.5-0.3
				l9,1.6C130.5,134.9,130.7,135.1,130.7,135.3z"/>
			<path class="st11" d="M128.5,148l-1.6,9c0,0.2-0.3,0.3-0.5,0.3l-9-1.6c-0.2,0-0.3-0.3-0.3-0.5l1.6-9c0-0.2,0.3-0.3,0.5-0.3l9,1.6
				C128.4,147.5,128.5,147.8,128.5,148z"/>
			<path class="st11" d="M126.3,160.6l-1.6,9c0,0.2-0.3,0.3-0.5,0.3l-9-1.6c-0.2,0-0.3-0.3-0.3-0.5l1.6-9c0-0.2,0.3-0.3,0.5-0.3
				l9,1.6C126.2,160.2,126.3,160.4,126.3,160.6z"/>
			<path class="st11" d="M120.1,120.5l-1.6,9c0,0.2-0.3,0.3-0.5,0.3l-9-1.6c-0.2,0-0.3-0.3-0.3-0.5l1.6-9c0-0.2,0.3-0.3,0.5-0.3
				l9,1.6C120,120.1,120.2,120.3,120.1,120.5z"/>
			<path class="st11" d="M118,133.2l-1.6,9c0,0.2-0.3,0.3-0.5,0.3l-9-1.6c-0.2,0-0.3-0.3-0.3-0.5l1.6-9c0-0.2,0.3-0.3,0.5-0.3l9,1.6
				C117.8,132.7,118,132.9,118,133.2z"/>
			<path class="st11" d="M115.8,145.8l-1.6,9c0,0.2-0.3,0.3-0.5,0.3l-9-1.6c-0.2,0-0.3-0.3-0.3-0.5l1.6-9c0-0.2,0.3-0.3,0.5-0.3
				l9,1.6C115.8,145.4,115.8,145.6,115.8,145.8z"/>
			<path class="st11" d="M113.7,158.4l-1.6,9c0,0.2-0.3,0.3-0.5,0.3l-9-1.6c-0.2,0-0.3-0.3-0.3-0.5l1.6-9c0-0.2,0.3-0.3,0.5-0.3
				l9,1.6C113.6,158.1,113.7,158.2,113.7,158.4z"/>
			<path class="st11" d="M107.4,118.4l-1.6,9c0,0.2-0.3,0.3-0.5,0.3l-9-1.6c-0.2,0-0.3-0.3-0.3-0.5l1.6-9c0-0.2,0.3-0.3,0.5-0.3
				l9,1.6C107.3,117.9,107.5,118.1,107.4,118.4z"/>
			<path class="st11" d="M105.3,131l-1.6,9c0,0.2-0.3,0.3-0.5,0.3l-9-1.6c-0.2,0-0.3-0.3-0.3-0.5l1.6-9c0-0.2,0.3-0.3,0.5-0.3l9,1.6
				C105.2,130.6,105.4,130.8,105.3,131z"/>
			<path class="st11" d="M103.2,143.6l-1.6,9c0,0.2-0.3,0.3-0.5,0.3l-9-1.6c-0.2,0-0.3-0.3-0.3-0.5l1.6-9c0-0.2,0.3-0.3,0.5-0.3
				l9,1.6C103,143.3,103.2,143.4,103.2,143.6z"/>
			<path class="st11" d="M101,156.3l-1.6,9c0,0.2-0.3,0.3-0.5,0.3l-9-1.6c-0.2,0-0.3-0.3-0.3-0.5l1.6-9c0-0.2,0.3-0.3,0.5-0.3l9,1.6
				C100.8,155.9,101,156.1,101,156.3z"/>
			<path class="st11" d="M94.8,116.2l-1.6,9c0,0.2-0.3,0.3-0.5,0.3l-9-1.6c-0.2,0-0.3-0.3-0.3-0.5l1.6-9c0-0.2,0.3-0.3,0.5-0.3
				l9,1.6C94.7,115.8,94.8,116,94.8,116.2z"/>
			<path class="st11" d="M92.6,128.8l-1.6,9c0,0.2-0.3,0.3-0.5,0.3l-9-1.6c-0.2,0-0.3-0.3-0.3-0.5l1.6-9c0-0.2,0.3-0.3,0.5-0.3
				l9,1.6C92.5,128.5,92.7,128.6,92.6,128.8z"/>
			<path class="st11" d="M90.5,141.5l-1.6,9c0,0.2-0.3,0.3-0.5,0.3l-9-1.6c-0.2,0-0.3-0.3-0.3-0.5l1.6-9c0-0.2,0.3-0.3,0.5-0.3
				l9,1.6C90.4,141.1,90.5,141.2,90.5,141.5z"/>
			<path class="st11" d="M88.4,154.1l-1.6,9c0,0.2-0.3,0.3-0.5,0.3l-9-1.6c-0.2,0-0.3-0.3-0.3-0.5l1.6-9c0-0.2,0.3-0.3,0.5-0.3
				l9,1.6C88.2,153.8,88.4,153.9,88.4,154.1z"/>
		</g>
	</g>
</g>
<path class="st2" d="M219.3,161.4l18.7,6.8c1.5,0.6,2.3,2.1,1.7,3.7l-0.2,0.5c-0.6,1.5-2.1,2.3-3.7,1.7l-18.7-6.8l0,0L219.3,161.4
	L219.3,161.4L219.3,161.4z"/>
<circle class="st2" cx="201" cy="158" r="28.6"/>
<circle class="st2" cx="201.5" cy="158" r="25.4"/>
<circle class="st5" cx="192.8" cy="157.9" r="2.1"/>
<circle class="st5" cx="211.8" cy="161" r="1"/>
<circle class="st5" cx="194.3" cy="173.3" r="1.7"/>
<circle class="st5" cx="208.8" cy="174.1" r="0.9"/>
<circle class="st5" cx="200.6" cy="135.7" r="1.1"/>
<path class="st12" d="M216.1,156.2l18.7,6.8c1.5,0.6,2.3,2.1,1.7,3.7l-0.2,0.5c-0.6,1.5-2.1,2.3-3.7,1.7l-18.7-6.8l0,0L216.1,156.2
	L216.1,156.2z"/>
<path class="st6" d="M207.6,126c14.8,5.4,22.5,21.8,17.1,36.7s-21.8,22.5-36.7,17.1c-14.8-5.4-36.3-26.6-24.5-38.4
	C175.2,129.6,192.7,120.6,207.6,126z"/>
<circle class="st13" cx="197.8" cy="152.9" r="25.4"/>
<path class="st15" d="M191.3,155.5L191.3,155.5c-2.1,0-3.7-1.7-3.7-3.7v0c0-2.1,1.7-3.7,3.7-3.7l0,0c2.1,0,3.7,1.7,3.7,3.7v0
	C195,153.8,193.3,155.5,191.3,155.5z"/>
<path class="st15" d="M205.4,144.1L205.4,144.1c-1.1,0-2-0.9-2-2v0c0-1.1,0.9-2,2-2l0,0c1.1,0,2,0.9,2,2v0
	C207.5,143.2,206.6,144.1,205.4,144.1z"/>
</svg>
