<?xml version="1.0" encoding="utf-8"?>
<!-- Generator: Adobe Illustrator 27.7.0, SVG Export Plug-In . SVG Version: 6.00 Build 0)  -->
<svg version="1.1" id="Layer_1" xmlns="http://www.w3.org/2000/svg" xmlns:xlink="http://www.w3.org/1999/xlink" x="0px" y="0px"
	 viewBox="0 0 223 251.2" style="enable-background:new 0 0 223 251.2;" xml:space="preserve">
<style type="text/css">
	.st0{opacity:0.2;}
	.st1{fill:#534A41;}
	.st2{fill:#5FAF47;}
</style>
<g id="Layer_2_00000139999323900811434580000017000452784376989345_">
	<g id="Toppings">
		<g id="Basill">
			<g class="st0">
				<path class="st1" d="M79.6,114.5c-9.7,10.8-28.5,9.6-28.5,9.6s-3.1-18.6,6.6-29.4s28.5-9.7,28.5-9.7S89.3,103.7,79.6,114.5z"/>
				<path class="st1" d="M200.9,90.4c-13.1,6.2-30-2.2-30-2.2s4.3-18.3,17.5-24.5c13.1-6.2,30,2.2,30,2.2S214,84.3,200.9,90.4z"/>
				<path class="st1" d="M113.1,228.3c-2.8,14.2-19.5,22.9-19.5,22.9s-12.2-14.4-9.5-28.6c2.8-14.2,19.5-22.9,19.5-22.9
					S115.9,214.1,113.1,228.3z"/>
				<path class="st1" d="M187.3,226.7c-14.1,3.4-28.9-8.3-28.9-8.3s8-17.1,22.1-20.4c14.1-3.4,28.9,8.3,28.9,8.3
					S201.4,223.4,187.3,226.7z"/>
				<path class="st1" d="M114.8,20.5c7.9,12.2,1.9,30,1.9,30s-18.8-1.8-26.7-14s-1.9-30-1.9-30S107,8.3,114.8,20.5z"/>
				<path class="st1" d="M144.8,156c-13.4-5.6-18.6-23.7-18.6-23.7s16.5-9.1,29.9-3.5c13.4,5.6,18.5,23.7,18.5,23.7
					S158.2,161.6,144.8,156z"/>
				<path class="st1" d="M38.2,204.1c12.7,6.9,16.1,25.5,16.1,25.5s-17.4,7.4-30.1,0.5c-12.7-6.9-16.1-25.5-16.1-25.5
					S25.4,197.2,38.2,204.1z"/>
			</g>
			<path class="st2" d="M76.8,111.7c-9.7,10.8-28.5,9.6-28.5,9.6s-3.1-18.6,6.6-29.4s28.5-9.7,28.5-9.7S86.5,100.9,76.8,111.7z"/>
			<path class="st2" d="M198.1,87.6c-13.1,6.2-30-2.2-30-2.2s4.3-18.3,17.5-24.5s30,2.2,30,2.2S211.2,81.5,198.1,87.6z"/>
			<path class="st2" d="M110.3,225.5c-2.8,14.2-19.5,22.9-19.5,22.9s-12.2-14.4-9.5-28.6c2.8-14.2,19.5-22.9,19.5-22.9
				S113.1,211.3,110.3,225.5z"/>
			<path class="st2" d="M184.5,223.9c-14.1,3.4-28.9-8.3-28.9-8.3s8-17.1,22.1-20.4c14.1-3.4,28.9,8.3,28.9,8.3
				S198.6,220.5,184.5,223.9z"/>
			<path class="st2" d="M113,17c7.9,12.2,1.9,30,1.9,30s-18.8-1.8-26.7-14S86.4,3,86.4,3S105.1,4.8,113,17z"/>
			<path class="st2" d="M142,153.2c-13.4-5.6-18.6-23.7-18.6-23.7s16.5-9.1,29.9-3.5c13.4,5.6,18.5,23.7,18.5,23.7
				S155.4,158.8,142,153.2z"/>
			<path class="st2" d="M35.4,201.3c12.7,6.9,16.1,25.5,16.1,25.5s-17.4,7.4-30.1,0.5S5.3,201.7,5.3,201.7S22.6,194.4,35.4,201.3z"
				/>
		</g>
	</g>
</g>
</svg>
