<?xml version="1.0" encoding="utf-8"?>
<!-- Generator: Adobe Illustrator 27.7.0, SVG Export Plug-In . SVG Version: 6.00 Build 0)  -->
<svg version="1.1" id="Layer_1" xmlns="http://www.w3.org/2000/svg" xmlns:xlink="http://www.w3.org/1999/xlink" x="0px" y="0px"
	 viewBox="0 0 425.5 425.2" style="enable-background:new 0 0 425.5 425.2;" xml:space="preserve">
<style type="text/css">
	.st0{fill:#F6DE97;}
	.st1{fill:none;stroke:#DCAB41;stroke-width:25.51;stroke-miterlimit:10;}
	.st2{opacity:5.000000e-02;}
	.st3{fill:#4A4035;}
	.st4{fill:#FEC256;}
	.st5{fill:#FAA552;}
	.st6{fill:#FDBA55;}
</style>
<g id="Layer_2_00000073714914126791064090000001354074973688510356_">
	<g id="Layer_1-2">
		<circle class="st0" cx="213.9" cy="213.2" r="199.6"/>
		<circle id="Crust_-_normal" class="st1" cx="213.1" cy="212.4" r="199.6"/>
		<g class="st2">
			<path class="st3" d="M212.5,0.2C95.1,0.2,0,95.4,0,212.8s95.1,212.5,212.5,212.5S425,330.1,425,212.8S329.9,0.2,212.5,0.2z
				 M212.5,412.2C102.3,412.2,13,322.9,13,212.8S102.3,13.2,212.5,13.2S412,102.6,412,212.8S322.7,412.2,212.5,412.2z"/>
		</g>
	</g>
</g>
<path class="st4" d="M212.5,0.2L212.5,0.2C95.1,0.2,0,95.4,0,212.7v0c0,117.4,95.1,212.5,212.5,212.5h0
	c117.4,0,212.5-95.1,212.5-212.5v0C425,95.4,329.9,0.2,212.5,0.2z"/>
<path class="st5" d="M212.5,425.2L212.5,425.2C95.1,425.2,0,330.1,0,212.8v0C0,95.4,95.1,0.2,212.5,0.2h0
	C329.9,0.2,425,95.4,425,212.7v0C425,330.1,329.9,425.2,212.5,425.2z"/>
<path class="st6" d="M213.4,23.7L213.4,23.7c-105.3,0-190.7,85.4-190.7,190.7v0c0,105.3,85.4,190.7,190.7,190.7h0
	c105.3,0,190.7-85.4,190.7-190.7v0C404.1,109.1,318.7,23.7,213.4,23.7z"/>
</svg>
