<?xml version="1.0" encoding="utf-8"?>
<!-- Generator: Adobe Illustrator 27.7.0, SVG Export Plug-In . SVG Version: 6.00 Build 0)  -->
<svg version="1.1" id="Layer_1" xmlns="http://www.w3.org/2000/svg" xmlns:xlink="http://www.w3.org/1999/xlink" x="0px" y="0px"
	 viewBox="0 0 263 255.8" style="enable-background:new 0 0 263 255.8;" xml:space="preserve">
<style type="text/css">
	.st0{opacity:0.1;}
	.st1{fill:#534741;}
	.st2{fill:#44BD32;}
</style>
<g id="Layer_2_00000098183763604657912820000017053357421673524914_">
	<g id="Toppings">
		<g id="Green_peppers">
			<g id="Green_peppers-2" class="st0">
				<path class="st1" d="M45.1,228.9c-8-3.4-15.3,2.7-13.3,11.2c-3.4,8,2.7,15.3,11.2,13.3c8,3.4,15.3-2.7,13.3-11.2
					C59.7,234.2,53.6,226.9,45.1,228.9z M53,241.9c1.5,6.2-3.9,10.8-9.7,8.2c-6.2,1.5-10.8-3.9-8.2-9.7c-1.5-6.2,3.9-10.8,9.8-8.2
					C51,230.7,55.5,236,53,241.9z"/>
				<path class="st1" d="M139.1,82c-5.9-6.5-15.1-4-16.8,4.6c-6.5,5.8-4,15.1,4.6,16.8c5.8,6.5,15.1,4,16.8-4.6
					C150.1,92.9,147.6,83.7,139.1,82z M140.8,97.1c-1.3,6.3-8,8.1-12.3,3.4c-6.3-1.3-8.1-8-3.4-12.3c1.3-6.3,8-8.1,12.3-3.4
					C143.7,86.1,145.5,92.8,140.8,97.1L140.8,97.1z"/>
				<path class="st1" d="M27.8,150.8c0.5-8.7-7.7-13.5-15-8.8c-8.7-0.5-13.5,7.7-8.8,15c-0.5,8.7,7.7,13.5,15,8.8
					C27.7,166.3,32.5,158.1,27.8,150.8z M18.2,162.6c-5.4,3.5-11.4,0-11-6.5c-3.5-5.4,0-11.4,6.5-11c5.4-3.5,11.4,0,11,6.5
					C28.1,157,24.6,163,18.2,162.6L18.2,162.6z"/>
				<path class="st1" d="M232.9,200.1c0.5-8.7-7.7-13.5-15.1-8.7c-8.7-0.5-13.5,7.7-8.7,15.1c-0.5,8.7,7.7,13.5,15.1,8.7
					C232.8,215.7,237.6,207.4,232.9,200.1z M223.3,212c-5.4,3.5-11.4,0-11-6.5c-3.5-5.4,0-11.4,6.5-11c5.4-3.5,11.4,0,11,6.4
					C233.2,206.3,229.7,212.4,223.3,212L223.3,212z"/>
				<path class="st1" d="M153.6,152.8c-0.4-8.7-9.1-12.6-15.9-7.1c-8.7,0.4-12.6,9.1-7.1,15.9c0.4,8.7,9.1,12.6,15.9,7.1
					C155.2,168.3,159.1,159.6,153.6,152.8z M145.3,165.6c-5,4-11.3,1.2-11.6-5.2c-4-5-1.2-11.3,5.2-11.6c5-4,11.3-1.2,11.6,5.2
					C154.6,158.9,151.7,165.3,145.3,165.6z"/>
				<path class="st1" d="M158.6,13.6c0.3-8.7-8.1-13.3-15.3-8.3C134.5,5,130,13.4,135,20.6c-0.3,8.7,8.1,13.3,15.3,8.3
					C159,29.1,163.5,20.8,158.6,13.6z M149.3,25.7c-5.3,3.7-11.4,0.3-11.2-6.1c-3.7-5.3-0.3-11.4,6.1-11.2
					c5.3-3.7,11.4-0.3,11.2,6.1C159.1,19.8,155.7,25.9,149.3,25.7z"/>
				<path class="st1" d="M251.1,120.1c-7.9-3.7-15.4,2.2-13.7,10.8c-3.7,7.9,2.2,15.4,10.8,13.7c7.9,3.7,15.4-2.2,13.7-10.8
					C265.6,125.9,259.7,118.4,251.1,120.1z M258.7,133.4c1.3,6.3-4.2,10.6-10,7.9c-6.3,1.3-10.6-4.2-7.9-10
					c-1.3-6.3,4.2-10.6,10-7.9C257,122.1,261.3,127.6,258.7,133.4L258.7,133.4z"/>
				<path class="st1" d="M177.8,231.2c-5.4-6.9-14.7-5.1-17.1,3.3c-6.9,5.4-5.1,14.7,3.3,17.1c5.4,6.9,14.7,5.1,17.1-3.3
					C188,242.9,186.2,233.6,177.8,231.2z M178.4,246.4c-1.8,6.2-8.6,7.5-12.5,2.4c-6.2-1.7-7.5-8.6-2.4-12.5
					c1.7-6.2,8.6-7.5,12.5-2.4C182.1,235.7,183.4,242.5,178.4,246.4z"/>
				<path class="st1" d="M18.6,70.2c-8-3.6-15.3,2.4-13.5,11c-3.6,8,2.5,15.4,11,13.5c8,3.6,15.4-2.4,13.5-11
					C33.1,75.7,27.1,68.3,18.6,70.2z M26.3,83.4c1.4,6.3-4,10.7-9.9,8c-6.3,1.4-10.7-4-8-9.9c-1.4-6.3,4-10.7,9.9-8
					C24.5,72.1,28.9,77.5,26.3,83.4z"/>
			</g>
			<g id="Green_peppers-3">
				<path class="st2" d="M42.9,225.7c-8-3.4-15.3,2.7-13.3,11.2c-3.4,8,2.7,15.3,11.2,13.3c8,3.4,15.3-2.7,13.3-11.2
					C57.6,230.9,51.4,223.7,42.9,225.7z M50.9,238.7c1.5,6.2-3.9,10.8-9.7,8.2c-6.2,1.5-10.8-3.9-8.2-9.7c-1.5-6.2,3.9-10.8,9.8-8.2
					C48.9,227.5,53.4,232.8,50.9,238.7z"/>
				<path class="st2" d="M136.9,78.7c-5.9-6.5-15.1-4-16.8,4.6c-6.5,5.8-4,15.1,4.6,16.8c5.8,6.5,15.1,4,16.8-4.6
					C148,89.7,145.5,80.5,136.9,78.7z M138.6,93.9c-1.3,6.3-8,8.1-12.3,3.4c-6.3-1.3-8.1-8-3.4-12.3c1.3-6.3,8-8.1,12.3-3.4
					C141.5,82.9,143.4,89.6,138.6,93.9L138.6,93.9z"/>
				<path class="st2" d="M25.7,147.6c0.5-8.7-7.7-13.5-15-8.8c-8.7-0.5-13.5,7.7-8.8,15c-0.5,8.7,7.7,13.5,15,8.8
					C25.6,163.1,30.4,154.9,25.7,147.6z M16,159.4c-5.4,3.5-11.4,0-11-6.5c-3.5-5.4,0-11.4,6.5-11c5.4-3.5,11.4,0,11,6.5
					C26,153.8,22.4,159.8,16,159.4L16,159.4z"/>
				<path class="st2" d="M230.7,196.9c0.5-8.7-7.7-13.5-15.1-8.7c-8.7-0.5-13.5,7.7-8.7,15.1c-0.5,8.7,7.7,13.5,15.1,8.7
					C230.7,212.4,235.5,204.2,230.7,196.9z M221.1,208.7c-5.4,3.5-11.4,0-11-6.5c-3.5-5.4,0-11.4,6.5-11c5.4-3.5,11.4,0,11,6.4
					C231,203.1,227.5,209.1,221.1,208.7L221.1,208.7z"/>
				<path class="st2" d="M151.5,149.6c-0.4-8.7-9.1-12.6-15.9-7.1c-8.7,0.4-12.6,9.1-7.1,15.9c0.4,8.7,9.1,12.6,15.9,7.1
					C153,165,157,156.3,151.5,149.6z M143.2,162.4c-5,4-11.3,1.2-11.6-5.2c-4-5-1.2-11.3,5.2-11.6c5-4,11.3-1.2,11.6,5.2
					C152.4,155.7,149.6,162.1,143.2,162.4z"/>
				<path class="st2" d="M156.4,10.3c0.3-8.7-8.1-13.3-15.3-8.3c-8.7-0.3-13.3,8.1-8.3,15.3c-0.3,8.7,8.1,13.3,15.3,8.3
					C156.9,25.9,161.4,17.5,156.4,10.3z M147.2,22.5c-5.3,3.7-11.4,0.3-11.2-6.1c-3.7-5.3-0.3-11.4,6.1-11.2
					c5.3-3.7,11.4-0.3,11.2,6.1C156.9,16.5,153.6,22.7,147.2,22.5z"/>
				<path class="st2" d="M249,116.9c-7.9-3.7-15.4,2.2-13.7,10.8c-3.7,7.9,2.2,15.4,10.8,13.7c7.9,3.7,15.4-2.2,13.7-10.8
					C263.4,122.7,257.5,115.2,249,116.9z M256.5,130.2c1.3,6.3-4.2,10.6-10,7.9c-6.3,1.3-10.6-4.2-7.9-10c-1.3-6.3,4.2-10.6,10-7.9
					C254.9,118.9,259.2,124.4,256.5,130.2L256.5,130.2z"/>
				<path class="st2" d="M175.6,228c-5.4-6.9-14.7-5.1-17.1,3.3c-6.9,5.4-5.1,14.7,3.3,17.1c5.4,6.9,14.7,5.1,17.1-3.3
					C185.8,239.7,184,230.4,175.6,228z M176.2,243.2c-1.8,6.2-8.6,7.5-12.5,2.4c-6.2-1.7-7.5-8.6-2.4-12.5c1.7-6.2,8.6-7.5,12.5-2.4
					C179.9,232.4,181.3,239.3,176.2,243.2z"/>
				<path class="st2" d="M16.4,67c-8-3.6-15.3,2.4-13.5,11c-3.6,8,2.5,15.4,11,13.5c8,3.6,15.4-2.4,13.5-11
					C30.9,72.5,24.9,65.1,16.4,67z M24.1,80.1c1.4,6.3-4,10.7-9.9,8c-6.3,1.4-10.7-4-8-9.9c-1.4-6.3,4-10.7,9.9-8
					C22.3,68.9,26.7,74.3,24.1,80.1z"/>
			</g>
		</g>
	</g>
</g>
<g id="Green_peppers-2_00000175322904457417102920000011073532778061781643_" class="st0">
	<path class="st1" d="M46.5,230.1c-8-3.4-15.3,2.7-13.3,11.2c-3.4,8,2.7,15.3,11.2,13.3c8,3.4,15.3-2.7,13.3-11.2
		C61.2,235.4,55,228.1,46.5,230.1z M54.5,243.1c1.5,6.2-3.9,10.8-9.7,8.2c-6.2,1.5-10.8-3.9-8.2-9.7c-1.5-6.2,3.9-10.8,9.8-8.2
		C52.5,231.9,57,237.2,54.5,243.1z"/>
	<path class="st1" d="M138.3,82.5c-5.9-6.9-15.1-4.2-16.8,4.9c-6.5,6.2-4,16,4.6,17.8c5.8,6.9,15.1,4.2,16.8-4.9
		C149.4,94.2,146.9,84.4,138.3,82.5z M140.1,98.6c-1.3,6.7-8,8.6-12.3,3.6c-6.3-1.3-8.1-8.5-3.4-13.1c1.3-6.7,8-8.6,12.3-3.6
		C143,87,144.8,94.1,140.1,98.6L140.1,98.6z"/>
	<path class="st1" d="M29.3,152c0.5-8.7-7.7-13.5-15-8.8c-8.7-0.5-13.5,7.7-8.8,15c-0.5,8.7,7.7,13.5,15,8.8
		C29.2,167.5,34,159.3,29.3,152z M19.7,163.8c-5.4,3.5-11.4,0-11-6.5c-3.5-5.4,0-11.4,6.5-11c5.4-3.5,11.4,0,11,6.5
		C29.6,158.2,26,164.2,19.7,163.8L19.7,163.8z"/>
	<path class="st1" d="M234.3,201.3c0.5-8.7-7.7-13.5-15.1-8.7c-8.7-0.5-13.5,7.7-8.7,15.1c-0.5,8.7,7.7,13.5,15.1,8.7
		C234.3,216.9,239.1,208.6,234.3,201.3z M224.7,213.2c-5.4,3.5-11.4,0-11-6.5c-3.5-5.4,0-11.4,6.5-11c5.4-3.5,11.4,0,11,6.4
		C234.6,207.5,231.1,213.6,224.7,213.2L224.7,213.2z"/>
	<path class="st1" d="M155.1,154c-0.4-8.7-9.1-12.6-15.9-7.1c-8.7,0.4-12.6,9.1-7.1,15.9c0.4,8.7,9.1,12.6,15.9,7.1
		C156.7,169.5,160.6,160.8,155.1,154z M146.8,166.8c-5,4-11.3,1.2-11.6-5.2c-4-5-1.2-11.3,5.2-11.6c5-4,11.3-1.2,11.6,5.2
		C156,160.1,153.2,166.5,146.8,166.8z"/>
	<path class="st1" d="M160,14.8c0.3-8.7-8.1-13.3-15.3-8.3c-8.7-0.3-13.3,8.1-8.3,15.3c-0.3,8.7,8.1,13.3,15.3,8.3
		C160.5,30.3,165,22,160,14.8z M150.8,26.9c-5.3,3.7-11.4,0.3-11.2-6.1c-3.7-5.3-0.3-11.4,6.1-11.2c5.3-3.7,11.4-0.3,11.2,6.1
		C160.5,21,157.2,27.1,150.8,26.9z"/>
	<path class="st1" d="M252.6,121.3c-7.9-3.7-15.4,2.2-13.7,10.8c-3.7,7.9,2.2,15.4,10.8,13.7c7.9,3.7,15.4-2.2,13.7-10.8
		C267,127.1,261.1,119.6,252.6,121.3z M260.1,134.6c1.3,6.3-4.2,10.6-10,7.9c-6.3,1.3-10.6-4.2-7.9-10c-1.3-6.3,4.2-10.6,10-7.9
		C258.5,123.3,262.8,128.8,260.1,134.6L260.1,134.6z"/>
	<path class="st1" d="M179.2,232.4c-5.4-6.9-14.7-5.1-17.1,3.3c-6.9,5.4-5.1,14.7,3.3,17.1c5.4,6.9,14.7,5.1,17.1-3.3
		C189.4,244.2,187.6,234.8,179.2,232.4z M179.8,247.6c-1.8,6.2-8.6,7.5-12.5,2.4c-6.2-1.7-7.5-8.6-2.4-12.5
		c1.7-6.2,8.6-7.5,12.5-2.4C183.6,236.9,184.9,243.7,179.8,247.6z"/>
	<path class="st1" d="M20,71.4c-8-3.6-15.3,2.4-13.5,11c-3.6,8,2.5,15.4,11,13.5c8,3.6,15.4-2.4,13.5-11
		C34.5,76.9,28.5,69.6,20,71.4z M27.7,84.6c1.4,6.3-4,10.7-9.9,8c-6.3,1.4-10.7-4-8-9.9c-1.4-6.3,4-10.7,9.9-8
		C25.9,73.3,30.3,78.7,27.7,84.6z"/>
</g>
<g id="Green_peppers-3_00000003084748396481086350000008395433092999535265_">
	<path class="st2" d="M44.4,226.9c-8-3.4-15.3,2.7-13.3,11.2c-3.4,8,2.7,15.3,11.2,13.3c8,3.4,15.3-2.7,13.3-11.2
		C59,232.1,52.9,224.9,44.4,226.9z M52.3,239.9c1.5,6.2-3.9,10.8-9.7,8.2c-6.2,1.5-10.8-3.9-8.2-9.7c-1.5-6.2,3.9-10.8,9.8-8.2
		C50.3,228.7,54.8,234,52.3,239.9z"/>
	<path class="st2" d="M136.2,79.1c-5.9-6.9-15.1-4.2-16.8,4.9c-6.5,6.2-4,16,4.6,17.8c5.8,6.9,15.1,4.2,16.8-4.9
		C147.3,90.7,144.7,81,136.2,79.1z M137.9,95.2c-1.3,6.7-8,8.6-12.3,3.6c-6.3-1.3-8.1-8.5-3.4-13.1c1.3-6.7,8-8.6,12.3-3.6
		C140.8,83.5,142.7,90.7,137.9,95.2L137.9,95.2z"/>
	<path class="st2" d="M27.1,148.8c0.5-8.7-7.7-13.5-15-8.8c-8.7-0.5-13.5,7.7-8.8,15c-0.5,8.7,7.7,13.5,15,8.8
		C27,164.3,31.8,156.1,27.1,148.8z M17.5,160.6c-5.4,3.5-11.4,0-11-6.5c-3.5-5.4,0-11.4,6.5-11c5.4-3.5,11.4,0,11,6.5
		C27.4,155,23.9,161,17.5,160.6L17.5,160.6z"/>
	<path class="st2" d="M232.2,198.1c0.5-8.7-7.7-13.5-15.1-8.7c-8.7-0.5-13.5,7.7-8.7,15.1c-0.5,8.7,7.7,13.5,15.1,8.7
		C232.1,213.6,236.9,205.4,232.2,198.1z M222.6,209.9c-5.4,3.5-11.4,0-11-6.5c-3.5-5.4,0-11.4,6.5-11c5.4-3.5,11.4,0,11,6.4
		C232.5,204.3,229,210.3,222.6,209.9L222.6,209.9z"/>
	<path class="st2" d="M152.9,150.8c-0.4-8.7-9.1-12.6-15.9-7.1c-8.7,0.4-12.6,9.1-7.1,15.9c0.4,8.7,9.1,12.6,15.9,7.1
		C154.5,166.2,158.4,157.6,152.9,150.8z M144.6,163.6c-5,4-11.3,1.2-11.6-5.2c-4-5-1.2-11.3,5.2-11.6c5-4,11.3-1.2,11.6,5.2
		C153.9,156.9,151,163.3,144.6,163.6z"/>
	<path class="st2" d="M156.9,9.9c-0.7-7.1-7.5-10.7-13.8-7.5c-1,0.5-2,0.8-3.1,0.9c-7.1,0.7-10.7,7.5-7.5,13.8c0.5,1,0.8,2,0.9,3.1
		c0.7,7.1,7.5,10.7,13.8,7.5c1-0.5,2-0.8,3.1-0.9c7.1-0.7,10.7-7.5,7.5-13.8C157.3,12,157,11,156.9,9.9z M146.4,24.5
		c-4.5,2.1-9.1-0.4-9.8-5.3c-0.1-1-0.4-2-0.9-2.9c-2.1-4.5,0.4-9.1,5.4-9.8c1-0.1,2-0.4,2.9-0.9c4.5-2.1,9.1,0.4,9.8,5.3
		c0.1,1,0.4,1.9,0.8,2.8c2.1,4.5-0.4,9.1-5.3,9.8C148.2,23.8,147.3,24,146.4,24.5z"/>
	<path class="st2" d="M250.4,118.1c-7.9-3.7-15.4,2.2-13.7,10.8c-3.7,7.9,2.2,15.4,10.8,13.7c7.9,3.7,15.4-2.2,13.7-10.8
		C264.9,123.9,259,116.4,250.4,118.1z M258,131.4c1.3,6.3-4.2,10.6-10,7.9c-6.3,1.3-10.6-4.2-7.9-10c-1.3-6.3,4.2-10.6,10-7.9
		C256.3,120.1,260.6,125.6,258,131.4L258,131.4z"/>
	<path class="st2" d="M177.1,229.2c-5.4-6.9-14.7-5.1-17.1,3.3c-6.9,5.4-5.1,14.7,3.3,17.1c5.4,6.9,14.7,5.1,17.1-3.3
		C187.3,240.9,185.5,231.6,177.1,229.2z M177.7,244.4c-1.8,6.2-8.6,7.5-12.5,2.4c-6.2-1.7-7.5-8.6-2.4-12.5
		c1.7-6.2,8.6-7.5,12.5-2.4C181.4,233.7,182.7,240.5,177.7,244.4z"/>
	<path class="st2" d="M17.9,68.2c-8-3.6-15.3,2.4-13.5,11c-3.6,8,2.5,15.4,11,13.5c8,3.6,15.4-2.4,13.5-11
		C32.4,73.7,26.4,66.3,17.9,68.2z M25.6,81.3c1.4,6.3-4,10.7-9.9,8c-6.3,1.4-10.7-4-8-9.9c-1.4-6.3,4-10.7,9.9-8
		C23.8,70.1,28.2,75.5,25.6,81.3z"/>
</g>
</svg>
