<?xml version="1.0" encoding="utf-8"?>
<!-- Generator: Adobe Illustrator 27.7.0, SVG Export Plug-In . SVG Version: 6.00 Build 0)  -->
<svg version="1.1" id="Layer_1" xmlns="http://www.w3.org/2000/svg" xmlns:xlink="http://www.w3.org/1999/xlink" x="0px" y="0px"
	 viewBox="0 0 223 229.7" style="enable-background:new 0 0 223 229.7;" xml:space="preserve">
<style type="text/css">
	.st0{opacity:0.1;}
	.st1{fill:#4C5329;}
	.st2{fill:#E8DDAD;}
	.st3{fill:#CCC699;}
	.st4{fill:#CEC799;}
</style>
<g id="Layer_2_00000176740437454724184500000012088622898005985435_">
	<g id="Toppings">
		<g id="Mushrooms">
			<g class="st0">
				<path class="st1" d="M41.6,46.8l5.4,0c5.8,0,10.6,4.6,10.6,10.5l0,0l0,3.1c0,1.3-1.1,2.4-2.4,2.5L33.7,63
					c-1.3,0-2.4-1.1-2.5-2.4l0-3.1C31.1,51.7,35.8,46.9,41.6,46.8z"/>
				<path class="st1" d="M45.3,48.7h-1.9c-5.8,0.1-10.4,4.8-10.3,10.5c0,0,0,0,0,0v0.9c0,0.5,0.4,0.9,1,0.9l6.4,0l0.1,10.4
					c0,1,0.9,1.9,1.9,1.9c0,0,0,0,0,0l4.3,0c1,0,1.9-0.8,1.9-1.9c0,0,0,0,0,0L48.5,61l6.4,0c0.5,0,0.9-0.4,0.9-1V59
					C55.8,53.3,51.1,48.6,45.3,48.7z"/>
				<path class="st1" d="M198,40.2l5-2c5.4-2.1,11.5,0.6,13.7,6l1.1,2.9c0.5,1.3-0.1,2.7-1.4,3.2l-20.1,7.9
					c-1.3,0.5-2.7-0.1-3.2-1.4l-1.1-2.9C189.9,48.4,192.6,42.3,198,40.2z"/>
				<path class="st1" d="M202.1,40.6l-1.8,0.7c-5.4,2.1-8,8.1-5.9,13.5l0.4,0.9c0.2,0.5,0.7,0.7,1.2,0.5l5.9-2.3l3.8,9.7
					c0.4,1,1.5,1.4,2.4,1.1l4-1.6c1-0.4,1.4-1.5,1.1-2.4l-3.8-9.7l5.9-2.3c0.5-0.2,0.7-0.7,0.5-1.2l-0.3-0.9
					C213.5,41.2,207.5,38.5,202.1,40.6C202.1,40.6,202.1,40.6,202.1,40.6z"/>
				<path class="st1" d="M148.8,87.1l4.5,3c4.8,3.2,6.1,9.8,2.9,14.6l-1.7,2.6c-0.7,1.1-2.3,1.4-3.4,0.7l0,0l-18-12.1
					c-1.1-0.7-1.4-2.3-0.7-3.4l0,0l1.7-2.6C137.4,85.1,144,83.8,148.8,87.1z"/>
				<path class="st1" d="M150.8,90.7l-1.6-1.1c-4.8-3.2-11.3-1.9-14.5,2.9l-0.5,0.8c-0.3,0.4-0.2,1,0.3,1.3l5.3,3.5l-5.8,8.7
					c-0.6,0.9-0.3,2,0.5,2.6l3.6,2.4c0.9,0.6,2,0.4,2.6-0.5c0,0,0,0,0,0l5.8-8.7l5.3,3.5c0.4,0.3,1,0.2,1.3-0.2c0,0,0,0,0,0l0.5-0.8
					C156.9,100.4,155.6,93.9,150.8,90.7C150.8,90.7,150.8,90.7,150.8,90.7z"/>
				<path class="st1" d="M72.9,182.6l3.7,3.9c4,4.2,3.8,10.9-0.4,14.9l0,0l-2.3,2.2c-1,0.9-2.5,0.9-3.4-0.1l-14.9-15.7
					c-0.9-1-0.9-2.5,0.1-3.4l2.3-2.2C62.2,178.2,68.9,178.4,72.9,182.6L72.9,182.6z"/>
				<path class="st1" d="M74.1,186.5l-1.3-1.4c-4-4.2-10.6-4.3-14.7-0.4l-0.7,0.6c-0.4,0.4-0.4,1,0,1.3l4.4,4.6l-7.6,7.2
					c-0.8,0.7-0.8,1.9-0.1,2.7c0,0,0,0,0,0l3,3.1c0.7,0.8,1.9,0.8,2.7,0.1c0,0,0,0,0,0l7.6-7.2l4.4,4.6c0.4,0.4,1,0.4,1.3,0
					c0,0,0,0,0,0l0.7-0.6C77.8,197.3,78,190.7,74.1,186.5z"/>
				<path class="st1" d="M215.2,152.9l4.1,3.6c4.4,3.8,4.9,10.5,1.1,14.9l0,0l-2,2.3c-0.9,1-2.4,1.1-3.4,0.2l-16.4-14.2
					c-1-0.9-1.1-2.4-0.2-3.4l2-2.4C204.2,149.6,210.8,149.1,215.2,152.9z"/>
				<path class="st1" d="M216.8,156.7l-1.4-1.2c-4.4-3.8-10.9-3.3-14.7,1.1l-0.6,0.7c-0.3,0.4-0.3,1,0.1,1.3l4.8,4.2l-6.8,7.9
					c-0.7,0.8-0.6,2,0.2,2.7l3.2,2.8c0.8,0.7,2,0.6,2.7-0.2c0,0,0,0,0,0l6.8-7.9l4.8,4.2c0.4,0.3,1,0.3,1.3-0.1l0.6-0.7
					C221.6,167.1,221.1,160.5,216.8,156.7z"/>
				<path class="st1" d="M74,110h5.4c5.8,0,10.6,4.7,10.6,10.6l0,0v3.1c0,1.3-1.1,2.4-2.4,2.4H65.8c-1.3,0-2.4-1.1-2.4-2.4v-3.1
					C63.4,114.7,68.1,110,74,110L74,110z"/>
				<path class="st1" d="M77.6,111.9h-1.9c-5.8,0-10.4,4.7-10.4,10.4v0.9c0,0.5,0.4,0.9,0.9,0.9h6.4v10.4c0,1,0.8,1.9,1.9,1.9
					c0,0,0,0,0,0h4.3c1,0,1.9-0.8,1.9-1.9l0,0v-10.4h6.4c0.5,0,0.9-0.4,0.9-0.9v-0.9C88,116.6,83.4,111.9,77.6,111.9z"/>
				<path class="st1" d="M127.4,162.5l3.5-4.2c3.7-4.5,10.4-5.1,14.9-1.4l0,0l2.4,2c1,0.9,1.2,2.4,0.3,3.4l-13.8,16.7
					c-0.9,1-2.4,1.2-3.4,0.3l-2.4-2C124.3,173.7,123.7,167,127.4,162.5L127.4,162.5z"/>
				<path class="st1" d="M131.2,160.9l-1.2,1.5c-3.7,4.4-3,11,1.4,14.7l0.7,0.6c0.4,0.3,1,0.3,1.3-0.1c0,0,0,0,0,0l4.1-4.9l8,6.6
					c0.8,0.7,2,0.6,2.7-0.2c0,0,0,0,0,0l2.8-3.3c0.7-0.8,0.6-2-0.2-2.7c0,0,0,0,0,0l-8-6.6l4.1-4.9c0.3-0.4,0.3-1-0.1-1.3
					c0,0,0,0,0,0l-0.7-0.6C141.4,155.9,134.8,156.5,131.2,160.9C131.2,160.9,131.2,160.9,131.2,160.9z"/>
				<path class="st1" d="M201.1,96.2l4.8-2.5c5.2-2.7,11.5-0.7,14.3,4.4l0,0l1.5,2.8c0.6,1.2,0.2,2.7-1,3.3l-19.2,10.1
					c-1.2,0.6-2.7,0.2-3.3-1l-1.5-2.8C194,105.3,196,98.9,201.1,96.2z"/>
				<path class="st1" d="M205.3,96.1l-1.7,0.9c-5.1,2.7-7,9-4.4,14.1l0.4,0.8c0.2,0.5,0.8,0.6,1.3,0.4l5.6-3l4.9,9.2
					c0.5,0.9,1.6,1.3,2.6,0.8c0,0,0,0,0,0l3.8-2c0.9-0.5,1.3-1.6,0.8-2.5c0,0,0,0,0,0l-4.9-9.2l5.6-3c0.5-0.2,0.6-0.8,0.4-1.3
					l-0.4-0.8C216.7,95.4,210.4,93.4,205.3,96.1C205.3,96.1,205.3,96.1,205.3,96.1z"/>
				<path class="st1" d="M139.3,3.7l4.3,3.3c4.7,3.5,5.6,10.1,2.1,14.8l-1.9,2.5c-0.8,1.1-2.3,1.3-3.4,0.5l-17.3-13
					c-1.1-0.8-1.3-2.3-0.5-3.4l1.9-2.5C128,1.2,134.6,0.2,139.3,3.7z"/>
				<path class="st1" d="M141.1,7.4l-1.5-1.1C135,2.8,128.5,3.8,125,8.4c0,0,0,0,0,0l-0.6,0.8c-0.3,0.4-0.2,1,0.2,1.3c0,0,0,0,0,0
					l5.1,3.8l-6.2,8.4c-0.6,0.8-0.5,2,0.4,2.6l3.5,2.6c0.8,0.6,2,0.5,2.7-0.4l6.2-8.3l5.1,3.8c0.4,0.3,1,0.2,1.3-0.2l0.6-0.8
					C146.6,17.4,145.7,10.9,141.1,7.4z"/>
				<path class="st1" d="M24,145.1l5.4-0.8c5.8-0.9,11.2,3,12.1,8.8l0,0l0.5,3.1c0.2,1.3-0.7,2.6-2,2.8l-21.4,3.4
					c-1.3,0.2-2.6-0.7-2.8-2l-0.5-3.1C14.3,151.4,18.2,146,24,145.1z"/>
				<path class="st1" d="M27.9,146.4l-1.9,0.3c-5.7,0.9-9.6,6.2-8.7,11.9l0.1,0.9c0.1,0.5,0.5,0.9,1.1,0.8c0,0,0,0,0,0l6.3-1
					l1.6,10.3c0.2,1,1.1,1.7,2.2,1.6c0,0,0,0,0,0l4.3-0.7c1-0.2,1.7-1.1,1.6-2.2c0,0,0,0,0,0l-1.6-10.3l6.3-1
					c0.5-0.1,0.9-0.5,0.8-1.1c0,0,0,0,0,0l-0.2-0.9C39,149.4,33.6,145.5,27.9,146.4C27.9,146.4,27.9,146.4,27.9,146.4z"/>
				<path class="st1" d="M65.7,15.1l4.3-3.4c4.6-3.6,11.2-2.9,14.8,1.7l0,0l1.9,2.4c0.8,1.1,0.7,2.6-0.4,3.4l-17,13.5
					c-1.1,0.8-2.6,0.7-3.4-0.4L64,30C60.4,25.4,61.2,18.7,65.7,15.1C65.7,15.1,65.7,15.1,65.7,15.1z"/>
				<path class="st1" d="M69.8,14.3l-1.5,1.2c-4.5,3.6-5.3,10.1-1.7,14.6l0.6,0.7c0.3,0.4,0.9,0.5,1.3,0.2c0,0,0,0,0,0l5-4l6.5,8.2
					c0.6,0.8,1.8,1,2.7,0.3c0,0,0,0,0,0l3.4-2.7c0.8-0.7,1-1.8,0.3-2.7l-6.5-8.2l5-3.9c0.4-0.3,0.5-0.9,0.2-1.3l-0.6-0.7
					C80.8,11.5,74.3,10.8,69.8,14.3z"/>
				<path class="st1" d="M160.2,221.5l-3.4,4.2c-3.6,4.5-10.3,5.3-14.8,1.6l0,0l-2.4-2c-1-0.8-1.2-2.4-0.4-3.4l13.5-16.9
					c0.8-1,2.4-1.2,3.4-0.4l2.4,2C163.1,210.3,163.8,217,160.2,221.5L160.2,221.5z"/>
				<path class="st1" d="M156.4,223.2l1.2-1.5c3.6-4.5,2.9-11.1-1.6-14.7l-0.7-0.6c-0.4-0.3-1-0.3-1.3,0.1c0,0,0,0,0,0l-4,5
					l-8.1-6.5c-0.8-0.7-2-0.5-2.7,0.3c0,0,0,0,0,0l-2.7,3.4c-0.7,0.8-0.5,2,0.3,2.7c0,0,0,0,0,0l8.1,6.5l-4,5
					c-0.3,0.4-0.3,1,0.1,1.3c0,0,0,0,0,0l0.7,0.6C146.3,228.4,152.8,227.7,156.4,223.2z"/>
				<path class="st1" d="M8.8,100.9l0.5-5.4c0.5-5.8,5.6-10.1,11.4-9.6l3.1,0.3c1.3,0.1,2.3,1.3,2.2,2.6l-1.9,21.6
					c-0.1,1.3-1.3,2.3-2.6,2.2l-3.1-0.3C12.6,111.8,8.3,106.7,8.8,100.9z"/>
				<path class="st1" d="M11,97.4l-0.2,1.9c-0.5,5.7,3.7,10.8,9.5,11.3l0.9,0.1c0.5,0,1-0.3,1-0.9c0,0,0,0,0,0l0.6-6.3l10.4,0.9
					c1,0.1,2-0.7,2.1-1.7l0.4-4.3c0.1-1-0.7-2-1.7-2.1l-10.4-0.9l0.6-6.3c0-0.5-0.3-1-0.9-1c0,0,0,0,0,0l-0.9-0.1
					C16.6,87.4,11.5,91.7,11,97.4z"/>
			</g>
			<path class="st2" d="M39.2,45.2l5.4,0c5.8,0,10.6,4.6,10.6,10.5l0,0l0,3.1c0,1.3-1.1,2.4-2.4,2.5l-21.7,0.2
				c-1.3,0-2.4-1.1-2.5-2.4l0-3.1C28.7,50,33.4,45.3,39.2,45.2z"/>
			<path class="st2" d="M42.9,47.1H41c-5.8,0.1-10.4,4.8-10.3,10.5c0,0,0,0,0,0v0.9c0,0.5,0.4,0.9,1,0.9l6.4,0L38,69.9
				c0,1,0.9,1.9,1.9,1.9c0,0,0,0,0,0l4.3,0c1,0,1.9-0.8,1.9-1.9c0,0,0,0,0,0l-0.1-10.4l6.4,0c0.5,0,0.9-0.4,0.9-1v-0.9
				C53.3,51.7,48.6,47,42.9,47.1z"/>
			<path class="st2" d="M195.6,38.6l5-2c5.4-2.1,11.5,0.6,13.7,6l1.1,2.9c0.5,1.3-0.1,2.7-1.4,3.2l0,0l-20.1,7.9
				c-1.3,0.5-2.7-0.1-3.2-1.4l0,0l-1.1-2.9C187.5,46.8,190.1,40.7,195.6,38.6z"/>
			<path class="st2" d="M199.6,39l-1.8,0.7c-5.4,2.1-8,8.1-5.9,13.5l0.4,0.9c0.2,0.5,0.7,0.7,1.2,0.5l5.9-2.3l3.8,9.7
				c0.4,1,1.5,1.4,2.4,1.1l4-1.6c1-0.4,1.4-1.5,1.1-2.4l-3.8-9.7L213,47c0.5-0.2,0.7-0.7,0.5-1.2l-0.3-0.9
				C211.1,39.6,205.1,36.9,199.6,39C199.7,38.9,199.7,39,199.6,39z"/>
			<path class="st2" d="M146.4,85.5l4.5,3c4.8,3.2,6.1,9.8,2.9,14.6l-1.7,2.6c-0.7,1.1-2.3,1.4-3.4,0.7l-18-12.1
				c-1.1-0.7-1.4-2.3-0.7-3.4l1.7-2.6C135,83.5,141.5,82.2,146.4,85.5z"/>
			<path class="st2" d="M148.4,89.1l-1.6-1.1c-4.8-3.2-11.3-1.9-14.5,2.9l-0.5,0.8c-0.3,0.4-0.2,1,0.3,1.3l5.3,3.5l-5.8,8.7
				c-0.6,0.9-0.3,2,0.5,2.6l3.6,2.4c0.9,0.6,2,0.4,2.6-0.5c0,0,0,0,0,0l5.8-8.7l5.3,3.5c0.4,0.3,1,0.2,1.3-0.2c0,0,0,0,0,0l0.5-0.8
				C154.4,98.8,153.2,92.3,148.4,89.1C148.4,89.1,148.4,89.1,148.4,89.1z"/>
			<path class="st2" d="M70.5,181l3.7,3.9c4,4.2,3.8,10.9-0.4,14.9l-2.3,2.2c-1,0.9-2.5,0.9-3.4-0.1l-14.9-15.7
				c-0.9-1-0.9-2.5,0.1-3.4l2.3-2.2C59.8,176.6,66.5,176.7,70.5,181z"/>
			<path class="st2" d="M71.6,184.9l-1.3-1.4c-4-4.2-10.6-4.3-14.7-0.4l-0.7,0.6c-0.4,0.4-0.4,1,0,1.3l4.4,4.6l-7.6,7.2
				c-0.8,0.7-0.8,1.9-0.1,2.7c0,0,0,0,0,0l3,3.1c0.7,0.8,1.9,0.8,2.7,0.1c0,0,0,0,0,0l7.6-7.2l4.4,4.6c0.4,0.4,1,0.4,1.3,0
				c0,0,0,0,0,0l0.7-0.6C75.4,195.6,75.6,189.1,71.6,184.9z"/>
			<path class="st2" d="M212.8,151.3l4.1,3.6c4.4,3.8,4.9,10.5,1.1,14.9l0,0l-2,2.3c-0.9,1-2.4,1.1-3.4,0.2l-16.4-14.2
				c-1-0.9-1.1-2.4-0.2-3.4l2-2.4C201.8,147.9,208.4,147.5,212.8,151.3L212.8,151.3z"/>
			<path class="st2" d="M214.3,155.1l-1.4-1.2c-4.4-3.8-10.9-3.3-14.7,1.1l-0.6,0.7c-0.3,0.4-0.3,1,0.1,1.3l4.8,4.2l-6.8,7.9
				c-0.7,0.8-0.6,2,0.2,2.7l3.2,2.8c0.8,0.7,2,0.6,2.7-0.2c0,0,0,0,0,0l6.8-7.9l4.8,4.2c0.4,0.3,1,0.3,1.3-0.1l0.6-0.7
				C219.2,165.5,218.7,158.9,214.3,155.1z"/>
			<path class="st2" d="M71.5,108.4h5.4c5.8,0,10.6,4.7,10.6,10.6v3.1c0,1.3-1.1,2.4-2.4,2.4H63.4c-1.3,0-2.4-1.1-2.4-2.4V119
				C61,113.1,65.7,108.4,71.5,108.4z"/>
			<path class="st2" d="M75.2,110.3h-1.9c-5.8,0-10.4,4.7-10.4,10.4v0.9c0,0.5,0.4,0.9,0.9,0.9h6.4V133c0,1,0.8,1.9,1.9,1.9
				c0,0,0,0,0,0h4.3c1,0,1.9-0.8,1.9-1.9l0,0v-10.4h6.4c0.5,0,0.9-0.4,0.9-0.9v-0.9C85.6,115,80.9,110.3,75.2,110.3z"/>
			<path class="st2" d="M125.2,161.7l3.5-4.2c3.7-4.5,10.4-5.1,14.9-1.4l2.4,2c1,0.9,1.2,2.4,0.3,3.4l-13.9,16.7
				c-0.9,1-2.4,1.2-3.4,0.3l-2.4-2C122.1,172.8,121.5,166.2,125.2,161.7z"/>
			<path class="st2" d="M128.7,159.3l-1.2,1.5c-3.7,4.4-3,11,1.4,14.7l0.7,0.6c0.4,0.3,1,0.3,1.3-0.1c0,0,0,0,0,0l4.1-4.9l8,6.6
				c0.8,0.7,2,0.6,2.7-0.2c0,0,0,0,0,0l2.8-3.3c0.7-0.8,0.6-2-0.2-2.7c0,0,0,0,0,0l-8-6.6l4.1-4.9c0.3-0.4,0.3-1-0.1-1.3
				c0,0,0,0,0,0l-0.7-0.6C139,154.2,132.4,154.9,128.7,159.3C128.7,159.3,128.7,159.3,128.7,159.3z"/>
			<path class="st2" d="M198.7,94.5l4.8-2.5c5.2-2.7,11.5-0.7,14.3,4.4l1.5,2.8c0.6,1.2,0.2,2.7-1,3.3l-19.2,10.1
				c-1.2,0.6-2.7,0.2-3.3-1l-1.5-2.8C191.6,103.6,193.6,97.2,198.7,94.5z"/>
			<path class="st2" d="M202.8,94.5l-1.7,0.9c-5.1,2.7-7,9-4.4,14.1l0.4,0.8c0.2,0.5,0.8,0.6,1.3,0.4l5.6-3l4.9,9.2
				c0.5,0.9,1.6,1.3,2.6,0.8c0,0,0,0,0,0l3.8-2c0.9-0.5,1.3-1.6,0.8-2.5c0,0,0,0,0,0l-4.9-9.2l5.6-3c0.5-0.2,0.6-0.8,0.4-1.3
				l-0.4-0.8C214.3,93.8,208,91.8,202.8,94.5C202.9,94.5,202.8,94.5,202.8,94.5z"/>
			<path class="st2" d="M136.8,2.1l4.3,3.3c4.7,3.5,5.6,10.1,2.1,14.8l-1.9,2.5c-0.8,1.1-2.3,1.3-3.4,0.5l-17.3-13
				c-1.1-0.8-1.3-2.3-0.5-3.4l1.9-2.5C125.6-0.4,132.2-1.4,136.8,2.1z"/>
			<path class="st2" d="M138.6,5.8l-1.5-1.1c-4.6-3.5-11.1-2.5-14.6,2.1c0,0,0,0,0,0L122,7.5c-0.3,0.4-0.2,1,0.2,1.3c0,0,0,0,0,0
				l5.1,3.8L121,21c-0.6,0.8-0.5,2,0.4,2.6l3.5,2.6c0.8,0.6,2,0.5,2.7-0.4l6.2-8.3l5.1,3.8c0.4,0.3,1,0.2,1.3-0.2l0.6-0.8
				C144.2,15.8,143.2,9.3,138.6,5.8z"/>
			<path class="st2" d="M22.2,143.7l5.4-0.9c5.8-0.9,11.2,3,12.1,8.8l0.5,3.1c0.2,1.3-0.7,2.6-2,2.8L16.7,161
				c-1.3,0.2-2.6-0.7-2.8-2l-0.5-3.1C12.5,150.1,16.4,144.7,22.2,143.7z"/>
			<path class="st2" d="M25.5,144.8l-1.9,0.3c-5.7,0.9-9.6,6.2-8.7,11.9l0.1,0.9c0.1,0.5,0.5,0.9,1.1,0.8c0,0,0,0,0,0l6.3-1
				l1.6,10.3c0.2,1,1.1,1.7,2.2,1.6c0,0,0,0,0,0l4.3-0.7c1-0.2,1.7-1.1,1.6-2.2c0,0,0,0,0,0l-1.6-10.3l6.3-1
				c0.5-0.1,0.9-0.5,0.8-1.1c0,0,0,0,0,0l-0.2-0.9C36.5,147.8,31.2,143.9,25.5,144.8C25.5,144.8,25.5,144.8,25.5,144.8z"/>
			<path class="st2" d="M62.8,14.7l4.3-3.4c4.6-3.6,11.2-2.9,14.8,1.7l0,0l1.9,2.4c0.8,1.1,0.7,2.6-0.4,3.4l-17,13.5
				c-1.1,0.8-2.6,0.7-3.4-0.4l-1.9-2.4C57.5,24.9,58.3,18.3,62.8,14.7C62.8,14.7,62.8,14.7,62.8,14.7z"/>
			<path class="st2" d="M66.9,13.9l-1.5,1.2c-4.5,3.6-5.3,10.1-1.7,14.6l0.6,0.7c0.3,0.4,0.9,0.5,1.3,0.2c0,0,0,0,0,0l5-4l6.5,8.2
				c0.6,0.8,1.8,1,2.7,0.3c0,0,0,0,0,0l3.4-2.7c0.8-0.7,1-1.8,0.3-2.7L77,21.6l5-3.9c0.4-0.3,0.5-0.9,0.2-1.3l-0.6-0.7
				C78,11.1,71.4,10.3,66.9,13.9z"/>
			<path class="st2" d="M157.7,219.9l-3.4,4.2c-3.6,4.5-10.3,5.3-14.8,1.6l0,0l-2.4-2c-1-0.8-1.2-2.4-0.4-3.4l13.5-16.9
				c0.8-1,2.4-1.2,3.4-0.4l2.4,2C160.7,208.7,161.4,215.4,157.7,219.9L157.7,219.9z"/>
			<path class="st2" d="M154,221.6l1.2-1.5c3.6-4.5,2.9-11.1-1.6-14.7l-0.7-0.6c-0.4-0.3-1-0.3-1.3,0.1c0,0,0,0,0,0l-4,5l-8.1-6.5
				c-0.8-0.7-2-0.5-2.7,0.3c0,0,0,0,0,0l-2.7,3.4c-0.7,0.8-0.5,2,0.3,2.7c0,0,0,0,0,0l8.1,6.5l-4,5c-0.3,0.4-0.3,1,0.1,1.3
				c0,0,0,0,0,0l0.7,0.6C143.8,226.8,150.4,226,154,221.6z"/>
			<path class="st2" d="M5.9,100.5L6.4,95c0.5-5.8,5.6-10.1,11.4-9.6l0,0l3.1,0.3c1.3,0.1,2.3,1.3,2.2,2.6l0,0l-1.9,21.6
				c-0.1,1.3-1.3,2.3-2.6,2.2l0,0l-3.1-0.3C9.7,111.4,5.4,106.3,5.9,100.5L5.9,100.5z"/>
			<path class="st2" d="M8.1,97L8,98.8c-0.5,5.7,3.7,10.8,9.5,11.3l0.9,0.1c0.5,0,1-0.3,1-0.9c0,0,0,0,0,0L20,103l10.4,0.9
				c1,0.1,2-0.7,2.1-1.7l0.4-4.3c0.1-1-0.7-2-1.7-2.1l-10.4-0.9l0.6-6.3c0-0.5-0.3-1-0.9-1c0,0,0,0,0,0l-0.9-0.1
				C13.7,87,8.6,91.2,8.1,97z"/>
		</g>
	</g>
</g>
<path class="st3" d="M99.1,54l4.3-3.4c4.6-3.6,11.2-2.9,14.8,1.7l0,0l1.9,2.4c0.8,1.1,0.7,2.6-0.4,3.4l-17,13.5
	c-1.1,0.8-2.6,0.7-3.4-0.4l-1.9-2.4C93.8,64.3,94.5,57.6,99.1,54C99.1,54,99.1,54,99.1,54z"/>
<path class="st4" d="M103.2,53.2l-1.5,1.2c-4.5,3.6-5.3,10.1-1.7,14.6l0.6,0.7c0.3,0.4,0.9,0.5,1.3,0.2c0,0,0,0,0,0l5-4l6.5,8.2
	c0.6,0.8,1.8,1,2.7,0.3c0,0,0,0,0,0l3.4-2.7c0.8-0.7,1-1.8,0.3-2.7l-6.5-8.2l5-3.9c0.4-0.3,0.5-0.9,0.2-1.3l-0.6-0.7
	C114.2,50.4,107.7,49.7,103.2,53.2z"/>
<path class="st2" d="M96.2,53.6l4.3-3.4c4.6-3.6,11.2-2.9,14.8,1.7l0,0l1.9,2.4c0.8,1.1,0.7,2.6-0.4,3.4l-17,13.5
	c-1.1,0.8-2.6,0.7-3.4-0.4l-1.9-2.4C90.9,63.8,91.6,57.2,96.2,53.6C96.2,53.6,96.2,53.6,96.2,53.6z"/>
<path class="st2" d="M100.3,52.8L98.8,54c-4.5,3.6-5.3,10.1-1.7,14.6l0.6,0.7c0.3,0.4,0.9,0.5,1.3,0.2c0,0,0,0,0,0l5-4l6.5,8.2
	c0.6,0.8,1.8,1,2.7,0.3c0,0,0,0,0,0l3.4-2.7c0.8-0.7,1-1.8,0.3-2.7l-6.5-8.2l5-3.9c0.4-0.3,0.5-0.9,0.2-1.3l-0.6-0.7
	C111.3,50,104.8,49.2,100.3,52.8z"/>
</svg>
