<?xml version="1.0" encoding="utf-8"?>
<!-- Generator: Adobe Illustrator 27.7.0, SVG Export Plug-In . SVG Version: 6.00 Build 0)  -->
<svg version="1.1" id="Layer_1" xmlns="http://www.w3.org/2000/svg" xmlns:xlink="http://www.w3.org/1999/xlink" x="0px" y="0px"
	 viewBox="0 0 223 222.1" style="enable-background:new 0 0 223 222.1;" xml:space="preserve">
<style type="text/css">
	.st0{opacity:0.2;}
	.st1{fill:#534741;}
	.st2{fill:#3E2723;}
</style>
<g id="Layer_2_00000136406874512835788160000013409816502129196448_">
	<g id="Toppings">
		<g id="Olives">
			<g id="Olives-2" class="st0">
				<path class="st1" d="M76.5,7.7c-4.6,0-8.3,3.7-8.3,8.3c0,4.6,3.7,8.3,8.3,8.3c4.6,0,8.3-3.7,8.3-8.3c0,0,0,0,0,0
					C84.8,11.4,81.1,7.7,76.5,7.7C76.5,7.7,76.5,7.7,76.5,7.7z M76.5,19.7c-2.1,0-3.7-1.7-3.7-3.7c0-2.1,1.7-3.7,3.7-3.7
					c2.1,0,3.7,1.7,3.7,3.7c0,0,0,0,0,0C80.2,18.1,78.5,19.7,76.5,19.7L76.5,19.7z"/>
				<path class="st1" d="M15.3,77.9c-4.6,0-8.3,3.7-8.3,8.3c0,4.6,3.7,8.3,8.3,8.3s8.3-3.7,8.3-8.3c0,0,0,0,0,0
					C23.6,81.6,19.9,77.9,15.3,77.9C15.3,77.9,15.3,77.9,15.3,77.9z M15.3,89.9c-2.1,0-3.7-1.7-3.7-3.7c0-2.1,1.7-3.7,3.7-3.7
					c2.1,0,3.7,1.7,3.7,3.7c0,0,0,0,0,0C19,88.3,17.3,89.9,15.3,89.9C15.3,89.9,15.3,89.9,15.3,89.9z"/>
				<path class="st1" d="M90,199.4c-4.6,0-8.3,3.7-8.3,8.3s3.7,8.3,8.3,8.3c4.6,0,8.3-3.7,8.3-8.3c0,0,0,0,0,0
					C98.3,203.1,94.6,199.4,90,199.4C90,199.4,90,199.4,90,199.4z M90,211.4c-2.1,0-3.7-1.7-3.7-3.7c0-2.1,1.7-3.7,3.7-3.7
					c2.1,0,3.7,1.7,3.7,3.7c0,0,0,0,0,0C93.7,209.8,92,211.4,90,211.4z"/>
				<path class="st1" d="M208.8,133.7c-4.6,0-8.3,3.7-8.3,8.3c0,4.6,3.7,8.3,8.3,8.3c4.6,0,8.3-3.7,8.3-8.3c0,0,0,0,0,0
					C217.1,137.4,213.4,133.7,208.8,133.7C208.8,133.7,208.8,133.7,208.8,133.7z M208.8,145.7c-2.1,0-3.7-1.7-3.7-3.7
					c0-2.1,1.7-3.7,3.7-3.7c2.1,0,3.7,1.7,3.7,3.7c0,0,0,0,0,0C212.5,144.1,210.9,145.7,208.8,145.7z"/>
				<path class="st1" d="M167.4,27.5c-4.6,0-8.3,3.7-8.3,8.3c0,4.6,3.7,8.3,8.3,8.3c4.6,0,8.3-3.7,8.3-8.3c0,0,0,0,0,0
					C175.7,31.2,172,27.5,167.4,27.5C167.4,27.5,167.4,27.5,167.4,27.5z M167.4,39.5c-2.1,0-3.7-1.7-3.7-3.7c0-2.1,1.7-3.7,3.7-3.7
					s3.7,1.7,3.7,3.7c0,0,0,0,0,0C171.1,37.9,169.5,39.5,167.4,39.5z"/>
				<path class="st1" d="M141.3,140c-4.6,0-8.3,3.7-8.3,8.3c0,4.6,3.7,8.3,8.3,8.3c4.6,0,8.3-3.7,8.3-8.3c0,0,0,0,0,0
					C149.6,143.7,145.9,140,141.3,140C141.3,140,141.3,140,141.3,140z M141.3,152c-2.1,0-3.7-1.7-3.7-3.7c0-2.1,1.7-3.7,3.7-3.7
					s3.7,1.7,3.7,3.7c0,0,0,0,0,0C145,150.4,143.4,152,141.3,152z"/>
				<path class="st1" d="M108.9,71.6c-4.6,0-8.3,3.7-8.3,8.3s3.7,8.3,8.3,8.3s8.3-3.7,8.3-8.3c0,0,0,0,0,0
					C117.2,75.3,113.5,71.6,108.9,71.6C108.9,71.6,108.9,71.6,108.9,71.6z M108.9,83.6c-2.1,0-3.7-1.7-3.7-3.7
					c0-2.1,1.7-3.7,3.7-3.7c2.1,0,3.7,1.7,3.7,3.7c0,0,0,0,0,0C112.6,82,110.9,83.6,108.9,83.6L108.9,83.6z"/>
				<path class="st1" d="M56.7,126.5c-4.6,0-8.3,3.7-8.3,8.3s3.7,8.3,8.3,8.3c4.6,0,8.3-3.7,8.3-8.3c0,0,0,0,0,0
					C65,130.2,61.3,126.5,56.7,126.5C56.7,126.5,56.7,126.5,56.7,126.5z M56.7,138.5c-2.1,0-3.7-1.7-3.7-3.7c0-2.1,1.7-3.7,3.7-3.7
					c2.1,0,3.7,1.7,3.7,3.7c0,0,0,0,0,0C60.4,136.9,58.7,138.5,56.7,138.5z"/>
			</g>
			<g id="Olives-3">
				<path class="st2" d="M75.4,6.1c-4.6,0-8.3,3.7-8.3,8.3s3.7,8.3,8.3,8.3c4.6,0,8.3-3.7,8.3-8.3c0,0,0,0,0,0
					C83.7,9.8,80,6.1,75.4,6.1C75.4,6.1,75.4,6.1,75.4,6.1z M75.4,18.1c-2.1,0-3.7-1.7-3.7-3.7c0-2.1,1.7-3.7,3.7-3.7
					c2.1,0,3.7,1.7,3.7,3.7c0,0,0,0,0,0C79.1,16.4,77.5,18.1,75.4,18.1L75.4,18.1z"/>
				<path class="st2" d="M14.2,76.3c-4.6,0-8.3,3.7-8.3,8.3c0,4.6,3.7,8.3,8.3,8.3s8.3-3.7,8.3-8.3c0,0,0,0,0,0
					C22.5,80,18.8,76.3,14.2,76.3C14.2,76.3,14.2,76.3,14.2,76.3z M14.2,88.3c-2.1,0-3.7-1.7-3.7-3.7c0-2.1,1.7-3.7,3.7-3.7
					c2.1,0,3.7,1.7,3.7,3.7c0,0,0,0,0,0C17.9,86.6,16.3,88.3,14.2,88.3C14.2,88.3,14.2,88.3,14.2,88.3z"/>
				<path class="st2" d="M88.9,197.8c-4.6,0-8.3,3.7-8.3,8.3c0,4.6,3.7,8.3,8.3,8.3c4.6,0,8.3-3.7,8.3-8.3c0,0,0,0,0,0
					C97.2,201.5,93.5,197.8,88.9,197.8C88.9,197.8,88.9,197.8,88.9,197.8z M88.9,209.8c-2.1,0-3.7-1.7-3.7-3.7
					c0-2.1,1.7-3.7,3.7-3.7c2.1,0,3.7,1.7,3.7,3.7c0,0,0,0,0,0C92.6,208.2,91,209.8,88.9,209.8z"/>
				<path class="st2" d="M207.7,132.1c-4.6,0-8.3,3.7-8.3,8.3c0,4.6,3.7,8.3,8.3,8.3c4.6,0,8.3-3.7,8.3-8.3c0,0,0,0,0,0
					C216,135.8,212.3,132.1,207.7,132.1C207.7,132.1,207.7,132.1,207.7,132.1z M207.7,144.1c-2.1,0-3.7-1.7-3.7-3.7
					c0-2.1,1.7-3.7,3.7-3.7s3.7,1.7,3.7,3.7c0,0,0,0,0,0C211.4,142.4,209.8,144.1,207.7,144.1z"/>
				<path class="st2" d="M166.3,25.9c-4.6,0-8.3,3.7-8.3,8.3c0,4.6,3.7,8.3,8.3,8.3c4.6,0,8.3-3.7,8.3-8.3c0,0,0,0,0,0
					C174.6,29.6,170.9,25.9,166.3,25.9C166.3,25.9,166.3,25.9,166.3,25.9z M166.3,37.9c-2.1,0-3.7-1.7-3.7-3.7s1.7-3.7,3.7-3.7
					s3.7,1.7,3.7,3.7c0,0,0,0,0,0C170,36.2,168.4,37.9,166.3,37.9z"/>
				<path class="st2" d="M140.2,138.4c-4.6,0-8.3,3.7-8.3,8.3c0,4.6,3.7,8.3,8.3,8.3c4.6,0,8.3-3.7,8.3-8.3c0,0,0,0,0,0
					C148.5,142.1,144.8,138.4,140.2,138.4C140.2,138.4,140.2,138.4,140.2,138.4z M140.2,150.4c-2.1,0-3.7-1.7-3.7-3.7
					c0-2.1,1.7-3.7,3.7-3.7c2.1,0,3.7,1.7,3.7,3.7c0,0,0,0,0,0C143.9,148.7,142.3,150.4,140.2,150.4z"/>
				<path class="st2" d="M107.8,70c-4.6,0-8.3,3.7-8.3,8.3c0,4.6,3.7,8.3,8.3,8.3c4.6,0,8.3-3.7,8.3-8.3c0,0,0,0,0,0
					C116.1,73.7,112.4,70,107.8,70C107.8,70,107.8,70,107.8,70z M107.8,82c-2.1,0-3.7-1.7-3.7-3.7c0-2.1,1.7-3.7,3.7-3.7
					c2.1,0,3.7,1.7,3.7,3.7c0,0,0,0,0,0C111.5,80.3,109.9,82,107.8,82L107.8,82z"/>
				<path class="st2" d="M55.6,124.9c-4.6,0-8.3,3.7-8.3,8.3s3.7,8.3,8.3,8.3c4.6,0,8.3-3.7,8.3-8.3c0,0,0,0,0,0
					C63.9,128.6,60.2,124.9,55.6,124.9C55.6,124.9,55.6,124.9,55.6,124.9z M55.6,136.9c-2.1,0-3.7-1.7-3.7-3.7
					c0-2.1,1.7-3.7,3.7-3.7c2.1,0,3.7,1.7,3.7,3.7c0,0,0,0,0,0C59.3,135.2,57.7,136.9,55.6,136.9z"/>
			</g>
		</g>
	</g>
</g>
<path class="st2" d="M41.4,52.3c-4.6,0-8.3,3.7-8.3,8.3c0,4.6,3.7,8.3,8.3,8.3s8.3-3.7,8.3-8.3c0,0,0,0,0,0
	C49.7,56,46,52.3,41.4,52.3C41.4,52.3,41.4,52.3,41.4,52.3z M41.4,64.3c-2.1,0-3.7-1.7-3.7-3.7c0-2.1,1.7-3.7,3.7-3.7
	c2.1,0,3.7,1.7,3.7,3.7c0,0,0,0,0,0C45.1,62.7,43.5,64.3,41.4,64.3C41.4,64.3,41.4,64.3,41.4,64.3z"/>
<path class="st2" d="M172.2,94.5c-4.6,0-8.3,3.7-8.3,8.3c0,4.6,3.7,8.3,8.3,8.3s8.3-3.7,8.3-8.3c0,0,0,0,0,0
	C180.5,98.2,176.8,94.5,172.2,94.5C172.2,94.5,172.2,94.5,172.2,94.5z M172.2,106.5c-2.1,0-3.7-1.7-3.7-3.7c0-2.1,1.7-3.7,3.7-3.7
	c2.1,0,3.7,1.7,3.7,3.7c0,0,0,0,0,0C175.9,104.9,174.2,106.5,172.2,106.5C172.2,106.5,172.2,106.5,172.2,106.5z"/>
<path class="st2" d="M95.4,151.7c-4.6,0-8.3,3.7-8.3,8.3s3.7,8.3,8.3,8.3c4.6,0,8.3-3.7,8.3-8.3c0,0,0,0,0,0
	C103.7,155.4,100,151.7,95.4,151.7C95.4,151.7,95.4,151.7,95.4,151.7z M95.4,163.7c-2.1,0-3.7-1.7-3.7-3.7c0-2.1,1.7-3.7,3.7-3.7
	c2.1,0,3.7,1.7,3.7,3.7c0,0,0,0,0,0C99.1,162.1,97.5,163.7,95.4,163.7C95.4,163.7,95.4,163.7,95.4,163.7z"/>
</svg>
