<?xml version="1.0" encoding="utf-8"?>
<!-- Generator: Adobe Illustrator 27.7.0, SVG Export Plug-In . SVG Version: 6.00 Build 0)  -->
<svg version="1.1" id="Layer_1" xmlns="http://www.w3.org/2000/svg" xmlns:xlink="http://www.w3.org/1999/xlink" x="0px" y="0px"
	 viewBox="0 0 263 255.8" style="enable-background:new 0 0 263 255.8;" xml:space="preserve">
<style type="text/css">
	.st0{opacity:0.1;}
	.st1{fill:#534741;}
	.st2{fill:#E84118;}
</style>
<g id="Layer_2_00000047058099582179973910000008168581931662702266_">
	<g id="Toppings">
		<g id="Red_peppers">
			<g id="Red_peppers-2" class="st0">
				<path class="st1" d="M66.1,10.1c-5-6.1-13.4-4.3-15.4,3.4c-6.1,5-4.3,13.4,3.4,15.4c5,6.1,13.4,4.3,15.4-3.4
					C75.6,20.4,73.8,12,66.1,10.1z M67,23.8c-1.4,5.6-7.6,7-11.3,2.5c-5.6-1.4-7-7.6-2.5-11.3c1.4-5.6,7.6-7,11.3-2.5
					C70.1,14,71.5,20.2,67,23.8z"/>
				<path class="st1" d="M200.5,38.7c-5.4-5.9-13.7-3.5-15.2,4.3c-5.9,5.4-3.5,13.7,4.3,15.2c5.3,5.9,13.7,3.5,15.2-4.3
					C210.6,48.5,208.3,40.2,200.5,38.7z M202.2,52.4c-1.1,5.7-7.2,7.4-11.1,3.1c-5.6-1.1-7.4-7.2-3.1-11.1c1.1-5.7,7.2-7.4,11.1-3.1
					C204.7,42.4,206.4,48.5,202.2,52.4z"/>
				<path class="st1" d="M175.7,180.3c-3.2-6.3-11-6.3-14.2,0.1c-6.3,3.2-6.3,11,0.1,14.2c3.2,6.3,11,6.3,14.2-0.1
					C182.1,191.2,182.1,183.5,175.7,180.3z M173.9,192.6c-2.3,4.7-8,4.7-10.4,0.1c-4.7-2.3-4.7-8-0.1-10.4c2.3-4.7,8-4.7,10.4-0.1
					C178.5,184.5,178.6,190.2,173.9,192.6L173.9,192.6z"/>
				<path class="st1" d="M98.3,90.2c-5.1-6-13.5-4-15.3,3.7c-6,5.1-4,13.5,3.7,15.3c5.1,6,13.5,4,15.3-3.7
					C108,100.4,106,92.1,98.3,90.2z M99.4,104c-1.3,5.6-7.5,7.1-11.2,2.7c-5.6-1.3-7.1-7.5-2.7-11.2c1.3-5.7,7.5-7.1,11.2-2.7
					C102.4,94.1,103.9,100.3,99.4,104z"/>
				<path class="st1" d="M63.6,162.9c-3.9-6.9-12.5-6.5-15.8,0.8c-6.9,3.9-6.5,12.5,0.8,15.8c3.9,6.9,12.5,6.5,15.8-0.8
					C71.3,174.7,70.9,166.1,63.6,162.9z M62.2,176.7c-2.3,5.3-8.7,5.6-11.6,0.6c-5.3-2.3-5.6-8.7-0.6-11.6c2.3-5.3,8.7-5.6,11.6-0.6
					C66.9,167.5,67.2,173.8,62.2,176.7z"/>
				<path class="st1" d="M222.5,118.1c-5.2-4.9-12.5-2.3-13.3,4.8c-4.9,5.2-2.3,12.5,4.8,13.3c5.2,4.9,12.5,2.3,13.3-4.8
					C232.2,126.2,229.6,118.9,222.5,118.1z M224.9,130.3c-0.6,5.2-6,7.1-9.8,3.5c-5.2-0.6-7.1-6-3.5-9.8c0.6-5.2,6-7.1,9.8-3.5
					C226.6,121.1,228.5,126.5,224.9,130.3z"/>
				<path class="st1" d="M131.2,50.7c2.9-6.5-2.1-12.5-9-10.9c-6.5-2.9-12.5,2.1-10.9,9c-2.9,6.5,2.1,12.5,9,10.9
					C126.8,62.6,132.8,57.7,131.2,50.7z M120.5,57.1c-5.1,1.2-8.7-3.2-6.6-8c-1.1-5.1,3.2-8.7,8-6.6c5.1-1.2,8.7,3.2,6.6,8
					C129.7,55.6,125.3,59.1,120.5,57.1L120.5,57.1z"/>
				<path class="st1" d="M260.5,48.7c-0.7-7.9-8.7-11.1-14.6-5.9c-7.9,0.7-11.1,8.7-5.9,14.6c0.7,7.9,8.7,11.1,14.6,5.9
					C262.5,62.6,265.7,54.6,260.5,48.7z M253.4,60.6c-4.4,3.8-10.2,1.5-10.7-4.3c-3.8-4.4-1.5-10.2,4.3-10.7
					c4.4-3.8,10.2-1.5,10.7,4.3C261.5,54.2,259.2,60.1,253.4,60.6z"/>
				<path class="st1" d="M141.7,229.1c-6.8-4.1-14.1,0.5-13.3,8.4c-4.1,6.8,0.5,14.1,8.4,13.3c6.8,4.1,14.1-0.5,13.3-8.4
					C154.2,235.7,149.6,228.4,141.7,229.1z M147.3,241.8c0.6,5.8-4.8,9.2-9.8,6.2c-5.8,0.6-9.2-4.8-6.2-9.8
					c-0.6-5.8,4.8-9.2,9.8-6.2C146.9,231.5,150.3,236.8,147.3,241.8L147.3,241.8z"/>
				<path class="st1" d="M45.9,100.3c-0.5-7.1-7.7-10.1-13.1-5.5c-7.1,0.5-10.1,7.7-5.5,13.1c0.5,7.1,7.7,10.1,13.1,5.5
					C47.6,112.9,50.6,105.8,45.9,100.3z M39.5,111c-4,3.4-9.2,1.2-9.6-4c-3.4-4-1.2-9.2,4-9.6c4-3.4,9.2-1.2,9.6,4
					C46.9,105.3,44.7,110.6,39.5,111z"/>
			</g>
			<g id="Red_peppers-3">
				<path class="st2" d="M62.2,7.1c-5-6.1-13.4-4.3-15.4,3.4c-6.1,5-4.3,13.4,3.4,15.4c5,6.1,13.4,4.3,15.4-3.4
					C71.7,17.5,69.9,9.1,62.2,7.1z M63.1,20.9c-1.4,5.6-7.6,7-11.3,2.5c-5.6-1.4-7-7.6-2.5-11.3c1.4-5.6,7.6-7,11.3-2.5
					C66.2,11.1,67.6,17.2,63.1,20.9z"/>
				<path class="st2" d="M196.6,35.8c-5.4-5.9-13.7-3.5-15.2,4.3c-5.9,5.4-3.5,13.7,4.3,15.2c5.3,5.9,13.7,3.5,15.2-4.3
					C206.7,45.6,204.3,37.3,196.6,35.8z M198.3,49.5c-1.1,5.7-7.2,7.4-11.1,3.1c-5.6-1.1-7.4-7.2-3.1-11.1c1.1-5.7,7.2-7.4,11.1-3.1
					C200.8,39.5,202.5,45.6,198.3,49.5z"/>
				<path class="st2" d="M171.6,178.7c-3.2-6.3-11-6.3-14.2,0.1c-6.3,3.2-6.3,11,0.1,14.2c3.2,6.3,11,6.3,14.2-0.1
					C178.1,189.6,178,181.8,171.6,178.7z M169.8,191c-2.3,4.7-8,4.7-10.4,0.1c-4.7-2.3-4.7-8-0.1-10.4c2.3-4.7,8-4.7,10.4-0.1
					C174.4,182.9,174.5,188.6,169.8,191L169.8,191z"/>
				<path class="st2" d="M94.4,87.3c-5.1-6-13.5-4-15.3,3.7c-6,5.1-4,13.5,3.7,15.3c5.1,6,13.5,4,15.3-3.7
					C104.1,97.5,102.1,89.1,94.4,87.3z M95.5,101.1c-1.3,5.6-7.5,7.1-11.2,2.7c-5.6-1.3-7.1-7.5-2.7-11.2c1.3-5.7,7.5-7.1,11.2-2.7
					C98.5,91.2,100,97.3,95.5,101.1z"/>
				<path class="st2" d="M58.8,161.9c-3.9-6.9-12.5-6.5-15.8,0.8c-6.9,3.9-6.5,12.5,0.8,15.8c3.9,6.9,12.5,6.5,15.8-0.8
					C66.5,173.7,66.1,165.1,58.8,161.9z M57.4,175.7c-2.3,5.3-8.7,5.6-11.6,0.6c-5.3-2.3-5.6-8.7-0.6-11.6c2.3-5.3,8.7-5.6,11.6-0.6
					C62.2,166.5,62.5,172.8,57.4,175.7z"/>
				<path class="st2" d="M219,115.4c-5.2-4.9-12.5-2.3-13.3,4.8c-4.9,5.2-2.3,12.5,4.8,13.3c5.2,4.9,12.5,2.3,13.3-4.8
					C228.7,123.6,226.1,116.3,219,115.4z M221.4,127.6c-0.6,5.2-6,7.1-9.8,3.5c-5.2-0.6-7.1-6-3.5-9.8c0.6-5.2,6-7.1,9.8-3.5
					C223.1,118.5,225,123.8,221.4,127.6z"/>
				<path class="st2" d="M127.7,48.1c2.9-6.5-2.1-12.5-9-10.9c-6.5-2.9-12.5,2.1-10.9,9c-2.9,6.5,2.1,12.5,9,10.9
					C123.3,60,129.3,55,127.7,48.1z M117,54.4c-5.1,1.2-8.7-3.2-6.6-8c-1.1-5.1,3.2-8.7,8-6.6c5.1-1.2,8.7,3.2,6.6,8
					C126.2,52.9,121.8,56.5,117,54.4L117,54.4z"/>
				<path class="st2" d="M256.6,45.8c-0.7-7.9-8.7-11.1-14.6-5.9c-7.9,0.7-11.1,8.7-5.9,14.6c0.7,7.9,8.7,11.1,14.6,5.9
					C258.6,59.7,261.8,51.7,256.6,45.8z M249.5,57.6c-4.4,3.8-10.2,1.5-10.7-4.3c-3.8-4.4-1.5-10.2,4.3-10.7
					c4.4-3.8,10.2-1.5,10.7,4.3C257.6,51.3,255.3,57.1,249.5,57.6L249.5,57.6z"/>
				<path class="st2" d="M137.8,226.2c-6.8-4.1-14.1,0.5-13.3,8.4c-4.1,6.8,0.5,14.1,8.4,13.3c6.8,4.1,14.1-0.5,13.3-8.4
					C150.3,232.8,145.7,225.4,137.8,226.2z M143.4,238.9c0.6,5.8-4.8,9.2-9.8,6.2c-5.8,0.6-9.2-4.8-6.2-9.8
					c-0.6-5.8,4.8-9.2,9.8-6.2C143,228.5,146.4,233.9,143.4,238.9L143.4,238.9z"/>
				<path class="st2" d="M42.4,97.7c-0.5-7.1-7.7-10.1-13.1-5.5c-7.1,0.5-10.1,7.7-5.5,13.1c0.5,7.1,7.7,10.1,13.1,5.5
					C44.1,110.3,47.1,103.1,42.4,97.7z M35.9,108.3c-4,3.4-9.2,1.2-9.6-4c-3.4-4-1.2-9.2,4-9.6c4-3.4,9.2-1.2,9.6,4
					C43.4,102.7,41.2,108,35.9,108.3z"/>
			</g>
		</g>
	</g>
</g>
</svg>
