<?xml version="1.0" encoding="utf-8"?>
<!-- Generator: Adobe Illustrator 27.7.0, SVG Export Plug-In . SVG Version: 6.00 Build 0)  -->
<svg version="1.1" id="Layer_1" xmlns="http://www.w3.org/2000/svg" xmlns:xlink="http://www.w3.org/1999/xlink" x="0px" y="0px"
	 viewBox="0 0 240 229.6" style="enable-background:new 0 0 240 229.6;" xml:space="preserve">
<style type="text/css">
	.st0{opacity:0.2;}
	.st1{fill:#534741;}
	.st2{fill:#BE3333;}
	.st3{fill:#E1A0A0;}
</style>
<g id="Layer_2_00000039815306752846664170000011468525533603341737_">
	<g id="Toppings">
		<g id="Salami">
			<g id="Salami-2" class="st0">
				<circle class="st1" cx="98.7" cy="35.5" r="24.9"/>
				<circle class="st1" cx="94" cy="24.8" r="3.9"/>
				<circle class="st1" cx="109.5" cy="46.2" r="3.9"/>
				<circle class="st1" cx="94" cy="47.1" r="3.9"/>
				<circle class="st1" cx="82.9" cy="35.9" r="3"/>
				<circle class="st1" cx="109.1" cy="30.3" r="3.4"/>
				<circle class="st1" cx="193.6" cy="72.7" r="24.9"/>
				<circle class="st1" cx="186.7" cy="63.2" r="3.9"/>
				<circle class="st1" cx="206.4" cy="80.9" r="3.9"/>
				<circle class="st1" cx="191.5" cy="85" r="3.9"/>
				<circle class="st1" cx="178.2" cy="76.5" r="3"/>
				<circle class="st1" cx="202.6" cy="65.4" r="3.4"/>
				<circle class="st1" cx="206.4" cy="159.1" r="24.9"/>
				<circle class="st1" cx="205.3" cy="147.4" r="3.9"/>
				<circle class="st1" cx="213.3" cy="172.7" r="3.9"/>
				<circle class="st1" cx="198.3" cy="168.6" r="3.9"/>
				<circle class="st1" cx="191.2" cy="154.5" r="3"/>
				<circle class="st1" cx="217.8" cy="157.4" r="3.4"/>
				<circle class="st1" cx="89.3" cy="196.1" r="24.9"/>
				<circle class="st1" cx="78.5" cy="191.5" r="3.9"/>
				<circle class="st1" cx="104.5" cy="196.6" r="3.9"/>
				<circle class="st1" cx="93.7" cy="207.8" r="3.9"/>
				<circle class="st1" cx="78" cy="207.2" r="3"/>
				<circle class="st1" cx="93.3" cy="185.2" r="3.4"/>
				<circle class="st1" cx="127.6" cy="119.5" r="24.9"/>
				<circle class="st1" cx="115.9" cy="119.9" r="3.9"/>
				<circle class="st1" cx="141.6" cy="113.5" r="3.9"/>
				<circle class="st1" cx="136.6" cy="128.2" r="3.9"/>
				<circle class="st1" cx="122.1" cy="134.4" r="3"/>
				<circle class="st1" cx="126.7" cy="108" r="3.4"/>
				<circle class="st1" cx="35.5" cy="116.3" r="24.9"/>
				<circle class="st1" cx="24.7" cy="111.7" r="3.9"/>
				<circle class="st1" cx="50.7" cy="116.8" r="3.9"/>
				<circle class="st1" cx="40" cy="128" r="3.9"/>
				<circle class="st1" cx="24.2" cy="127.5" r="3"/>
				<circle class="st1" cx="39.5" cy="105.5" r="3.4"/>
			</g>
			<g id="Salami-3">
				<circle class="st2" cx="96.8" cy="33.5" r="24.9"/>
				<circle class="st3" cx="92.1" cy="22.8" r="3.9"/>
				<circle class="st3" cx="107.5" cy="44.3" r="3.9"/>
				<circle class="st3" cx="92.1" cy="45.1" r="3.9"/>
				<circle class="st3" cx="80.9" cy="34" r="3"/>
				<circle class="st3" cx="107.1" cy="28.4" r="3.4"/>
				<circle class="st2" cx="191.7" cy="70.7" r="24.9"/>
				<circle class="st3" cx="184.8" cy="61.2" r="3.9"/>
				<circle class="st3" cx="204.5" cy="78.9" r="3.9"/>
				<circle class="st3" cx="189.6" cy="83.1" r="3.9"/>
				<circle class="st3" cx="176.3" cy="74.5" r="3"/>
				<circle class="st3" cx="200.7" cy="63.5" r="3.4"/>
				<circle class="st2" cx="204.5" cy="157.2" r="24.9"/>
				<circle class="st3" cx="203.4" cy="145.5" r="3.9"/>
				<circle class="st3" cx="211.3" cy="170.7" r="3.9"/>
				<circle class="st3" cx="196.4" cy="166.7" r="3.9"/>
				<circle class="st3" cx="189.3" cy="152.6" r="3"/>
				<circle class="st3" cx="215.9" cy="155.5" r="3.4"/>
				<circle class="st2" cx="87.3" cy="194.1" r="24.9"/>
				<circle class="st3" cx="76.5" cy="189.5" r="3.9"/>
				<circle class="st3" cx="102.5" cy="194.6" r="3.9"/>
				<circle class="st3" cx="91.8" cy="205.8" r="3.9"/>
				<circle class="st3" cx="76" cy="205.3" r="3"/>
				<circle class="st3" cx="91.3" cy="183.3" r="3.4"/>
				<circle class="st2" cx="125" cy="118.6" r="24.9"/>
				<circle class="st3" cx="113.3" cy="119" r="3.9"/>
				<circle class="st3" cx="139" cy="112.6" r="3.9"/>
				<circle class="st3" cx="134" cy="127.3" r="3.9"/>
				<circle class="st3" cx="119.5" cy="133.5" r="3"/>
				<circle class="st3" cx="124.1" cy="107.1" r="3.4"/>
				<circle class="st2" cx="33.6" cy="114.3" r="24.9"/>
				<circle class="st3" cx="22.8" cy="109.7" r="3.9"/>
				<circle class="st3" cx="48.7" cy="114.8" r="3.9"/>
				<circle class="st3" cx="38" cy="126" r="3.9"/>
				<circle class="st3" cx="22.2" cy="125.5" r="3"/>
				<circle class="st3" cx="37.6" cy="103.5" r="3.4"/>
			</g>
		</g>
	</g>
</g>
</svg>
