<?xml version="1.0" encoding="utf-8"?>
<!-- Generator: Adobe Illustrator 27.7.0, SVG Export Plug-In . SVG Version: 6.00 Build 0)  -->
<svg version="1.1" id="Layer_1" xmlns="http://www.w3.org/2000/svg" xmlns:xlink="http://www.w3.org/1999/xlink" x="0px" y="0px"
	 viewBox="0 0 308 308" style="enable-background:new 0 0 308 308;" xml:space="preserve">
<style type="text/css">
	.st0{fill:#FFEBAA;}
	.st1{fill:#FFEB70;}
	.st2{opacity:5.000000e-02;}
	.st3{fill:#53423C;}
</style>
<g id="Layer_2_00000034061511977518129220000000013567469961631893_">
	<g id="Cheese">
		<circle id="Sour_cream" class="st0" cx="154" cy="154" r="154"/>
		<path class="st1" d="M107.9,21.8c8.4-3.1,23.1-14.9,32-15.8s25.8,7.5,34.6,8.7c8.8,1.2,27.4-2.5,35.7,0.8
			c8.3,3.3,24.2,18.6,31.5,23.8s25.4,10.6,31.2,17.3c5.8,6.8,3.6,25.5,7.7,33.5c4.1,8,17.6,21.2,19.6,29.9s-4.3,26.5-4.5,35.4
			c-0.1,8.9,5.7,26.9,3.5,35.6c-2.3,8.6-16.2,21.5-20.4,29.3c-4.3,7.8-7.4,26.5-13.5,33.1c-6,6.6-24.3,11.5-31.7,16.5
			c-7.4,5-18.9,20-27.3,23.1c-8.4,3-26.8-1.1-35.7-0.1s-26,8.9-34.9,7.7c-8.8-1.2-23.3-13.5-31.6-16.7s-27.2-4.2-34.5-9.4
			s-14.3-22.7-20.2-29.5c-5.8-6.8-22.1-16.3-26.2-24.3s-2.1-26.8-4.1-35.5c-2-8.7-12-24.7-11.9-33.7c0.1-8.9,10.6-24.7,12.8-33.4
			s0.9-27.5,5.1-35.4s20.8-17,26.8-23.6s13.6-23.9,21-28.9C80.6,25.2,99.5,24.8,107.9,21.8z"/>
		<g class="st2">
			<path class="st3" d="M299.9,119.6c-2-8.7-15.6-21.9-19.6-29.9c-4-8-1.8-26.7-7.7-33.5s-23.9-12.2-31.2-17.3s-8.4-17.6-16.7-20.9
				s-41.6-2.5-50.5-3.7c-8.9-1.2-25.8-9.7-34.6-8.7c-8.8,0.9-23.6,12.8-32,15.8s-27.3,3.4-34.7,8.4c-7.4,5-15,22.3-21,28.9
				S29.3,74.4,25,82.3s-3,26.7-5.2,35.4S7.1,142.1,7,151c-0.1,8.9,9.9,25,11.9,33.7s0.1,27.5,4.1,35.5c4,8,20.3,17.6,26.2,24.3
				c5.8,6.8,12.9,24.3,20.2,29.5c7.3,5.2,26.2,6.1,34.5,9.4c8.3,3.3,22.7,15.6,31.6,16.7c8.9,1.2,26-6.8,34.9-7.7
				c8.9-0.9,27.3,3.2,35.7,0.1s19.9-18.1,27.3-23c7.4-5,25.7-9.9,31.7-16.5c6-6.6,9.2-25.3,13.5-33.1s18.2-20.6,20.4-29.3
				s-3.6-26.6-3.5-35.6C295.6,146.1,301.9,128.3,299.9,119.6z M286.5,187.4c-2.1,7.9-14.8,19.6-18.7,26.8
				c-3.9,7.2-4.2,31.4-12.3,30.3c-8.5-1.2-25,3.8-29,15.1c-2.7,7.7-17.3,18.3-25,21.1c-7.7,2.8-24.6-1-32.7-0.1
				c-8.1,0.9-23.9,5.7-31.9,7.1c-14,2.3-28.1-8.4-28.9-15.3c-1-8.1-24.9-3.8-31.5-8.6s-20.1-19-18.5-27c2.6-13-14.6-19.8-23.9-22.2
				c-7.9-2.1-7.4-25.2-3.8-32.5c3.3-6.7-3.8-20.9-10.9-30.8c-4.7-6.7,9.7-22.6,11.7-30.6S27.7,89,35.9,88.3
				c9.1-0.9,25.5-7.8,24.6-21.5c-0.5-8.2,12.4-21.9,19.2-26.4s24.1-4.9,31.8-7.7c8.2,1.4,21.9-8,29.3-14.5c6.1-5.4,24.8,3.7,31.7,8
				c5,3.1,17,6.2,37.5,0.8c16.8,21.8,31.1,29.8,24.4,21.8c5.3,6.3,22.1,10.9,28.6,15.9c7.5,5.8,7.9,22.5,6.6,30.6
				c-1.3,8.1,16.1,19.4,17.9,27.3c1.8,8,1.7,26.7-4.1,32.4C274.8,163.4,283.6,179.7,286.5,187.4z"/>
		</g>
	</g>
</g>
</svg>
