<?xml version="1.0" encoding="utf-8"?>
<!-- Generator: Adobe Illustrator 27.7.0, SVG Export Plug-In . SVG Version: 6.00 Build 0)  -->
<svg version="1.1" id="Layer_1" xmlns="http://www.w3.org/2000/svg" xmlns:xlink="http://www.w3.org/1999/xlink" x="0px" y="0px"
	 viewBox="0 0 308 308" style="enable-background:new 0 0 308 308;" xml:space="preserve">
<style type="text/css">
	.st0{fill:#CE0000;}
	.st1{fill:#FFF6A4;}
	.st2{opacity:5.000000e-02;}
	.st3{fill:#534741;}
</style>
<g id="Layer_2_00000163052598580871716270000010735409930697180552_">
	<g id="Cheese">
		<circle id="Tomato_sauce" class="st0" cx="154.1" cy="154" r="154"/>
		<path class="st1" d="M107.9,21.8c8.4-3.1,23.1-14.9,32-15.8s25.8,7.5,34.6,8.7c8.8,1.2,27.4-2.5,35.7,0.8
			c8.3,3.3,25.2,18.6,32.5,23.8s25.4,10.6,31.2,17.3c5.8,6.8,2.6,25.5,6.7,33.5c4.1,8,17.6,21.2,19.6,29.9s-4.3,26.5-4.5,35.4
			c-0.1,8.9,5.7,26.9,3.5,35.6c-2.3,8.6-16.2,21.5-20.4,29.3c-4.3,7.8-7.4,26.5-13.5,33.1c-6,6.6-24.3,11.5-31.7,16.5
			c-7.4,5-18.9,20-27.3,23.1c-8.4,3-26.8-1.1-35.7-0.1s-26,8.9-34.9,7.7c-8.8-1.2-23.3-13.5-31.6-16.7s-27.2-4.2-34.5-9.4
			s-14.3-22.7-20.2-29.5c-5.8-6.8-22.1-16.3-26.2-24.3s-2.1-26.8-4.1-35.5c-2-8.7-12-24.7-11.9-33.7c0.1-8.9,10.6-24.7,12.8-33.4
			s0.9-27.5,5.1-35.4s20.8-17,26.8-23.6s13.6-23.9,21-28.9C80.6,25.2,99.5,24.8,107.9,21.8z"/>
		<g class="st2">
			<path class="st3" d="M299.9,119.6c-2-8.7-15.6-21.9-19.6-29.9c-4-8-0.8-26.7-6.7-33.5s-23.9-12.2-31.2-17.3s-24.2-20.5-32.5-23.8
				c-8.3-3.3-26.9,0.3-35.7-0.8c-8.9-1.2-25.8-9.7-34.6-8.7c-8.8,0.9-23.6,12.8-32,15.8s-27.3,3.4-34.7,8.4c-7.4,5-15,22.3-21,28.9
				S29.3,74.4,25,82.3s-3,26.7-5.2,35.4S7.1,142.1,7,151c-0.1,8.9,9.9,25,11.9,33.7s0.1,27.5,4.1,35.5c4,8,20.3,17.6,26.2,24.3
				c5.8,6.8,12.9,24.3,20.2,29.5c7.3,5.2,26.2,6.1,34.5,9.4c8.3,3.3,22.7,15.6,31.6,16.7c8.9,1.2,26-6.8,34.9-7.7
				c8.9-0.9,27.3,3.2,35.7,0.1s19.9-18.1,27.3-23c7.4-5,25.7-9.9,31.7-16.5c6-6.6,9.2-25.3,13.5-33.1s18.2-20.6,20.4-29.3
				s-3.6-26.6-3.5-35.6C295.6,146.1,301.9,128.3,299.9,119.6z M286.5,187.4c-2.1,7.9-20.7,14.2-24.6,21.4
				c-3.9,7.2-0.8,29.7-6.4,35.7c-5.5,6-28.7,7.2-35.5,11.8c-6.8,4.5-10.8,21.6-18.5,24.4c-7.7,2.8-24.6-1-32.7-0.1
				c-8.1,0.9-23.5-0.2-31.6-1.3c-8.1-1.1-21.6-4-29.3-7s-20.3-9.2-26.9-14c-6.7-4.7-17.8-15.4-23.1-21.6c-5.3-6.2-20.2-15-23.9-22.2
				c-3.7-7.3,3.4-23.3,1.6-31.2c-1.8-8-16.4-23.9-16.2-32.1s4-27.7,11.7-30.6c19.8-7.3,2.2-15.9,4.7-32.3c1.2-8.1,19-15.5,24.6-21.5
				s12.4-21.9,19.2-26.4s27.5-2.3,35.2-5.1s17.8-16.2,25.9-17.1c8.1-0.9,25.3,6.8,33.4,7.9s23.4-2.2,31,0.8s20.5,20,27.2,24.7
				s26.3,6.8,31.6,13c5.3,6.2-1.6,25.2,2.1,32.5c3.7,7.3,19.6,17.5,21.5,25.5c1.8,8-8.6,23.4-8.7,31.6
				C278.6,162.2,288.6,179.5,286.5,187.4z"/>
		</g>
	</g>
</g>
</svg>
